<svg width="14" height="24" viewBox="0 0 14 24" fill="none" xmlns="http://www.w3.org/2000/svg">
<path id="Vector" d="M1.41556 0.235277L0.236023 1.4149C0.0785091 1.57208 0 1.75315 0 1.95785C0 2.16206 0.0785091 2.34304 0.236023 2.50023L9.50861 11.7733L0.236271 21.046C0.0787572 21.2033 0.000247787 21.3842 0.000247787 21.5887C0.000247787 21.7932 0.0787572 21.9742 0.236271 22.1314L1.41589 23.3109C1.57308 23.4684 1.75406 23.5469 1.9586 23.5469C2.16297 23.5469 2.34395 23.4681 2.50114 23.3109L13.4962 12.316C13.6535 12.1588 13.7321 11.9778 13.7321 11.7733C13.7321 11.5689 13.6535 11.3881 13.4962 11.231L2.50114 0.235277C2.34387 0.0780945 2.16289 0 1.9586 0C1.75406 0 1.57308 0.0780945 1.41556 0.235277Z" fill="#BA886E"/>
</svg>
