<svg width="33" height="33" viewBox="0 0 33 33" fill="none" xmlns="http://www.w3.org/2000/svg">
<path d="M16.056 32.7516C7.13063 32.7903 -0.208301 25.3611 0.00451486 16.2874C0.204433 7.64579 7.36279 0.506776 16.2624 0.603511C25.0781 0.700245 32.3719 8.03917 32.1333 17.1258C31.9076 25.7287 24.8073 32.7968 16.056 32.7516ZM1.95855 16.7001C2.02949 24.7807 8.58165 31.004 16.3204 30.8685C23.8141 30.7331 30.1663 24.6259 30.1663 16.6808C30.1663 8.60023 23.5626 2.35118 15.798 2.49951C8.30434 2.63494 2.01014 8.76146 1.95855 16.7001Z" fill="#BA886E"/>
<path d="M13.2731 26.002C13.2731 22.8716 13.2731 19.7677 13.2731 16.632C12.5803 16.632 11.9087 16.632 11.2213 16.632C11.2213 15.569 11.2213 14.538 11.2213 13.475C11.3119 13.4697 11.4025 13.4591 11.4984 13.4591C11.994 13.4591 12.495 13.4484 12.9906 13.4644C13.2091 13.4697 13.2837 13.4112 13.2784 13.188C13.2678 12.3802 13.2678 11.5776 13.2731 10.7698C13.2784 9.86097 13.5342 9.03718 14.1844 8.37814C14.8133 7.74037 15.618 7.39491 16.4921 7.34176C17.899 7.26204 19.3113 7.27267 20.7236 7.24609C20.7396 7.24609 20.7556 7.26204 20.7876 7.27798C20.7876 8.34625 20.7876 9.41984 20.7876 10.52C20.6863 10.5253 20.5904 10.5306 20.4998 10.5306C19.8603 10.5306 19.2207 10.5306 18.5812 10.5306C17.9363 10.5359 17.5579 10.9186 17.5579 11.5511C17.5579 12.1516 17.5579 12.7575 17.5633 13.3581C17.5633 13.374 17.5739 13.39 17.5899 13.4484C18.6451 13.4484 19.711 13.4484 20.8302 13.4484C20.6917 14.5273 20.5637 15.5584 20.4252 16.6267C19.4606 16.6267 18.5172 16.6267 17.5473 16.6267C17.5473 19.773 17.5473 22.8875 17.5473 26.0126C16.1137 26.002 14.7174 26.002 13.2731 26.002Z" fill="#BA886E"/>
</svg>
