<svg width="77" height="77" viewBox="0 0 77 77" fill="none" xmlns="http://www.w3.org/2000/svg">
<path d="M11.3042 22.3125V20.6649C12.5973 20.6174 13.8215 20.0703 14.7195 19.1388C15.6174 18.2072 16.1192 16.9637 16.1192 15.6698C16.1192 14.3759 15.6174 13.1324 14.7195 12.2009C13.8215 11.2693 12.5973 10.7222 11.3042 10.6747V7.68275C11.294 7.4401 11.1903 7.2108 11.015 7.04273C10.8397 6.87467 10.6062 6.78084 10.3633 6.78084C10.1205 6.78084 9.88698 6.87467 9.71165 7.04273C9.53633 7.2108 9.43271 7.4401 9.42244 7.68275V10.6579C8.61708 10.6056 7.86331 10.2433 7.31944 9.647C6.77557 9.05072 6.48391 8.26689 6.50571 7.46013C6.52752 6.65337 6.86109 5.88644 7.43637 5.32041C8.01166 4.75439 8.7839 4.4333 9.59091 4.42458H13.6746C13.8015 4.42995 13.9282 4.40959 14.047 4.36473C14.1658 4.31987 14.2744 4.25143 14.3661 4.16353C14.4578 4.07563 14.5307 3.97009 14.5806 3.85325C14.6304 3.73642 14.6561 3.61071 14.6561 3.48369C14.6561 3.35666 14.6304 3.23095 14.5806 3.11412C14.5307 2.99729 14.4578 2.89174 14.3661 2.80385C14.2744 2.71595 14.1658 2.64751 14.047 2.60264C13.9282 2.55778 13.8015 2.53742 13.6746 2.54279H11.3042V0.901914C11.294 0.659262 11.1903 0.429959 11.015 0.261895C10.8397 0.0938305 10.6062 0 10.3633 0C10.1205 0 9.88698 0.0938305 9.71165 0.261895C9.53633 0.429959 9.43271 0.659262 9.42244 0.901914V2.54953C8.10302 2.58138 6.8497 3.1336 5.93577 4.08577C5.02185 5.03793 4.52144 6.31282 4.54368 7.63244C4.56591 8.95206 5.10898 10.2094 6.05447 11.1302C6.99995 12.051 8.27116 12.5607 9.59091 12.5481H11.1223C11.9293 12.5568 12.7015 12.8779 13.2768 13.4439C13.8521 14.01 14.1857 14.7769 14.2075 15.5837C14.2293 16.3904 13.9376 17.1742 13.3937 17.7705C12.8499 18.3668 12.0961 18.7291 11.2907 18.7814V15.7995C11.2805 15.5569 11.1769 15.3276 11.0015 15.1595C10.8262 14.9915 10.5927 14.8976 10.3499 14.8976C10.107 14.8976 9.87351 14.9915 9.69818 15.1595C9.52285 15.3276 9.41923 15.5569 9.40896 15.7995V18.7899H7.04367C6.80102 18.8001 6.57171 18.9037 6.40365 19.0791C6.23558 19.2544 6.14175 19.4879 6.14175 19.7307C6.14175 19.9736 6.23558 20.2071 6.40365 20.3824C6.57171 20.5577 6.80102 20.6614 7.04367 20.6716H9.42244V22.3108C9.43271 22.5535 9.53633 22.7828 9.71165 22.9509C9.88698 23.1189 10.1205 23.2127 10.3633 23.2127C10.6062 23.2127 10.8397 23.1189 11.015 22.9509C11.1903 22.7828 11.294 22.5535 11.3042 22.3108V22.3125Z" fill="#BA886E"/>
<path d="M22.4248 5.59362C22.4248 5.71707 22.4491 5.83931 22.4964 5.95336C22.5436 6.06741 22.6128 6.17104 22.7001 6.25833C22.7874 6.34563 22.8911 6.41487 23.0051 6.46211C23.1192 6.50935 23.2414 6.53367 23.3649 6.53367H47.6765C47.9258 6.53367 48.1649 6.43463 48.3412 6.25833C48.5175 6.08204 48.6165 5.84293 48.6165 5.59362C48.6165 5.3443 48.5175 5.10519 48.3412 4.9289C48.1649 4.7526 47.9258 4.65356 47.6765 4.65356H23.3649C23.1155 4.65356 22.8764 4.7526 22.7001 4.9289C22.5238 5.10519 22.4248 5.3443 22.4248 5.59362Z" fill="#BA886E"/>
<path d="M47.6765 12.5485C47.9191 12.5383 48.1484 12.4346 48.3165 12.2593C48.4846 12.084 48.5784 11.8505 48.5784 11.6076C48.5784 11.3648 48.4846 11.1313 48.3165 10.956C48.1484 10.7806 47.9191 10.677 47.6765 10.6667H44.361C44.1184 10.677 43.8891 10.7806 43.721 10.956C43.5529 11.1313 43.4591 11.3648 43.4591 11.6076C43.4591 11.8505 43.5529 12.084 43.721 12.2593C43.8891 12.4346 44.1184 12.5383 44.361 12.5485H47.6765Z" fill="#BA886E"/>
<path d="M23.3648 12.5485H37.6576C37.9003 12.5383 38.1296 12.4346 38.2977 12.2593C38.4657 12.084 38.5595 11.8505 38.5595 11.6076C38.5595 11.3648 38.4657 11.1313 38.2977 10.956C38.1296 10.7806 37.9003 10.677 37.6576 10.6667H23.3648C23.1222 10.677 22.8928 10.7806 22.7248 10.956C22.5567 11.1313 22.4629 11.3648 22.4629 11.6076C22.4629 11.8505 22.5567 12.084 22.7248 12.2593C22.8928 12.4346 23.1222 12.5383 23.3648 12.5485Z" fill="#BA886E"/>
<path d="M34.5798 17.6205C34.5798 17.8698 34.6788 18.1089 34.8551 18.2852C35.0314 18.4615 35.2705 18.5605 35.5198 18.5605H47.6765C47.9258 18.5605 48.1649 18.4615 48.3412 18.2852C48.5175 18.1089 48.6165 17.8698 48.6165 17.6205C48.6165 17.3712 48.5175 17.132 48.3412 16.9558C48.1649 16.7795 47.9258 16.6804 47.6765 16.6804H35.5198C35.2705 16.6804 35.0314 16.7795 34.8551 16.9558C34.6788 17.132 34.5798 17.3712 34.5798 17.6205Z" fill="#BA886E"/>
<path d="M23.3649 18.5605H28.7289C28.9782 18.5605 29.2173 18.4615 29.3936 18.2852C29.5699 18.1089 29.6689 17.8698 29.6689 17.6205C29.6689 17.3712 29.5699 17.132 29.3936 16.9558C29.2173 16.7795 28.9782 16.6804 28.7289 16.6804H23.3649C23.1155 16.6804 22.8764 16.7795 22.7001 16.9558C22.5238 17.132 22.4248 17.3712 22.4248 17.6205C22.4248 17.8698 22.5238 18.1089 22.7001 18.2852C22.8764 18.4615 23.1155 18.5605 23.3649 18.5605Z" fill="#BA886E"/>
<path d="M76.0582 37.0466H65.47C65.3464 37.0464 65.224 37.0706 65.1098 37.1177C64.9955 37.1648 64.8917 37.2341 64.8042 37.3214C64.7167 37.4087 64.6474 37.5124 64.6 37.6266C64.5527 37.7407 64.5283 37.8631 64.5283 37.9867V75.555C64.5283 75.6786 64.5527 75.801 64.6 75.9152C64.6474 76.0293 64.7167 76.1331 64.8042 76.2204C64.8917 76.3077 64.9955 76.3769 65.1098 76.424C65.224 76.4712 65.3464 76.4953 65.47 76.4951H76.0582C76.1818 76.4953 76.3043 76.4712 76.4185 76.424C76.5327 76.3769 76.6366 76.3077 76.724 76.2204C76.8115 76.1331 76.8809 76.0293 76.9283 75.9152C76.9756 75.801 77 75.6786 77 75.555V37.9901C77.0004 37.8662 76.9764 37.7434 76.9292 37.6289C76.8821 37.5143 76.8128 37.4102 76.7252 37.3226C76.6377 37.2349 76.5337 37.1654 76.4193 37.118C76.3048 37.0707 76.1821 37.0464 76.0582 37.0466ZM75.1182 74.615H66.4101V38.9318H75.1182V74.615Z" fill="#BA886E"/>
<path d="M55.49 75.5502V56.7711C55.4902 56.6475 55.4661 56.5251 55.419 56.4108C55.3718 56.2966 55.3026 56.1927 55.2153 56.1053C55.128 56.0178 55.0243 55.9484 54.9101 55.9011C54.7959 55.8537 54.6736 55.8293 54.55 55.8293H43.9601C43.8365 55.8293 43.7141 55.8537 43.5999 55.9011C43.4858 55.9484 43.3821 56.0178 43.2948 56.1053C43.2074 56.1927 43.1382 56.2966 43.0911 56.4108C43.044 56.5251 43.0198 56.6475 43.02 56.7711V75.5502C43.02 75.7995 43.1191 76.0386 43.2954 76.2149C43.4717 76.3912 43.7108 76.4903 43.9601 76.4903H54.55C54.7993 76.4903 55.0384 76.3912 55.2147 76.2149C55.391 76.0386 55.49 75.7995 55.49 75.5502ZM53.6082 74.6152H44.9018V57.7111H53.6099L53.6082 74.6152Z" fill="#BA886E"/>
<path d="M22.4501 47.9771C22.2007 47.9771 21.9616 48.0761 21.7853 48.2524C21.6091 48.4287 21.51 48.6678 21.51 48.9171V75.5502C21.51 75.7995 21.6091 76.0386 21.7853 76.2149C21.9616 76.3912 22.2007 76.4903 22.4501 76.4903H33.04C33.2893 76.4903 33.5284 76.3912 33.7047 76.2149C33.881 76.0386 33.98 75.7995 33.98 75.5502V48.9171C33.98 48.6678 33.881 48.4287 33.7047 48.2524C33.5284 48.0761 33.2893 47.9771 33.04 47.9771H22.4501ZM32.0982 74.6152H23.3918V49.8588H32.0982V74.6152Z" fill="#BA886E"/>
<path d="M0.941737 76.4905H11.53C11.6535 76.4907 11.776 76.4666 11.8902 76.4194C12.0045 76.3723 12.1083 76.3031 12.1958 76.2157C12.2832 76.1284 12.3526 76.0247 12.4 75.9106C12.4473 75.7964 12.4717 75.674 12.4717 75.5504V65.8719C12.4717 65.7483 12.4473 65.626 12.4 65.5118C12.3526 65.3976 12.2832 65.2939 12.1958 65.2066C12.1083 65.1193 12.0045 65.0501 11.8902 65.003C11.776 64.9558 11.6535 64.9317 11.53 64.9319H0.941737C0.818146 64.9317 0.695723 64.9558 0.581477 65.003C0.46723 65.0501 0.363401 65.1193 0.27593 65.2066C0.18846 65.2939 0.119065 65.3976 0.071718 65.5118C0.0243707 65.626 -1.98466e-07 65.7483 0 65.8719V75.5504C-1.98466e-07 75.674 0.0243707 75.7964 0.071718 75.9106C0.119065 76.0247 0.18846 76.1284 0.27593 76.2157C0.363401 76.3031 0.46723 76.3723 0.581477 76.4194C0.695723 76.4666 0.818146 76.4907 0.941737 76.4905ZM1.88179 66.812H10.5899V74.6154H1.88179V66.812Z" fill="#BA886E"/>
<path d="M6.23499 52.6416C5.41718 52.6409 4.61754 52.8828 3.93723 53.3367C3.25692 53.7906 2.7265 54.436 2.41308 55.1914C2.09965 55.9467 2.0173 56.7781 2.17644 57.5803C2.33558 58.3825 2.72906 59.1194 3.3071 59.6979C3.88515 60.2765 4.62179 60.6705 5.42384 60.8303C6.22589 60.9901 7.05731 60.9084 7.81293 60.5956C8.56856 60.2828 9.21443 59.7529 9.66885 59.073C10.1233 58.3931 10.3658 57.5936 10.3658 56.7758C10.3649 55.6802 9.92954 54.6297 9.15515 53.8547C8.38076 53.0796 7.33059 52.6434 6.23499 52.6416ZM6.23499 59.0282C5.7891 59.0282 5.35322 58.896 4.9825 58.6482C4.61178 58.4005 4.32287 58.0483 4.15231 57.6363C3.98175 57.2244 3.93721 56.771 4.02432 56.3338C4.11143 55.8965 4.32628 55.4948 4.6417 55.1796C4.95711 54.8645 5.35891 54.6499 5.79627 54.5631C6.23363 54.4763 6.68691 54.5212 7.09876 54.6921C7.51062 54.863 7.86255 55.1521 8.11003 55.523C8.35751 55.8939 8.48943 56.3299 8.48909 56.7758C8.4882 57.3732 8.25037 57.9459 7.82779 58.3681C7.40521 58.7904 6.83239 59.0278 6.23499 59.0282Z" fill="#BA886E"/>
<path d="M49.255 51.8095C49.9708 51.8098 50.6744 51.6242 51.2969 51.271C51.9194 50.9177 52.4396 50.4088 52.8065 49.7942C53.1733 49.1796 53.3743 48.4802 53.3898 47.7646C53.4052 47.049 53.2346 46.3416 52.8946 45.7117C52.5547 45.0818 52.057 44.551 51.4503 44.1712C50.8436 43.7913 50.1486 43.5755 49.4335 43.5449C48.7184 43.5143 48.0075 43.6698 47.3706 43.9964C46.7336 44.3229 46.1923 44.8092 45.7997 45.4078L34.0069 41.1C33.8909 41.0577 33.7677 41.0386 33.6442 41.0438C33.5208 41.0491 33.3996 41.0786 33.2876 41.1307C33.1756 41.1828 33.075 41.2564 32.9914 41.3474C32.9079 41.4384 32.8431 41.545 32.8007 41.661C32.7583 41.7771 32.7392 41.9003 32.7445 42.0237C32.7498 42.1471 32.7793 42.2683 32.8314 42.3803C32.8835 42.4923 32.9571 42.593 33.0481 42.6765C33.1391 42.7601 33.2457 42.8249 33.3617 42.8673L45.1545 47.175C45.1344 47.3399 45.1237 47.5058 45.1225 47.672C45.1229 48.7683 45.5583 49.8197 46.333 50.5954C47.1078 51.3711 48.1586 51.8078 49.255 51.8095ZM49.255 45.4212C49.7008 45.4212 50.1366 45.5534 50.5073 45.8011C50.878 46.0488 51.1669 46.4008 51.3375 46.8127C51.5081 47.2246 51.5527 47.6778 51.4658 48.1151C51.3788 48.5523 51.1641 48.954 50.8489 49.2692C50.5336 49.5845 50.132 49.7991 49.6947 49.8861C49.2575 49.9731 48.8043 49.9285 48.3924 49.7578C47.9805 49.5872 47.6284 49.2983 47.3808 48.9276C47.1331 48.557 47.0009 48.1211 47.0009 47.6753C47.0013 47.0776 47.239 46.5046 47.6616 46.0819C48.0842 45.6593 48.6573 45.4217 49.255 45.4212Z" fill="#BA886E"/>
<path d="M70.2933 31.8531C71.1983 31.8534 72.0785 31.5568 72.7986 31.0086C73.5188 30.4605 74.0392 29.6912 74.2799 28.8188C74.5207 27.9464 74.4686 27.0191 74.1315 26.1792C73.7944 25.3393 73.1911 24.6332 72.414 24.1692C71.6369 23.7053 70.7291 23.5092 69.8298 23.6109C68.9306 23.7127 68.0895 24.1068 67.4358 24.7326C66.782 25.3585 66.3517 26.1815 66.2109 27.0755C66.07 27.9695 66.2264 28.885 66.6561 29.6816L54.149 42.1482C54.059 42.2348 53.9872 42.3384 53.9376 42.4531C53.8881 42.5677 53.862 42.6911 53.8607 42.816C53.8594 42.9409 53.883 43.0648 53.9301 43.1804C53.9772 43.2961 54.0469 43.4012 54.1351 43.4896C54.2233 43.578 54.3282 43.648 54.4438 43.6954C54.5593 43.7428 54.6832 43.7667 54.808 43.7658C54.9329 43.7648 55.0564 43.7389 55.1711 43.6897C55.2859 43.6405 55.3897 43.5689 55.4765 43.4791L67.9095 31.0815C68.6043 31.5809 69.4377 31.8506 70.2933 31.8531ZM70.2933 25.4665C70.7393 25.4662 71.1753 25.5981 71.5463 25.8457C71.9172 26.0932 72.2064 26.4453 72.3772 26.8572C72.548 27.2692 72.5928 27.7225 72.5059 28.16C72.4189 28.5974 72.2042 28.9992 71.8889 29.3145C71.5735 29.6298 71.1717 29.8446 70.7343 29.9315C70.2969 30.0184 69.8436 29.9736 69.4316 29.8028C69.0197 29.632 68.6676 29.3428 68.4201 28.9719C68.1725 28.6009 68.0406 28.1649 68.0409 27.7189C68.0418 27.1218 68.2794 26.5494 68.7016 26.1272C69.1238 25.705 69.6962 25.4674 70.2933 25.4665Z" fill="#BA886E"/>
<path d="M11.8989 53.2531C12.1217 53.2529 12.3373 53.1735 12.507 53.029L24.2442 43.0608C25.0441 43.6957 26.0495 44.0141 27.069 43.9554C28.0886 43.8967 29.0508 43.4651 29.7726 42.7426C30.4944 42.0202 30.9252 41.0575 30.9829 40.038C31.0406 39.0184 30.7213 38.0132 30.0857 37.2139C29.4501 36.4147 28.5427 35.8771 27.5363 35.7037C26.53 35.5303 25.495 35.7332 24.6285 36.2737C23.7621 36.8142 23.1248 37.6545 22.838 38.6346C22.5512 39.6147 22.635 40.6661 23.0734 41.5884L11.289 51.5954C11.1418 51.7199 11.0365 51.8867 10.9872 52.0732C10.938 52.2596 10.9473 52.4567 11.0139 52.6376C11.0805 52.8186 11.2011 52.9747 11.3594 53.0848C11.5177 53.1949 11.706 53.2537 11.8989 53.2531ZM26.8049 37.5687C27.2508 37.5687 27.6867 37.701 28.0574 37.9487C28.4281 38.1965 28.717 38.5486 28.8876 38.9606C29.0582 39.3726 29.1027 39.8259 29.0156 40.2632C28.9285 40.7005 28.7136 41.1021 28.3982 41.4173C28.0828 41.7325 27.681 41.9471 27.2436 42.0338C26.8063 42.1206 26.353 42.0757 25.9411 41.9049C25.5293 41.734 25.1774 41.4448 24.9299 41.0739C24.6824 40.703 24.5505 40.267 24.5508 39.8212C24.5517 39.2238 24.7895 38.6511 25.2121 38.2288C25.6347 37.8066 26.2075 37.5692 26.8049 37.5687Z" fill="#BA886E"/>
</svg>
