<svg width="82" height="28" viewBox="0 0 82 28" fill="none" xmlns="http://www.w3.org/2000/svg">
<path d="M75.2476 13.4626H58.8224C58.1541 13.4626 57.6124 14.0044 57.6124 14.6726V26.5227C57.6124 27.191 58.1541 27.7327 58.8224 27.7327H59.17C59.8383 27.7327 60.38 27.191 60.38 26.5227V24.5679C60.38 23.8997 60.9217 23.3579 61.59 23.3579H61.9933C62.6616 23.3579 63.2033 23.8997 63.2033 24.5679V26.5227C63.2033 27.191 63.7451 27.7327 64.4133 27.7327C65.0816 27.7327 65.6233 27.191 65.6233 26.5227V24.5679C65.6233 23.8997 66.1651 23.3579 66.8333 23.3579H67.2366C67.9049 23.3579 68.4466 23.8997 68.4466 24.5679V26.5227C68.4466 27.191 68.9883 27.7327 69.6566 27.7327C70.3249 27.7327 70.8666 27.191 70.8666 26.5227V24.5679C70.8666 23.8997 71.4083 23.3579 72.0766 23.3579H72.4799C73.1482 23.3579 73.6899 23.8997 73.6899 24.5679V26.5227C73.6899 27.191 74.2317 27.7327 74.8999 27.7327H75.2476C75.9158 27.7327 76.4576 27.191 76.4576 26.5227V14.6726C76.4576 14.0044 75.9158 13.4626 75.2476 13.4626Z" fill="#BA886E"/>
<path d="M78.0729 17.2315H27.9986C26.2143 17.2315 24.768 15.7851 24.768 14.0009C24.768 12.2167 26.2143 10.7703 27.9986 10.7703H78.0729C79.8571 10.7703 81.3035 12.2167 81.3035 14.0009C81.3035 15.7851 79.8571 17.2315 78.0729 17.2315Z" fill="#BA886E"/>
<path d="M13.9977 0C6.27844 0 0 6.28291 0 14.0023C0 21.7215 6.27844 28 13.9977 28C21.7171 28 28 21.7215 28 14.0023C28 6.28291 21.7171 0 13.9977 0ZM21.5364 15.3573C21.5364 19.5128 18.1578 22.8959 13.9977 22.8959C9.84222 22.8959 6.4591 19.5128 6.4591 15.3573C6.4591 15.127 6.46814 14.9056 6.49072 14.6798C6.46814 14.4585 6.4591 14.2326 6.4591 14.0023C6.4591 9.84225 9.84222 6.46365 13.9977 6.46365C18.1578 6.46365 21.5364 9.84225 21.5364 14.0023C21.5364 14.2326 21.5273 14.4585 21.5048 14.6798C21.5273 14.9056 21.5364 15.127 21.5364 15.3573Z" fill="#BA886E"/>
<path d="M30.6907 14.0026C30.6907 15.1118 30.5615 16.194 30.3084 17.2332H27.6162C27.8693 16.194 27.9985 15.1118 27.9985 14.0026C27.9985 12.8934 27.8693 11.8111 27.6162 10.772H30.3084C30.5615 11.8111 30.6907 12.8934 30.6907 14.0026Z" fill="#BA886E"/>
<path d="M30.3084 10.772H27.6162C27.8693 11.8111 27.9985 12.8934 27.9985 14.0026C27.9985 15.1118 27.8693 16.194 27.6162 17.2332H30.3084C30.5615 16.194 30.6907 15.1118 30.6907 14.0026C30.6907 12.8934 30.5615 11.8111 30.3084 10.772Z" fill="#BA886E"/>
<path d="M21.5364 15.3572C21.5364 19.5127 18.1578 22.8958 13.9978 22.8958C9.84225 22.8958 6.45913 19.5127 6.45913 15.3572C6.45913 15.1269 6.46817 14.9055 6.49075 14.6797C6.83404 18.519 10.0726 21.5408 13.9978 21.5408C17.9274 21.5408 21.1615 18.519 21.5048 14.6797C21.5274 14.9055 21.5364 15.1269 21.5364 15.3572Z" fill="#BA886E"/>
</svg>
