<svg width="66" height="66" viewBox="0 0 66 66" fill="none" xmlns="http://www.w3.org/2000/svg">
<path fill-rule="evenodd" clip-rule="evenodd" d="M59.9414 32.382L47.8323 37.7638H14.7034C14.3387 37.7638 13.989 37.9087 13.7311 38.1666C13.4732 38.4244 13.3284 38.7742 13.3284 39.1388C13.3284 39.5035 13.4732 39.8533 13.7311 40.1111C13.989 40.369 14.3387 40.5138 14.7034 40.5138H48.125C48.3174 40.514 48.5077 40.4738 48.6836 40.3958L61.0586 34.8958C61.2237 34.8224 61.3727 34.7173 61.4971 34.5864C61.6216 34.4554 61.719 34.3013 61.7838 34.1327C61.8487 33.9641 61.8797 33.7844 61.875 33.6038C61.8704 33.4232 61.8302 33.2454 61.7568 33.0803C61.6835 32.9152 61.5784 32.7662 61.4475 32.6418C61.3165 32.5173 61.1624 32.4199 60.9938 32.3551C60.8252 32.2902 60.6455 32.2592 60.4649 32.2639C60.2843 32.2685 60.1064 32.3086 59.9414 32.382ZM5.5 37.7638C5.13533 37.7638 4.78559 37.9087 4.52773 38.1666C4.26986 38.4244 4.125 38.7742 4.125 39.1388C4.125 39.5035 4.26986 39.8533 4.52773 40.1111C4.78559 40.369 5.13533 40.5138 5.5 40.5138H9.18188C9.54656 40.5138 9.8963 40.369 10.1542 40.1111C10.412 39.8533 10.5569 39.5035 10.5569 39.1388C10.5569 38.7742 10.412 38.4244 10.1542 38.1666C9.8963 37.9087 9.54656 37.7638 9.18188 37.7638H5.5Z" fill="#BA886E"/>
<path fill-rule="evenodd" clip-rule="evenodd" d="M59.9414 39.257L47.8323 44.6388H5.5C5.13533 44.6388 4.78559 44.7837 4.52773 45.0416C4.26986 45.2994 4.125 45.6492 4.125 46.0138C4.125 46.3785 4.26986 46.7283 4.52773 46.9861C4.78559 47.244 5.13533 47.3888 5.5 47.3888H48.125C48.3174 47.389 48.5077 47.3488 48.6836 47.2708L61.0586 41.7708C61.2237 41.6974 61.3727 41.5923 61.4971 41.4614C61.6216 41.3304 61.719 41.1763 61.7838 41.0077C61.8487 40.8391 61.8797 40.6594 61.875 40.4788C61.8704 40.2982 61.8302 40.1204 61.7568 39.9553C61.6835 39.7902 61.5784 39.6412 61.4475 39.5168C61.3165 39.3923 61.1624 39.2949 60.9938 39.2301C60.8252 39.1652 60.6455 39.1342 60.4649 39.1389C60.2843 39.1435 60.1064 39.1836 59.9414 39.257Z" fill="#BA886E"/>
<path fill-rule="evenodd" clip-rule="evenodd" d="M59.9414 25.507L47.8323 30.8888H5.5C5.13533 30.8888 4.78559 31.0337 4.52773 31.2916C4.26986 31.5494 4.125 31.8992 4.125 32.2638C4.125 32.6285 4.26986 32.9783 4.52773 33.2361C4.78559 33.494 5.13533 33.6388 5.5 33.6388H48.125C48.3174 33.639 48.5077 33.5988 48.6836 33.5208L61.0586 28.0208C61.2237 27.9474 61.3727 27.8423 61.4971 27.7114C61.6216 27.5804 61.719 27.4263 61.7838 27.2577C61.8487 27.0891 61.8797 26.9094 61.875 26.7288C61.8704 26.5482 61.8302 26.3704 61.7568 26.2053C61.6835 26.0402 61.5784 25.8912 61.4475 25.7668C61.3165 25.6423 61.1624 25.5449 60.9938 25.4801C60.8252 25.4152 60.6455 25.3842 60.4649 25.3889C60.2843 25.3935 60.1064 25.4336 59.9414 25.507Z" fill="#BA886E"/>
<path fill-rule="evenodd" clip-rule="evenodd" d="M59.9414 18.632L47.8323 24.0138H5.5C5.13533 24.0138 4.78559 24.1587 4.52773 24.4166C4.26986 24.6744 4.125 25.0242 4.125 25.3888C4.125 25.7535 4.26986 26.1033 4.52773 26.3611C4.78559 26.619 5.13533 26.7638 5.5 26.7638H48.125C48.3174 26.764 48.5077 26.7238 48.6836 26.6458L61.0586 21.1458C61.2237 21.0724 61.3727 20.9673 61.4971 20.8364C61.6216 20.7054 61.719 20.5513 61.7838 20.3827C61.8487 20.2141 61.8797 20.0344 61.875 19.8538C61.8704 19.6732 61.8302 19.4954 61.7568 19.3303C61.6835 19.1652 61.5784 19.0162 61.4475 18.8918C61.3165 18.7673 61.1624 18.6699 60.9938 18.6051C60.8252 18.5402 60.6455 18.5092 60.4649 18.5139C60.2843 18.5185 60.1064 18.5586 59.9414 18.632Z" fill="#BA886E"/>
<path fill-rule="evenodd" clip-rule="evenodd" d="M5.5 18.5139L17.875 13.0139H60.5L48.125 18.5139C33.9167 18.5139 19.7083 18.5139 5.5 18.5139Z" fill="#BA886E"/>
<path fill-rule="evenodd" clip-rule="evenodd" d="M40.033 11.6389H44L34.375 19.8889V52.8889H17.875V19.8889L27.5 11.6389H31.5139" fill="#BA886E"/>
<path fill-rule="evenodd" clip-rule="evenodd" d="M27.5 11.6389L17.875 19.8889L17.875 48.4712C22.45 46.9974 27.1805 44.1313 31.4209 40.2642C32.4449 39.3255 33.4323 38.3354 34.375 37.302L34.375 19.8889L44 11.6389H40.0335H31.5149H27.5Z" fill="#BA886E"/>
<path fill-rule="evenodd" clip-rule="evenodd" d="M26.125 26.4202C25.9432 26.4201 25.7631 26.4556 25.5951 26.5244C25.4272 26.5933 25.2746 26.6942 25.1461 26.8214C25.0177 26.9487 24.9158 27.0997 24.8465 27.2659C24.7771 27.432 24.7416 27.6101 24.7419 27.7898V29.3797C22.9688 29.9401 21.6482 31.5434 21.6482 33.459C21.6482 35.8475 23.7013 37.7559 26.125 37.7559C27.1166 37.7559 27.833 38.4728 27.833 39.3188C27.833 40.1649 27.1166 40.8765 26.125 40.8765C25.1334 40.8765 24.4143 40.1649 24.4143 39.3188C24.415 38.9563 24.2699 38.6083 24.0111 38.3514C23.7522 38.0946 23.4007 37.9499 23.0339 37.9492C22.8519 37.9489 22.6715 37.984 22.5033 38.0527C22.335 38.1214 22.1821 38.2223 22.0533 38.3496C21.9246 38.4768 21.8225 38.6279 21.753 38.7943C21.6835 38.9606 21.6479 39.1389 21.6482 39.3188C21.6482 41.2344 22.9688 42.8378 24.7419 43.3982V44.988C24.7416 45.1678 24.7771 45.3458 24.8465 45.512C24.9158 45.6782 25.0177 45.8292 25.1461 45.9564C25.2746 46.0836 25.4272 46.1845 25.5951 46.2534C25.7631 46.3222 25.9432 46.3577 26.125 46.3577C26.3068 46.3577 26.4869 46.3222 26.6549 46.2534C26.8228 46.1845 26.9754 46.0836 27.1039 45.9564C27.2323 45.8292 27.3342 45.6782 27.4035 45.512C27.4729 45.3458 27.5084 45.1678 27.5081 44.988V43.3982C29.2805 42.8378 30.5991 41.2344 30.5991 39.3188C30.5991 36.9304 28.5487 35.022 26.125 35.022C25.1334 35.022 24.4143 34.3051 24.4143 33.459C24.4143 32.6129 25.1334 31.9014 26.125 31.9014C27.1166 31.9014 27.833 32.6129 27.833 33.459C27.8327 33.6387 27.8682 33.8168 27.9376 33.983C28.0069 34.1491 28.1087 34.3002 28.2372 34.4274C28.3657 34.5546 28.5182 34.6555 28.6862 34.7244C28.8542 34.7932 29.0342 34.8286 29.2161 34.8286C29.3979 34.8286 29.578 34.7932 29.7459 34.7244C29.9139 34.6555 30.0665 34.5546 30.1949 34.4274C30.3234 34.3002 30.4252 34.1491 30.4946 33.983C30.5639 33.8168 30.5995 33.6387 30.5991 33.459C30.5991 31.5434 29.2805 29.9401 27.5081 29.3797V27.7898C27.5084 27.6101 27.4729 27.432 27.4035 27.2659C27.3342 27.0997 27.2323 26.9487 27.1039 26.8214C26.9754 26.6942 26.8228 26.5933 26.6549 26.5244C26.4869 26.4556 26.3068 26.4201 26.125 26.4202Z" fill="black" fill-opacity="0.32"/>
<path fill-rule="evenodd" clip-rule="evenodd" d="M59.9414 46.132L47.8323 51.5138H45.3643C44.9996 51.5138 44.6498 51.6587 44.392 51.9166C44.1341 52.1744 43.9893 52.5242 43.9893 52.8888C43.9893 53.2535 44.1341 53.6033 44.392 53.8611C44.6498 54.119 44.9996 54.2638 45.3643 54.2638H48.125C48.3174 54.264 48.5077 54.2238 48.6836 54.1458L61.0586 48.6458C61.2237 48.5724 61.3727 48.4673 61.4971 48.3364C61.6216 48.2054 61.719 48.0513 61.7838 47.8827C61.8487 47.7141 61.8797 47.5344 61.875 47.3538C61.8704 47.1732 61.8302 46.9954 61.7568 46.8303C61.6835 46.6652 61.5784 46.5162 61.4475 46.3918C61.3165 46.2673 61.1624 46.1699 60.9938 46.1051C60.8252 46.0402 60.6455 46.0092 60.4649 46.0139C60.2843 46.0185 60.1064 46.0586 59.9414 46.132ZM5.5 51.5138C5.13533 51.5138 4.78559 51.6587 4.52773 51.9166C4.26986 52.1744 4.125 52.5242 4.125 52.8888C4.125 53.2535 4.26986 53.6033 4.52773 53.8611C4.78559 54.119 5.13533 54.2638 5.5 54.2638H39.5662C39.9308 54.2638 40.2806 54.119 40.5384 53.8611C40.7963 53.6033 40.9412 53.2535 40.9412 52.8888C40.9412 52.5242 40.7963 52.1744 40.5384 51.9166C40.2806 51.6587 39.9308 51.5138 39.5662 51.5138H5.5Z" fill="#BA886E"/>
</svg>
