<svg width="26" height="59" viewBox="0 0 26 59" fill="none" xmlns="http://www.w3.org/2000/svg">
<path d="M14.368 0.799999V6.048C17.568 6.048 20.896 6.56 23.712 7.456L24.032 10.464H23.328C21.152 8.48 18.4 7.84 14.368 7.776V28.064L19.744 32.8C24.352 36.896 25.76 39.776 25.76 43.168C25.76 49.312 20.448 52.32 14.176 52.704V58.4H12.256V52.768C8.096 52.704 4 51.552 1.056 49.632L0.864 46.816H1.504C4.64 49.568 7.968 50.848 12.256 51.04V28.896L7.904 25.056C3.36 21.024 1.504 17.696 1.504 14.368C1.504 10.016 5.28 6.56 12.448 6.112V0.799999H14.368ZM3.68 14.176C3.68 17.632 5.856 20.576 9.44 23.712L12.448 26.336V7.84C6.496 8.16 3.68 10.72 3.68 14.176ZM14.176 51.04C19.296 50.784 23.584 48.032 23.584 43.36C23.584 40.8 22.176 37.6 18.208 34.144L14.176 30.56V51.04Z" fill="#BA886E"/>
</svg>
