<svg width="75" height="80" viewBox="0 0 75 80" fill="none" xmlns="http://www.w3.org/2000/svg">
<path d="M74.193 29.0541H62.8942C62.4487 29.0541 62.0871 28.6925 62.0871 28.247C62.0871 27.8015 62.4487 27.4399 62.8942 27.4399H74.193C74.6385 27.4399 75.0001 27.8015 75.0001 28.247C75.0001 28.6925 74.6385 29.0541 74.193 29.0541Z" fill="#BA886E"/>
<path d="M67.7365 79.0916C67.291 79.0916 66.9294 78.73 66.9294 78.2845C66.9294 75.1693 64.3952 72.6351 61.28 72.6351H17.6987C17.2532 72.6351 16.8917 72.2736 16.8917 71.8281C16.8917 71.3826 17.2532 71.021 17.6987 71.021H61.28C65.2846 71.021 68.5435 74.2799 68.5435 78.2845C68.5435 78.73 68.182 79.0916 67.7365 79.0916Z" fill="#BA886E"/>
<path d="M3.17168 79.0916C2.72618 79.0916 2.36462 78.73 2.36462 78.2845C2.36462 74.2799 5.62353 71.021 9.62816 71.021H12.8564C13.3019 71.021 13.6635 71.3826 13.6635 71.8281C13.6635 72.2736 13.3019 72.6351 12.8564 72.6351H9.62816C6.51291 72.6351 3.97874 75.1693 3.97874 78.2845C3.97874 78.73 3.61717 79.0916 3.17168 79.0916Z" fill="#BA886E"/>
<path d="M51.5953 72.6357H45.1388C44.9209 72.6357 44.7127 72.5486 44.561 72.392C44.4092 72.2354 44.3269 72.0256 44.3318 71.8077L45.9459 7.24286C45.9572 6.80544 46.3155 6.45679 46.7529 6.45679H49.9812C50.4186 6.45679 50.777 6.80544 50.7883 7.24286L51.1111 20.1558C51.1224 20.6013 50.7689 20.9726 50.325 20.9839C50.3169 20.9839 50.3105 20.9839 50.304 20.9839C49.8666 20.9839 49.5083 20.6352 49.497 20.1978L49.1951 8.07091H47.5406L45.9669 71.0216H50.7689L49.6584 26.6543C49.6471 26.2088 50.0006 25.8375 50.4444 25.8262C50.9674 25.8311 51.2612 26.1684 51.2725 26.6123L52.4024 71.8077C52.4072 72.0256 52.3249 72.2354 52.1732 72.392C52.0214 72.5486 51.8132 72.6357 51.5953 72.6357Z" fill="#BA886E"/>
<path d="M33.8384 72.6357C33.4623 72.6357 33.1266 72.371 33.0491 71.9868L32.6359 69.9433C31.1832 62.8008 29.8095 56.0554 29.8596 41.8286C29.9015 29.8114 35.8447 18.172 46.167 9.89158C46.5125 9.61557 47.0209 9.66722 47.3002 10.0159C47.5794 10.3629 47.5245 10.8714 47.1759 11.1506C37.2377 19.1227 31.5141 30.307 31.4737 41.835C31.4237 55.8956 32.7811 62.562 34.2161 69.6205L34.6309 71.6704C34.7197 72.1079 34.4356 72.5324 33.9966 72.6195C33.9449 72.6308 33.8917 72.6357 33.8384 72.6357Z" fill="#BA886E"/>
<path d="M49.9812 8.0706C49.5357 8.0706 49.1741 7.70904 49.1741 7.26354V0.80706C49.1741 0.361563 49.5357 0 49.9812 0C50.4267 0 50.7882 0.361563 50.7882 0.80706V7.26354C50.7882 7.70904 50.4267 8.0706 49.9812 8.0706Z" fill="#BA886E"/>
<path d="M46.4189 20.9837H40.2965C39.851 20.9837 39.4895 20.6222 39.4895 20.1767C39.4895 19.7312 39.851 19.3696 40.2965 19.3696H46.4189C46.8644 19.3696 47.226 19.7312 47.226 20.1767C47.226 20.6222 46.8644 20.9837 46.4189 20.9837Z" fill="#BA886E"/>
<path d="M46.3494 24.2118H38.6824C38.2369 24.2118 37.8753 23.8502 37.8753 23.4047C37.8753 22.9592 38.2369 22.5977 38.6824 22.5977H46.3494C46.7949 22.5977 47.1565 22.9592 47.1565 23.4047C47.1565 23.8502 46.7949 24.2118 46.3494 24.2118Z" fill="#BA886E"/>
<path d="M46.1881 30.6686H32.749C32.3035 30.6686 31.9419 30.307 31.9419 29.8615C31.9419 29.416 32.3035 29.0544 32.749 29.0544H46.1881C46.6336 29.0544 46.9952 29.416 46.9952 29.8615C46.9952 30.307 46.6353 30.6686 46.1881 30.6686Z" fill="#BA886E"/>
<path d="M46.067 35.5108H31.3898C30.9443 35.5108 30.5827 35.1493 30.5827 34.7038C30.5827 34.2583 30.9443 33.8967 31.3898 33.8967H46.067C46.5125 33.8967 46.874 34.2583 46.874 34.7038C46.874 35.1493 46.5141 35.5108 46.067 35.5108Z" fill="#BA886E"/>
<path d="M45.946 40.3534H30.7491C30.3036 40.3534 29.942 39.9918 29.942 39.5463C29.942 39.1008 30.3036 38.7393 30.7491 38.7393H45.946C46.3915 38.7393 46.7531 39.1008 46.7531 39.5463C46.7531 39.9918 46.3915 40.3534 45.946 40.3534Z" fill="#BA886E"/>
<path d="M45.8249 45.1952H30.6748C30.2293 45.1952 29.8677 44.8336 29.8677 44.3881C29.8677 43.9426 30.2293 43.5811 30.6748 43.5811H45.8249C46.2704 43.5811 46.632 43.9426 46.632 44.3881C46.632 44.8336 46.2704 45.1952 45.8249 45.1952Z" fill="#BA886E"/>
<path d="M45.6941 50.0375H30.7893C30.3438 50.0375 29.9822 49.6759 29.9822 49.2304C29.9822 48.7849 30.3438 48.4233 30.7893 48.4233H45.6925C46.138 48.4233 46.4995 48.7849 46.4995 49.2304C46.4995 49.6759 46.1396 50.0375 45.6941 50.0375Z" fill="#BA886E"/>
<path d="M45.5826 54.88H31.083C30.6375 54.88 30.2759 54.5184 30.2759 54.0729C30.2759 53.6274 30.6375 53.2659 31.083 53.2659H45.5826C46.0281 53.2659 46.3897 53.6274 46.3897 54.0729C46.3897 54.5184 46.0298 54.88 45.5826 54.88Z" fill="#BA886E"/>
<path d="M45.4618 59.7223H31.54C31.0945 59.7223 30.733 59.3607 30.733 58.9152C30.733 58.4697 31.0945 58.1082 31.54 58.1082H45.4618C45.9073 58.1082 46.2689 58.4697 46.2689 58.9152C46.2689 59.3607 45.9089 59.7223 45.4618 59.7223Z" fill="#BA886E"/>
<path d="M45.3342 64.5648H32.2615C31.816 64.5648 31.4544 64.2032 31.4544 63.7577C31.4544 63.3122 31.816 62.9507 32.2615 62.9507H45.3342C45.7797 62.9507 46.1413 63.3122 46.1413 63.7577C46.1413 64.2032 45.7797 64.5648 45.3342 64.5648Z" fill="#BA886E"/>
<path d="M45.2101 69.4071H33.1865C32.741 69.4071 32.3794 69.0455 32.3794 68.6C32.3794 68.1545 32.741 67.793 33.1865 67.793H45.2101C45.6556 67.793 46.0171 68.1545 46.0171 68.6C46.0171 69.0455 45.6556 69.4071 45.2101 69.4071Z" fill="#BA886E"/>
<path d="M54.8236 24.212H49.9813C49.5358 24.212 49.1742 23.8504 49.1742 23.4049C49.1742 22.9594 49.5358 22.5979 49.9813 22.5979H54.3249L55.1319 20.9837H48.3671C47.9216 20.9837 47.5601 20.6222 47.5601 20.1767C47.5601 19.7312 47.9216 19.3696 48.3671 19.3696H56.4377C56.717 19.3696 56.9769 19.5149 57.1254 19.7522C57.2722 19.9895 57.2852 20.2881 57.1593 20.5366L55.5451 23.7649C55.4079 24.0393 55.1287 24.212 54.8236 24.212Z" fill="#BA886E"/>
<path d="M25.7696 24.212H24.1554C23.9408 24.212 23.7358 24.1264 23.584 23.9763L20.3558 20.7481C20.125 20.5173 20.0556 20.1702 20.1815 19.8684C20.3074 19.5666 20.6011 19.3696 20.9272 19.3696H27.3837C27.8292 19.3696 28.1907 19.7312 28.1907 20.1767C28.1907 20.6222 27.8292 20.9837 27.3837 20.9837H22.8754L24.4896 22.5979H25.7696C26.2151 22.5979 26.5766 22.9594 26.5766 23.4049C26.5766 23.8504 26.2151 24.212 25.7696 24.212Z" fill="#BA886E"/>
<path d="M33.84 72.6355H24.1553C23.8083 72.6355 23.5 72.4127 23.3886 72.0834C21.2224 65.585 19.8198 59.8774 19.2193 55.1222C18.6237 50.4074 18.798 45.6554 19.7391 41.0003C19.8278 40.5629 20.2572 40.2772 20.6898 40.3692C21.1272 40.458 21.4097 40.8825 21.3225 41.3199C20.4154 45.8023 20.2475 50.3783 20.8205 54.9205C21.3919 59.4368 22.709 64.8522 24.738 71.0213H32.8522L32.6343 69.9431C31.1816 62.8006 29.8079 56.0552 29.8564 41.83C29.8935 31.3333 34.434 21.124 42.461 13.1906C33.1201 17.8845 25.9502 26.2682 22.5767 36.5695C22.4363 36.9924 21.9795 37.2233 21.5582 37.0844C21.1337 36.9456 20.9028 36.4905 21.0417 36.0659C24.8703 24.3845 33.3945 15.0727 44.4286 10.516C45.0759 10.2481 45.7345 9.99627 46.4011 9.759C46.7707 9.62825 47.184 9.78321 47.376 10.127C47.5681 10.4708 47.4826 10.9034 47.1759 11.1504C37.2394 19.1225 31.5141 30.3068 31.4721 41.8348C31.4237 55.8938 32.7812 62.5617 34.2161 69.6203L34.6309 71.6702C34.6777 71.9075 34.6164 72.1528 34.4631 72.3401C34.3097 72.5273 34.0805 72.6355 33.84 72.6355Z" fill="#BA886E"/>
<path d="M43.5248 35.5109H40.2965C39.851 35.5109 39.4895 35.1494 39.4895 34.7039V29.8615C39.4895 29.416 39.851 29.0544 40.2965 29.0544H43.5248C43.9703 29.0544 44.3318 29.416 44.3318 29.8615V34.7039C44.3318 35.1494 43.9703 35.5109 43.5248 35.5109ZM41.1036 33.8968H42.7177V30.6686H41.1036V33.8968Z" fill="#BA886E"/>
<path d="M43.5248 45.1957H40.2965C39.851 45.1957 39.4895 44.8342 39.4895 44.3887V39.5463C39.4895 39.1008 39.851 38.7393 40.2965 38.7393H43.5248C43.9703 38.7393 44.3318 39.1008 44.3318 39.5463V44.3887C44.3318 44.8342 43.9703 45.1957 43.5248 45.1957ZM41.1036 43.5816H42.7177V40.3534H41.1036V43.5816Z" fill="#BA886E"/>
<path d="M41.9106 54.8798H38.6824C38.2369 54.8798 37.8753 54.5183 37.8753 54.0728V49.2304C37.8753 48.7849 38.2369 48.4233 38.6824 48.4233H41.9106C42.3561 48.4233 42.7177 48.7849 42.7177 49.2304V54.0728C42.7177 54.5183 42.3561 54.8798 41.9106 54.8798ZM39.4894 53.2657H41.1035V50.0375H39.4894V53.2657Z" fill="#BA886E"/>
<path d="M41.9106 64.5646H38.6824C38.2369 64.5646 37.8753 64.2031 37.8753 63.7576V58.9152C37.8753 58.4697 38.2369 58.1082 38.6824 58.1082H41.9106C42.3561 58.1082 42.7177 58.4697 42.7177 58.9152V63.7576C42.7177 64.2031 42.3561 64.5646 41.9106 64.5646ZM39.4894 62.9505H41.1035V59.7223H39.4894V62.9505Z" fill="#BA886E"/>
<path d="M38.6824 50.0375H35.4541C35.0086 50.0375 34.6471 49.676 34.6471 49.2305V44.3881C34.6471 43.9426 35.0086 43.5811 35.4541 43.5811H38.6824C39.1279 43.5811 39.4894 43.9426 39.4894 44.3881V49.2305C39.4894 49.676 39.1279 50.0375 38.6824 50.0375ZM36.2612 48.4234H37.8753V45.1952H36.2612V48.4234Z" fill="#BA886E"/>
<path d="M38.6824 59.7224H35.4541C35.0086 59.7224 34.6471 59.3608 34.6471 58.9153V54.0729C34.6471 53.6274 35.0086 53.2659 35.4541 53.2659H38.6824C39.1279 53.2659 39.4894 53.6274 39.4894 54.0729V58.9153C39.4894 59.3608 39.1279 59.7224 38.6824 59.7224ZM36.2612 58.1082H37.8753V54.88H36.2612V58.1082Z" fill="#BA886E"/>
<path d="M38.6824 40.3532H35.4541C35.0086 40.3532 34.6471 39.9916 34.6471 39.5462V34.7038C34.6471 34.2583 35.0086 33.8967 35.4541 33.8967H38.6824C39.1279 33.8967 39.4894 34.2583 39.4894 34.7038V39.5462C39.4894 39.9916 39.1279 40.3532 38.6824 40.3532ZM36.2612 38.7391H37.8753V35.5108H36.2612V38.7391Z" fill="#BA886E"/>
<path d="M6.83259 50.0377C6.38709 50.0377 6.02553 49.6761 6.02553 49.2306C6.02553 47.8957 4.93923 46.8094 3.60435 46.8094C2.74241 46.8094 1.93858 47.2727 1.50599 48.02C1.28324 48.4058 0.787707 48.5382 0.403547 48.3138C0.0177717 48.091 -0.114586 47.5971 0.108163 47.2113C0.826447 45.9669 2.16617 45.1953 3.60273 45.1953C5.82861 45.1953 7.63804 47.0064 7.63804 49.2306C7.63965 49.6761 7.27809 50.0377 6.83259 50.0377Z" fill="#BA886E"/>
<path d="M6.83259 50.0377C6.38709 50.0377 6.02553 49.6761 6.02553 49.2306C6.02553 47.0064 7.83496 45.1953 10.0608 45.1953C11.4974 45.1953 12.8371 45.9685 13.5554 47.2113C13.7798 47.5971 13.6474 48.091 13.26 48.3138C12.8775 48.5349 12.3803 48.4058 12.1576 48.02C11.725 47.2727 10.9212 46.8094 10.0592 46.8094C8.72434 46.8094 7.63804 47.8957 7.63804 49.2306C7.63965 49.6761 7.27809 50.0377 6.83259 50.0377Z" fill="#BA886E"/>
<path d="M8.4468 50.0375H5.21856C4.77306 50.0375 4.4115 49.6759 4.4115 49.2304C4.4115 48.7849 4.77306 48.4233 5.21856 48.4233H8.4468C8.8923 48.4233 9.25386 48.7849 9.25386 49.2304C9.25386 49.6759 8.8923 50.0375 8.4468 50.0375Z" fill="#BA886E"/>
</svg>
