<svg width="30" height="31" viewBox="0 0 30 31" fill="none" xmlns="http://www.w3.org/2000/svg">
<path d="M29.6896 15.4825C29.6896 17.5407 29.6482 19.6047 29.7014 21.6629C29.7901 25.306 27.5013 28.1212 24.5856 29.375C23.4146 29.8777 22.1845 30.1438 20.9129 30.1438C16.9327 30.1497 12.9465 30.203 8.96624 30.1261C5.96774 30.0669 3.50152 28.8131 1.73318 26.341C0.804648 25.0399 0.361084 23.5613 0.361084 21.9586C0.361084 17.7181 0.361084 13.4835 0.361084 9.24307C0.361084 5.78326 2.04663 3.36436 5.03921 1.79118C6.34033 1.11105 7.75383 0.821256 9.22646 0.815342C13.0884 0.815342 16.9563 0.791685 20.8183 0.82717C23.8168 0.850827 26.3185 1.99818 28.1637 4.41117C29.1928 5.75961 29.6896 7.30913 29.6896 9.01241C29.6896 11.1652 29.6896 13.3239 29.6896 15.4825ZM2.54342 15.4825C2.54342 17.6531 2.54342 19.8176 2.54342 21.9882C2.54342 22.9581 2.76816 23.8689 3.27087 24.6909C4.58973 26.8496 6.58282 27.9023 9.05495 27.9438C13.0234 28.0029 16.9977 27.9674 20.972 27.9556C21.9479 27.9556 22.8942 27.7545 23.7754 27.3346C26.1765 26.1872 27.5191 24.3597 27.5072 21.6156C27.4836 17.4165 27.5013 13.2174 27.5013 9.01833C27.5013 7.82958 27.1642 6.74136 26.4604 5.78326C25.1002 3.94395 23.2194 3.03908 20.972 3.01542C17.0095 2.96811 13.047 2.99768 9.08452 3.00359C8.23879 3.00359 7.42263 3.17511 6.63013 3.47081C4.45371 4.28106 2.43105 6.33328 2.52568 9.35544C2.59665 11.4017 2.54342 13.4421 2.54342 15.4825Z" fill="#BA886E"/>
<path d="M15.0579 21.7521C11.2432 21.7521 8.16784 18.7122 8.16192 14.9271C8.15601 11.2011 11.255 8.14942 15.046 8.14942C18.8489 8.14351 21.9361 11.1893 21.942 14.9448C21.942 18.6944 18.8607 21.7462 15.0579 21.7521ZM15.0579 19.5638C17.6542 19.5638 19.7597 17.4879 19.7537 14.933C19.7478 12.4017 17.6424 10.3318 15.0579 10.3318C12.4615 10.3318 10.3443 12.3958 10.3443 14.9448C10.3502 17.4998 12.4615 19.5697 15.0579 19.5638Z" fill="#BA886E"/>
<path d="M22.7403 6.0791C23.5388 6.0791 24.1893 6.75923 24.1893 7.59314C24.1834 8.42704 23.5269 9.10125 22.7285 9.09534C21.9419 9.08943 21.2973 8.41521 21.2973 7.59905C21.2914 6.76515 21.9419 6.0791 22.7403 6.0791Z" fill="#BA886E"/>
</svg>
