<svg width="139" height="134" viewBox="0 0 139 134" fill="none" xmlns="http://www.w3.org/2000/svg">
<path d="M69.3676 4.14981C69.1506 27.4131 68.7427 50.6672 68.7316 73.9324C68.7278 79.3505 68.8039 84.7686 68.7612 90.1644C68.7607 90.1967 68.7477 90.2276 68.7248 90.2504C68.702 90.2733 68.6712 90.2863 68.6388 90.2868C60.6971 90.3721 52.7999 90.7503 45.0362 90.9766C44.9892 90.9778 44.988 90.9852 45.0325 90.9988C45.1233 91.0229 45.1641 91.047 45.2568 91.0452C51.5835 91.0062 58.0381 91.4309 64.1942 91.5514C65.4415 91.5761 66.2815 91.6775 66.7141 91.8555C68.077 92.4136 68.8391 93.8989 68.891 95.3507C68.9961 98.2718 69.145 101.19 69.3379 104.106C69.3935 104.945 69.3342 106.003 69.4325 106.953C69.4386 107.016 69.4442 107.016 69.4491 106.953C69.6902 103.152 69.9646 99.3707 70.0518 95.5584C70.0926 93.8395 70.9307 92.1169 72.6496 91.6849C72.9166 91.6181 73.6434 91.5724 74.8301 91.5477C78.7166 91.4673 82.6013 91.332 86.4841 91.1416C89.0411 91.0155 91.561 91.0563 94.1031 91.047C94.1069 91.047 94.1105 91.0463 94.1134 91.045C94.1164 91.0437 94.1186 91.0418 94.1198 91.0396L94.1347 90.9933C94.1353 90.9918 94.1356 90.9902 94.1354 90.9886C94.1352 90.987 94.1347 90.9854 94.1337 90.9841C94.1328 90.9828 94.1315 90.9818 94.1301 90.9811C94.1286 90.9804 94.127 90.9801 94.1254 90.9803C85.5829 90.7967 77.9304 90.3183 70.3114 90.3016C70.2854 90.3018 70.2604 90.2925 70.2409 90.2754C70.2214 90.2583 70.2088 90.2346 70.2057 90.2089C70.1204 89.5785 70.2001 88.7923 70.202 88.3343C70.2632 69.2949 70.2761 50.2203 69.8571 31.1865C69.8441 30.5783 69.8886 29.7105 69.8738 28.8984C69.7328 21.338 69.6259 11.7318 69.553 0.0797485C69.553 0.0589199 69.5446 0.0389108 69.5297 0.0240103C69.5148 0.00910987 69.4946 0.000496812 69.4733 1.1807e-05C69.3175 -0.00555092 69.349 1.95624 69.3509 2.17133C69.362 3.48043 69.3676 4.13992 69.3676 4.14981Z" fill="#BA886E"/>
<path d="M72.8888 82.6957C72.8047 84.6575 72.8771 86.6137 73.1057 88.5644C73.1063 88.5707 73.1082 88.5766 73.1111 88.5815C73.114 88.5864 73.1179 88.5901 73.1224 88.5922C73.1348 88.5971 73.1416 88.5934 73.1428 88.5811C73.5508 76.8474 73.8771 65.1657 73.7417 53.4209C73.6435 44.973 73.3561 33.3469 73.2133 22.5051C73.2133 22.4905 73.2104 22.4761 73.2046 22.4627C73.1989 22.4492 73.1904 22.4371 73.1798 22.4271C73.1693 22.417 73.1567 22.4092 73.143 22.4041C73.1293 22.3991 73.1148 22.3968 73.1002 22.3976L73.013 22.4032C72.9823 22.4046 72.9533 22.4181 72.932 22.4408C72.9106 22.4636 72.8985 22.4939 72.8981 22.5255C72.8832 26.6865 72.8288 30.8468 72.7349 35.0065C72.3844 50.3188 72.2009 65.607 72.7479 80.9175C72.7683 81.4775 72.911 82.1839 72.8888 82.6957Z" fill="#BA886E"/>
<path d="M65.6479 39.4601C65.6535 39.4638 65.5534 41.3496 65.5497 41.5294C65.2196 55.5048 64.973 69.3968 65.6016 83.3723C65.6665 84.8037 65.6702 87.3125 65.9057 89.2928C65.9131 89.3534 65.9187 89.3534 65.9224 89.2928C66.0757 86.7624 66.1603 84.2308 66.1764 81.6979C66.1783 81.1731 66.2877 80.5723 66.2802 79.9938C66.2635 78.7311 66.3322 77.5332 66.3655 76.2965C66.6486 65.3898 66.5887 54.485 66.1857 43.5821C66.1189 41.7736 66.0522 37.3036 65.9854 30.1722C65.9851 30.1582 65.9818 30.1444 65.9757 30.1318C65.9695 30.1192 65.9607 30.1082 65.9499 30.0995C65.9391 30.0908 65.9265 30.0846 65.9131 30.0815C65.8996 30.0784 65.8857 30.0783 65.8723 30.0813L65.8259 30.0906C65.7971 30.0962 65.7712 30.1117 65.7526 30.1344C65.734 30.157 65.7239 30.1855 65.724 30.2148L65.622 39.4063C65.622 39.4166 65.6243 39.4269 65.6288 39.4362C65.6333 39.4455 65.6398 39.4537 65.6479 39.4601Z" fill="#BA886E"/>
<path d="M76.3543 56.367L76.3432 56.3707C76.3368 56.3724 76.331 56.376 76.327 56.3811C76.323 56.3861 76.3208 56.3923 76.321 56.3985C76.0985 63.8507 75.8797 70.526 76.1263 78.731C76.1386 79.1179 76.1714 79.6618 76.2245 80.3627C76.4508 83.3054 76.4341 86.2796 76.6195 89.2334C76.6232 89.2953 76.63 89.2959 76.6399 89.2353C76.7734 88.3564 76.8562 87.4738 76.8884 86.5874C76.939 85.1473 76.965 84.4229 76.9662 84.4143C77.5411 74.4218 77.3464 65.2803 76.9718 54.9392C76.8661 52.067 76.8902 49.1966 76.8216 46.3022C76.8207 46.2674 76.8062 46.2344 76.7812 46.2102C76.7563 46.1859 76.7229 46.1723 76.6881 46.1724C76.5942 46.1736 76.5466 46.2373 76.5453 46.3634C76.5169 49.6936 76.4569 53.0232 76.3655 56.3522C76.3656 56.3558 76.3645 56.3593 76.3624 56.3621C76.3604 56.3648 76.3575 56.3665 76.3543 56.367Z" fill="#BA886E"/>
<path d="M62.2992 59.9812C62.1731 63.4116 62.1286 66.7882 62.0044 70.2704C61.8363 75.0148 61.8709 79.7592 62.1082 84.5036C62.1583 85.4826 62.0916 86.4376 62.2473 87.4129C62.29 87.6781 62.2214 88.4605 62.3326 88.6293C62.3411 88.6416 62.3531 88.651 62.3672 88.6561C62.3812 88.6613 62.3964 88.662 62.4109 88.6581C62.4253 88.6543 62.4382 88.646 62.4477 88.6346C62.4573 88.6231 62.4631 88.6089 62.4643 88.594C62.7164 84.9356 62.9352 81.2698 62.9389 77.6095C62.9427 73.8911 62.8604 70.1752 62.6923 66.4618C62.5996 64.3999 62.6274 62.1544 62.5366 59.9961C62.5355 59.9692 62.525 59.9436 62.507 59.9238C62.4889 59.9041 62.4646 59.8916 62.4383 59.8885C62.3481 59.8786 62.3017 59.9095 62.2992 59.9812Z" fill="#BA886E"/>
<path d="M69.3509 2.17133C69.349 1.95624 69.3175 -0.00555092 69.4733 1.1807e-05C69.4946 0.000496812 69.5148 0.00910987 69.5297 0.0240103C69.5446 0.0389108 69.553 0.0589199 69.553 0.0797485C69.6259 11.7318 69.7328 21.338 69.8738 28.8984C69.8886 29.7105 69.8441 30.5783 69.8571 31.1865C70.2761 50.2203 70.2632 69.2949 70.202 88.3343C70.2001 88.7923 70.1204 89.5785 70.2057 90.2089C70.2088 90.2346 70.2214 90.2583 70.2409 90.2754C70.2604 90.2925 70.2854 90.3018 70.3114 90.3016C77.9304 90.3183 85.5829 90.7967 94.1254 90.9803C94.127 90.9801 94.1286 90.9804 94.1301 90.9811C94.1315 90.9818 94.1328 90.9828 94.1337 90.9841C94.1347 90.9854 94.1352 90.987 94.1354 90.9886C94.1356 90.9902 94.1353 90.9918 94.1347 90.9933L94.1198 91.0396C94.1186 91.0418 94.1164 91.0437 94.1134 91.045C94.1105 91.0463 94.1069 91.047 94.1031 91.047C91.561 91.0563 89.0411 91.0155 86.4841 91.1416C82.6013 91.332 78.7166 91.4673 74.8301 91.5477C73.6434 91.5724 72.9166 91.6181 72.6496 91.6849C70.9307 92.1169 70.0926 93.8395 70.0518 95.5584C69.9646 99.3707 69.6902 103.152 69.4491 106.953C69.4442 107.016 69.4386 107.016 69.4325 106.953C69.3342 106.003 69.3935 104.945 69.3379 104.106C69.145 101.19 68.9961 98.2718 68.891 95.3507C68.8391 93.8989 68.077 92.4136 66.7141 91.8555C66.2815 91.6775 65.4415 91.5761 64.1942 91.5514C58.0381 91.4309 51.5835 91.0062 45.2568 91.0452C45.1641 91.047 45.1233 91.0229 45.0325 90.9988C44.988 90.9852 44.9892 90.9778 45.0362 90.9766C52.7999 90.7503 60.6971 90.3721 68.6388 90.2868C68.6712 90.2863 68.702 90.2733 68.7248 90.2504C68.7477 90.2276 68.7607 90.1967 68.7612 90.1644C68.8039 84.7686 68.7278 79.3505 68.7316 73.9324C68.7427 50.6672 69.1506 27.4131 69.3676 4.14981C69.3676 4.13992 69.362 3.48043 69.3509 2.17133Z" fill="#BA886E"/>
<path d="M72.8888 82.6957C72.911 82.1839 72.7683 81.4775 72.7479 80.9175C72.2009 65.607 72.3844 50.3188 72.7349 35.0065C72.8288 30.8468 72.8832 26.6865 72.8981 22.5255C72.8985 22.4939 72.9106 22.4636 72.932 22.4408C72.9533 22.4181 72.9823 22.4046 73.013 22.4032L73.1002 22.3976C73.1148 22.3968 73.1293 22.3991 73.143 22.4041C73.1567 22.4092 73.1693 22.417 73.1798 22.4271C73.1904 22.4371 73.1989 22.4492 73.2046 22.4627C73.2104 22.4761 73.2133 22.4905 73.2133 22.5051C73.3561 33.3469 73.6435 44.973 73.7417 53.4209C73.8771 65.1657 73.5508 76.8474 73.1428 88.5811C73.1416 88.5934 73.1348 88.5971 73.1224 88.5922C73.1179 88.5901 73.114 88.5864 73.1111 88.5815C73.1082 88.5766 73.1063 88.5707 73.1057 88.5644C72.8771 86.6137 72.8047 84.6575 72.8888 82.6957Z" fill="#BA886E"/>
<path d="M65.5497 41.5294C65.5534 41.3496 65.6535 39.4638 65.6479 39.4601C65.6398 39.4537 65.6333 39.4455 65.6288 39.4362C65.6243 39.4269 65.622 39.4166 65.622 39.4063L65.724 30.2148C65.7239 30.1855 65.734 30.157 65.7526 30.1344C65.7712 30.1117 65.7971 30.0962 65.8259 30.0906L65.8723 30.0813C65.8857 30.0783 65.8996 30.0784 65.9131 30.0815C65.9265 30.0846 65.9391 30.0908 65.9499 30.0995C65.9607 30.1082 65.9695 30.1192 65.9757 30.1318C65.9818 30.1444 65.9851 30.1582 65.9854 30.1722C66.0522 37.3036 66.1189 41.7736 66.1857 43.5821C66.5887 54.485 66.6486 65.3898 66.3655 76.2965C66.3322 77.5332 66.2635 78.7311 66.2802 79.9938C66.2877 80.5723 66.1783 81.1731 66.1764 81.6979C66.1603 84.2308 66.0757 86.7624 65.9224 89.2928C65.9187 89.3534 65.9131 89.3534 65.9057 89.2928C65.6702 87.3125 65.6665 84.8037 65.6016 83.3723C64.973 69.3968 65.2196 55.5048 65.5497 41.5294Z" fill="#BA886E"/>
<path d="M76.3655 56.3522C76.4569 53.0232 76.5169 49.6936 76.5453 46.3634C76.5466 46.2373 76.5942 46.1736 76.6881 46.1724C76.7229 46.1723 76.7563 46.1859 76.7812 46.2102C76.8062 46.2344 76.8207 46.2674 76.8216 46.3022C76.8902 49.1966 76.8661 52.067 76.9718 54.9392C77.3464 65.2803 77.5411 74.4218 76.9662 84.4143C76.965 84.4229 76.939 85.1473 76.8884 86.5874C76.8562 87.4738 76.7734 88.3564 76.6399 89.2353C76.63 89.2959 76.6232 89.2953 76.6195 89.2334C76.4341 86.2796 76.4508 83.3054 76.2245 80.3627C76.1714 79.6618 76.1386 79.1179 76.1263 78.731C75.8797 70.526 76.0985 63.8507 76.321 56.3985C76.3208 56.3923 76.323 56.3861 76.327 56.3811C76.331 56.376 76.3368 56.3724 76.3432 56.3707L76.3543 56.367C76.3575 56.3665 76.3604 56.3648 76.3624 56.3621C76.3645 56.3593 76.3656 56.3558 76.3655 56.3522Z" fill="#BA886E"/>
<path d="M62.2992 59.9812C62.3017 59.9095 62.3481 59.8786 62.4383 59.8885C62.4646 59.8916 62.4889 59.9041 62.507 59.9238C62.525 59.9436 62.5355 59.9692 62.5366 59.9961C62.6274 62.1544 62.5996 64.3999 62.6923 66.4618C62.8604 70.1752 62.9427 73.8911 62.9389 77.6095C62.9352 81.2698 62.7164 84.9356 62.4643 88.594C62.4631 88.6089 62.4573 88.6231 62.4477 88.6346C62.4382 88.646 62.4253 88.6543 62.4109 88.6581C62.3964 88.662 62.3812 88.6613 62.3672 88.6561C62.3531 88.651 62.3411 88.6416 62.3326 88.6293C62.2214 88.4605 62.29 87.6781 62.2473 87.4129C62.0916 86.4376 62.1583 85.4826 62.1082 84.5036C61.8709 79.7592 61.8363 75.0148 62.0044 70.2704C62.1286 66.7882 62.1731 63.4116 62.2992 59.9812Z" fill="#BA886E"/>
<path d="M72.8535 81.084C72.8535 82.3511 72.9833 86.7951 73.1317 87.0176" stroke="#BA886E" stroke-width="0.2"/>
<path d="M2.028 129.64H4.38C5.116 129.64 5.756 129.452 6.3 129.076C6.844 128.7 7.256 128.208 7.536 127.6C7.816 126.984 7.956 126.336 7.956 125.656C7.956 124.968 7.804 124.344 7.5 123.784C7.204 123.216 6.784 122.772 6.24 122.452C5.704 122.124 5.084 121.96 4.38 121.96H2.028L2.22 121.768V129.832L2.028 129.64ZM4.488 121.6C5.36 121.6 6.136 121.78 6.816 122.14C7.504 122.492 8.04 122.988 8.424 123.628C8.808 124.26 9 124.984 9 125.8C9 126.568 8.8 127.276 8.4 127.924C8.008 128.564 7.468 129.072 6.78 129.448C6.092 129.816 5.328 130 4.488 130H1.14V129.952C1.164 129.856 1.18 129.76 1.188 129.664C1.196 129.56 1.2 129.436 1.2 129.292C1.2 129.148 1.2 128.964 1.2 128.74V122.86C1.2 122.636 1.2 122.452 1.2 122.308C1.2 122.164 1.196 122.044 1.188 121.948C1.18 121.844 1.164 121.744 1.14 121.648V121.6H4.488ZM15.2793 121.6V122.02H15.2433C15.1633 122.004 15.0753 121.992 14.9793 121.984C14.8833 121.976 14.7673 121.972 14.6313 121.972C14.4953 121.964 14.3313 121.96 14.1393 121.96H11.3913L11.5833 121.768V124.3L11.4393 124.156H14.3433V124.516H11.4393L11.5833 124.372V129.832L11.3913 129.64H14.4633C14.6873 129.64 14.8713 129.64 15.0153 129.64C15.1593 129.64 15.2793 129.636 15.3753 129.628C15.4713 129.612 15.5713 129.588 15.6753 129.556H15.7233V130H10.5033V129.952C10.5273 129.856 10.5433 129.76 10.5513 129.664C10.5593 129.56 10.5633 129.436 10.5633 129.292C10.5633 129.148 10.5633 128.964 10.5633 128.74V122.86C10.5633 122.636 10.5633 122.452 10.5633 122.308C10.5633 122.164 10.5593 122.044 10.5513 121.948C10.5433 121.844 10.5273 121.744 10.5033 121.648V121.6H15.2793ZM18.2063 121.6V121.648C18.1743 121.752 18.1503 121.852 18.1343 121.948C18.1263 122.044 18.1223 122.164 18.1223 122.308C18.1223 122.452 18.1223 122.636 18.1223 122.86V129.832L17.9303 129.64H20.1623C20.3863 129.64 20.5703 129.64 20.7143 129.64C20.8583 129.64 20.9783 129.636 21.0743 129.628C21.1703 129.612 21.2703 129.588 21.3743 129.556H21.4223V130H17.0423V129.952C17.0663 129.856 17.0823 129.76 17.0903 129.664C17.0983 129.56 17.1023 129.436 17.1023 129.292C17.1023 129.148 17.1023 128.964 17.1023 128.74V122.86C17.1023 122.636 17.1023 122.452 17.1023 122.308C17.1023 122.164 17.0983 122.044 17.0903 121.948C17.0823 121.844 17.0663 121.744 17.0423 121.648V121.6H18.2063ZM29.4287 123.88H29.2127C29.1007 123.416 28.9007 123.02 28.6127 122.692C28.3247 122.356 27.9807 122.104 27.5807 121.936C27.1807 121.76 26.7567 121.672 26.3087 121.672C25.7087 121.672 25.1327 121.824 24.5807 122.128C24.0367 122.432 23.5927 122.892 23.2487 123.508C22.9127 124.124 22.7447 124.872 22.7447 125.752C22.7447 126.656 22.9047 127.416 23.2247 128.032C23.5527 128.64 23.9767 129.092 24.4967 129.388C25.0247 129.684 25.5847 129.832 26.1767 129.832C26.6407 129.832 27.0807 129.744 27.4967 129.568C27.9207 129.392 28.2847 129.14 28.5887 128.812C28.8927 128.476 29.1007 128.08 29.2127 127.624H29.4287V128.812C29.0047 129.236 28.5047 129.572 27.9287 129.82C27.3527 130.068 26.7367 130.192 26.0807 130.192C25.2727 130.192 24.5287 129.996 23.8487 129.604C23.1767 129.204 22.6447 128.664 22.2527 127.984C21.8607 127.304 21.6647 126.56 21.6647 125.752C21.6647 124.944 21.8607 124.2 22.2527 123.52C22.6447 122.84 23.1767 122.304 23.8487 121.912C24.5287 121.512 25.2727 121.312 26.0807 121.312C26.7367 121.312 27.3527 121.436 27.9287 121.684C28.5047 121.932 29.0047 122.268 29.4287 122.692V123.88ZM35.3994 127.432V127.792H31.0794V127.432H35.3994ZM33.1434 121.6C33.3034 121.6 33.4634 121.58 33.6234 121.54C33.7834 121.5 33.9314 121.436 34.0674 121.348L36.6834 128.74C36.7874 129.028 36.8714 129.26 36.9354 129.436C37.0074 129.612 37.0594 129.736 37.0914 129.808C37.1234 129.872 37.1474 129.92 37.1634 129.952V130H35.9754V129.952V129.94C35.9754 129.908 35.9714 129.856 35.9634 129.784C35.9554 129.704 35.9274 129.58 35.8794 129.412C35.8314 129.244 35.7594 129.02 35.6634 128.74L33.2514 121.852H33.4434L30.7794 128.728C30.6754 129.008 30.5954 129.232 30.5394 129.4C30.4914 129.568 30.4634 129.688 30.4554 129.76C30.4474 129.832 30.4474 129.888 30.4554 129.928V129.952V130H29.8434V129.952C29.8594 129.92 29.8834 129.868 29.9154 129.796C29.9474 129.724 29.9994 129.604 30.0714 129.436C30.1514 129.26 30.2474 129.028 30.3594 128.74L33.1434 121.6ZM41.9228 122.788H41.7068C41.6268 122.556 41.5108 122.364 41.3588 122.212C41.2148 122.052 41.0428 121.936 40.8428 121.864C40.6508 121.784 40.4468 121.744 40.2308 121.744C39.8708 121.744 39.5748 121.844 39.3428 122.044C39.1108 122.244 38.9948 122.528 38.9948 122.896C38.9948 123.152 39.0548 123.42 39.1748 123.7C39.2948 123.972 39.4668 124.228 39.6908 124.468L41.3228 126.232C41.6508 126.592 41.8988 126.952 42.0668 127.312C42.2348 127.664 42.3188 128 42.3188 128.32C42.3188 128.672 42.2268 128.988 42.0428 129.268C41.8588 129.54 41.5948 129.756 41.2508 129.916C40.9148 130.068 40.5148 130.144 40.0508 130.144C39.6908 130.144 39.3308 130.092 38.9708 129.988C38.6108 129.884 38.2988 129.732 38.0348 129.532L37.9988 128.416H38.2148C38.3028 128.712 38.4428 128.964 38.6348 129.172C38.8268 129.372 39.0468 129.524 39.2948 129.628C39.5428 129.732 39.7948 129.784 40.0508 129.784C40.4428 129.784 40.7588 129.676 40.9988 129.46C41.2388 129.236 41.3588 128.932 41.3588 128.548C41.3588 128.3 41.2948 128.04 41.1668 127.768C41.0468 127.496 40.8588 127.224 40.6028 126.952L38.9708 125.188C38.6588 124.852 38.4228 124.512 38.2628 124.168C38.1028 123.816 38.0228 123.48 38.0228 123.16C38.0228 122.648 38.2108 122.224 38.5868 121.888C38.9708 121.552 39.4868 121.384 40.1348 121.384C40.7508 121.384 41.3308 121.48 41.8748 121.672L41.9228 122.788ZM48.8027 121.6V122.044H48.7547C48.6587 122.02 48.5627 122.004 48.4667 121.996C48.3787 121.98 48.2667 121.972 48.1307 121.972C48.0027 121.964 47.8467 121.96 47.6627 121.96H46.3667L46.5587 121.768V128.74C46.5587 128.948 46.5587 129.124 46.5587 129.268C46.5667 129.412 46.5707 129.528 46.5707 129.616C46.5787 129.704 46.5907 129.788 46.6067 129.868L46.6187 129.952V130H45.4787V129.952L45.4907 129.868C45.5067 129.788 45.5147 129.704 45.5147 129.616C45.5227 129.528 45.5267 129.412 45.5267 129.268C45.5347 129.124 45.5387 128.948 45.5387 128.74V121.768L45.7307 121.96H44.4347C44.2507 121.96 44.0907 121.964 43.9547 121.972C43.8267 121.972 43.7147 121.98 43.6187 121.996C43.5307 122.004 43.4387 122.02 43.3427 122.044H43.2947V121.6H48.8027ZM51.3347 121.6V121.648C51.3187 121.744 51.3027 121.844 51.2867 121.948C51.2787 122.044 51.2747 122.164 51.2747 122.308C51.2747 122.452 51.2747 122.636 51.2747 122.86V128.74C51.2747 128.964 51.2747 129.148 51.2747 129.292C51.2747 129.436 51.2787 129.56 51.2867 129.664C51.3027 129.76 51.3187 129.856 51.3347 129.952V130H50.1947V129.952C50.2187 129.856 50.2347 129.76 50.2427 129.664C50.2507 129.56 50.2547 129.436 50.2547 129.292C50.2547 129.148 50.2547 128.964 50.2547 128.74V122.86C50.2547 122.636 50.2547 122.452 50.2547 122.308C50.2547 122.164 50.2507 122.044 50.2427 121.948C50.2347 121.844 50.2187 121.744 50.1947 121.648V121.6H51.3347ZM54.7806 121.6V121.648C54.7486 121.752 54.7246 121.852 54.7086 121.948C54.7006 122.044 54.6966 122.164 54.6966 122.308C54.6966 122.452 54.6966 122.636 54.6966 122.86V129.832L54.5046 129.64H56.7366C56.9606 129.64 57.1446 129.64 57.2886 129.64C57.4326 129.64 57.5526 129.636 57.6486 129.628C57.7446 129.612 57.8446 129.588 57.9486 129.556H57.9966V130H53.6166V129.952C53.6406 129.856 53.6566 129.76 53.6646 129.664C53.6726 129.56 53.6766 129.436 53.6766 129.292C53.6766 129.148 53.6766 128.964 53.6766 128.74V122.86C53.6766 122.636 53.6766 122.452 53.6766 122.308C53.6766 122.164 53.6726 122.044 53.6646 121.948C53.6566 121.844 53.6406 121.744 53.6166 121.648V121.6H54.7806ZM60.1829 121.6V121.648C60.1509 121.752 60.1269 121.852 60.1109 121.948C60.1029 122.044 60.0989 122.164 60.0989 122.308C60.0989 122.452 60.0989 122.636 60.0989 122.86V129.832L59.9069 129.64H62.1389C62.3629 129.64 62.5469 129.64 62.6909 129.64C62.8349 129.64 62.9549 129.636 63.0509 129.628C63.1469 129.612 63.2469 129.588 63.3509 129.556H63.3989V130H59.0189V129.952C59.0429 129.856 59.0589 129.76 59.0669 129.664C59.0749 129.56 59.0789 129.436 59.0789 129.292C59.0789 129.148 59.0789 128.964 59.0789 128.74V122.86C59.0789 122.636 59.0789 122.452 59.0789 122.308C59.0789 122.164 59.0749 122.044 59.0669 121.948C59.0589 121.844 59.0429 121.744 59.0189 121.648V121.6H60.1829ZM68.0813 130.192C67.2733 130.192 66.5293 129.996 65.8493 129.604C65.1693 129.204 64.6293 128.664 64.2293 127.984C63.8373 127.304 63.6413 126.56 63.6413 125.752C63.6413 124.944 63.8373 124.2 64.2293 123.52C64.6293 122.84 65.1693 122.304 65.8493 121.912C66.5293 121.512 67.2733 121.312 68.0813 121.312C68.8893 121.312 69.6333 121.512 70.3133 121.912C70.9933 122.304 71.5293 122.84 71.9213 123.52C72.3213 124.2 72.5213 124.944 72.5213 125.752C72.5213 126.56 72.3213 127.304 71.9213 127.984C71.5293 128.664 70.9933 129.204 70.3133 129.604C69.6333 129.996 68.8893 130.192 68.0813 130.192ZM67.9253 129.832C68.5893 129.832 69.1893 129.652 69.7253 129.292C70.2613 128.924 70.6813 128.432 70.9853 127.816C71.2893 127.192 71.4413 126.504 71.4413 125.752C71.4413 125 71.3013 124.312 71.0213 123.688C70.7493 123.064 70.3653 122.572 69.8693 122.212C69.3813 121.852 68.8293 121.672 68.2133 121.672C67.5493 121.672 66.9493 121.852 66.4133 122.212C65.8853 122.572 65.4693 123.064 65.1653 123.688C64.8693 124.312 64.7213 125 64.7213 125.752C64.7213 126.504 64.8573 127.192 65.1293 127.816C65.4093 128.432 65.7933 128.924 66.2812 129.292C66.7693 129.652 67.3173 129.832 67.9253 129.832ZM81.0102 121.6C81.6662 121.6 82.2302 121.684 82.7022 121.852C83.1742 122.012 83.5342 122.24 83.7822 122.536C84.0302 122.832 84.1542 123.18 84.1542 123.58C84.1542 123.972 84.0382 124.304 83.8062 124.576C83.5742 124.848 83.2342 125.056 82.7862 125.2C82.3462 125.344 81.8142 125.416 81.1902 125.416C81.1582 125.416 81.1302 125.416 81.1062 125.416C81.0902 125.416 81.0662 125.416 81.0342 125.416C81.0022 125.416 80.9702 125.416 80.9382 125.416L81.4902 125.224L83.3022 127.972C83.7022 128.58 84.0382 129.032 84.3102 129.328C84.5902 129.616 84.8142 129.788 84.9822 129.844L84.9702 130.024C84.4662 130.12 84.0262 130.036 83.6502 129.772C83.2742 129.508 82.9102 129.12 82.5582 128.608L82.5102 128.524L80.3502 125.284L80.4342 125.128C80.4902 125.128 80.5302 125.128 80.5542 125.128C80.5862 125.128 80.6302 125.128 80.6862 125.128C81.4542 125.128 82.0502 124.988 82.4742 124.708C82.8982 124.42 83.1102 124.024 83.1102 123.52C83.1102 123.176 83.0142 122.888 82.8222 122.656C82.6382 122.424 82.3622 122.252 81.9942 122.14C81.6342 122.02 81.1902 121.96 80.6622 121.96H79.1022L79.2942 121.768V128.74C79.2942 128.964 79.2942 129.148 79.2942 129.292C79.2942 129.436 79.2982 129.556 79.3062 129.652C79.3222 129.748 79.3462 129.848 79.3782 129.952V130H78.2142V129.952C78.2302 129.856 78.2422 129.76 78.2502 129.664C78.2662 129.56 78.2742 129.436 78.2742 129.292C78.2742 129.148 78.2742 128.964 78.2742 128.74V122.86C78.2742 122.636 78.2742 122.452 78.2742 122.308C78.2742 122.164 78.2662 122.044 78.2502 121.948C78.2422 121.844 78.2302 121.744 78.2142 121.648V121.6H81.0102ZM91.0176 121.6V122.02H90.9816C90.9016 122.004 90.8136 121.992 90.7176 121.984C90.6216 121.976 90.5056 121.972 90.3696 121.972C90.2336 121.964 90.0696 121.96 89.8776 121.96H87.1296L87.3216 121.768V124.3L87.1776 124.156H90.0816V124.516H87.1776L87.3216 124.372V129.832L87.1296 129.64H90.2016C90.4256 129.64 90.6096 129.64 90.7536 129.64C90.8976 129.64 91.0176 129.636 91.1136 129.628C91.2096 129.612 91.3096 129.588 91.4136 129.556H91.4616V130H86.2416V129.952C86.2656 129.856 86.2816 129.76 86.2896 129.664C86.2976 129.56 86.3016 129.436 86.3016 129.292C86.3016 129.148 86.3016 128.964 86.3016 128.74V122.86C86.3016 122.636 86.3016 122.452 86.3016 122.308C86.3016 122.164 86.2976 122.044 86.2896 121.948C86.2816 121.844 86.2656 121.744 86.2416 121.648V121.6H91.0176ZM96.419 127.432V127.792H92.099V127.432H96.419ZM94.163 121.6C94.323 121.6 94.483 121.58 94.643 121.54C94.803 121.5 94.951 121.436 95.087 121.348L97.703 128.74C97.807 129.028 97.891 129.26 97.955 129.436C98.027 129.612 98.079 129.736 98.111 129.808C98.143 129.872 98.167 129.92 98.183 129.952V130H96.995V129.952V129.94C96.995 129.908 96.991 129.856 96.983 129.784C96.975 129.704 96.947 129.58 96.899 129.412C96.851 129.244 96.779 129.02 96.683 128.74L94.271 121.852H94.463L91.799 128.728C91.695 129.008 91.615 129.232 91.559 129.4C91.511 129.568 91.483 129.688 91.475 129.76C91.467 129.832 91.467 129.888 91.475 129.928V129.952V130H90.863V129.952C90.879 129.92 90.903 129.868 90.935 129.796C90.967 129.724 91.019 129.604 91.091 129.436C91.171 129.26 91.267 129.028 91.379 128.74L94.163 121.6ZM100.542 121.6V121.648C100.51 121.752 100.486 121.852 100.47 121.948C100.462 122.044 100.458 122.164 100.458 122.308C100.458 122.452 100.458 122.636 100.458 122.86V129.832L100.266 129.64H102.498C102.722 129.64 102.906 129.64 103.05 129.64C103.194 129.64 103.314 129.636 103.41 129.628C103.506 129.612 103.606 129.588 103.71 129.556H103.758V130H99.3783V129.952C99.4023 129.856 99.4183 129.76 99.4263 129.664C99.4343 129.56 99.4383 129.436 99.4383 129.292C99.4383 129.148 99.4383 128.964 99.4383 128.74V122.86C99.4383 122.636 99.4383 122.452 99.4383 122.308C99.4383 122.164 99.4343 122.044 99.4263 121.948C99.4183 121.844 99.4023 121.744 99.3783 121.648V121.6H100.542ZM112.54 122.788H112.324C112.244 122.556 112.128 122.364 111.976 122.212C111.832 122.052 111.66 121.936 111.46 121.864C111.268 121.784 111.064 121.744 110.848 121.744C110.488 121.744 110.192 121.844 109.96 122.044C109.728 122.244 109.612 122.528 109.612 122.896C109.612 123.152 109.672 123.42 109.792 123.7C109.912 123.972 110.084 124.228 110.308 124.468L111.94 126.232C112.268 126.592 112.516 126.952 112.684 127.312C112.852 127.664 112.936 128 112.936 128.32C112.936 128.672 112.844 128.988 112.66 129.268C112.476 129.54 112.212 129.756 111.868 129.916C111.532 130.068 111.132 130.144 110.668 130.144C110.308 130.144 109.948 130.092 109.588 129.988C109.228 129.884 108.916 129.732 108.652 129.532L108.616 128.416H108.832C108.92 128.712 109.06 128.964 109.252 129.172C109.444 129.372 109.664 129.524 109.912 129.628C110.16 129.732 110.412 129.784 110.668 129.784C111.06 129.784 111.376 129.676 111.616 129.46C111.856 129.236 111.976 128.932 111.976 128.548C111.976 128.3 111.912 128.04 111.784 127.768C111.664 127.496 111.476 127.224 111.22 126.952L109.588 125.188C109.276 124.852 109.04 124.512 108.88 124.168C108.72 123.816 108.64 123.48 108.64 123.16C108.64 122.648 108.828 122.224 109.204 121.888C109.588 121.552 110.104 121.384 110.752 121.384C111.368 121.384 111.948 121.48 112.492 121.672L112.54 122.788ZM119.42 121.6V122.044H119.372C119.276 122.02 119.18 122.004 119.084 121.996C118.996 121.98 118.884 121.972 118.748 121.972C118.62 121.964 118.464 121.96 118.28 121.96H116.984L117.176 121.768V128.74C117.176 128.948 117.176 129.124 117.176 129.268C117.184 129.412 117.188 129.528 117.188 129.616C117.196 129.704 117.208 129.788 117.224 129.868L117.236 129.952V130H116.096V129.952L116.108 129.868C116.124 129.788 116.132 129.704 116.132 129.616C116.14 129.528 116.144 129.412 116.144 129.268C116.152 129.124 116.156 128.948 116.156 128.74V121.768L116.348 121.96H115.052C114.868 121.96 114.708 121.964 114.572 121.972C114.444 121.972 114.332 121.98 114.236 121.996C114.148 122.004 114.056 122.02 113.96 122.044H113.912V121.6H119.42ZM124.685 127.432V127.792H120.365V127.432H124.685ZM122.429 121.6C122.589 121.6 122.749 121.58 122.909 121.54C123.069 121.5 123.217 121.436 123.353 121.348L125.969 128.74C126.073 129.028 126.157 129.26 126.221 129.436C126.293 129.612 126.345 129.736 126.377 129.808C126.409 129.872 126.433 129.92 126.449 129.952V130H125.261V129.952V129.94C125.261 129.908 125.257 129.856 125.249 129.784C125.241 129.704 125.213 129.58 125.165 129.412C125.117 129.244 125.045 129.02 124.949 128.74L122.537 121.852H122.729L120.065 128.728C119.961 129.008 119.881 129.232 119.825 129.4C119.777 129.568 119.749 129.688 119.741 129.76C119.733 129.832 119.733 129.888 119.741 129.928V129.952V130H119.129V129.952C119.145 129.92 119.169 129.868 119.201 129.796C119.233 129.724 119.285 129.604 119.357 129.436C119.437 129.26 119.533 129.028 119.645 128.74L122.429 121.6ZM131.889 121.6V122.044H131.841C131.745 122.02 131.649 122.004 131.553 121.996C131.465 121.98 131.353 121.972 131.217 121.972C131.089 121.964 130.933 121.96 130.749 121.96H129.453L129.645 121.768V128.74C129.645 128.948 129.645 129.124 129.645 129.268C129.653 129.412 129.657 129.528 129.657 129.616C129.665 129.704 129.677 129.788 129.693 129.868L129.705 129.952V130H128.565V129.952L128.577 129.868C128.593 129.788 128.601 129.704 128.601 129.616C128.609 129.528 128.613 129.412 128.613 129.268C128.621 129.124 128.625 128.948 128.625 128.74V121.768L128.817 121.96H127.521C127.337 121.96 127.177 121.964 127.041 121.972C126.913 121.972 126.801 121.98 126.705 121.996C126.617 122.004 126.525 122.02 126.429 122.044H126.381V121.6H131.889ZM138.057 121.6V122.02H138.021C137.941 122.004 137.853 121.992 137.757 121.984C137.661 121.976 137.545 121.972 137.409 121.972C137.273 121.964 137.109 121.96 136.917 121.96H134.169L134.361 121.768V124.3L134.217 124.156H137.121V124.516H134.217L134.361 124.372V129.832L134.169 129.64H137.241C137.465 129.64 137.649 129.64 137.793 129.64C137.937 129.64 138.057 129.636 138.153 129.628C138.249 129.612 138.349 129.588 138.453 129.556H138.501V130H133.281V129.952C133.305 129.856 133.321 129.76 133.329 129.664C133.337 129.56 133.341 129.436 133.341 129.292C133.341 129.148 133.341 128.964 133.341 128.74V122.86C133.341 122.636 133.341 122.452 133.341 122.308C133.341 122.164 133.337 122.044 133.329 121.948C133.321 121.844 133.305 121.744 133.281 121.648V121.6H138.057Z" fill="#BA886E"/>
</svg>
