<svg width="232" height="320" viewBox="0 0 232 320" fill="none" xmlns="http://www.w3.org/2000/svg">
<path d="M114.974 11.5521C114.405 72.6275 113.334 133.679 113.305 194.759C113.295 208.984 113.495 223.208 113.383 237.374C113.381 237.459 113.347 237.54 113.287 237.6C113.227 237.66 113.146 237.694 113.061 237.696C92.2111 237.92 71.4778 238.913 51.095 239.507C50.9717 239.51 50.9684 239.529 51.0853 239.565C51.3238 239.628 51.4309 239.692 51.6743 239.687C68.2843 239.585 85.2302 240.699 101.392 241.016C104.667 241.081 106.872 241.347 108.008 241.814C111.586 243.279 113.587 247.179 113.723 250.991C113.999 258.659 114.39 266.322 114.897 273.978C115.043 276.178 114.887 278.958 115.145 281.45C115.161 281.616 115.176 281.616 115.189 281.45C115.822 271.471 116.542 261.545 116.771 251.536C116.878 247.023 119.078 242.501 123.591 241.366C124.292 241.191 126.2 241.071 129.316 241.006C139.52 240.795 149.718 240.44 159.912 239.94C166.625 239.609 173.241 239.716 179.915 239.692C179.925 239.692 179.934 239.69 179.942 239.686C179.95 239.683 179.956 239.678 179.959 239.672L179.998 239.55C180 239.547 180 239.542 180 239.538C179.999 239.534 179.998 239.53 179.995 239.526C179.993 239.523 179.99 239.52 179.986 239.519C179.982 239.517 179.978 239.516 179.974 239.516C157.546 239.034 137.455 237.778 117.452 237.735C117.384 237.735 117.318 237.711 117.267 237.666C117.216 237.621 117.183 237.559 117.175 237.491C116.951 235.836 117.16 233.772 117.165 232.57C117.326 182.584 117.36 132.505 116.26 82.5342C116.226 80.9374 116.342 78.6591 116.303 76.5269C115.933 56.678 115.653 31.4579 115.461 0.866598C115.461 0.811915 115.439 0.759383 115.4 0.720263C115.361 0.681144 115.308 0.658531 115.252 0.657258C114.843 0.642653 114.926 5.79313 114.931 6.35784C114.96 9.79473 114.974 11.5261 114.974 11.5521Z" fill="#BA886E"/>
<path d="M124.219 217.765C123.999 222.915 124.188 228.051 124.789 233.172C124.79 233.189 124.795 233.204 124.803 233.217C124.811 233.23 124.821 233.24 124.833 233.245C124.865 233.258 124.883 233.249 124.886 233.216C125.957 202.411 126.814 171.742 126.459 140.907C126.201 118.728 125.446 88.2046 125.071 59.7407C125.071 59.7024 125.063 59.6644 125.048 59.6292C125.033 59.594 125.011 59.5622 124.983 59.5357C124.956 59.5093 124.923 59.4888 124.887 59.4755C124.851 59.4622 124.812 59.4564 124.774 59.4584L124.545 59.473C124.465 59.4767 124.389 59.5121 124.333 59.5718C124.276 59.6315 124.245 59.7111 124.244 59.7943C124.205 70.7183 124.062 81.6408 123.815 92.5616C122.895 132.763 122.413 172.9 123.849 213.096C123.903 214.566 124.278 216.421 124.219 217.765Z" fill="#BA886E"/>
<path d="M105.209 104.254C105.224 104.264 104.961 109.214 104.951 109.687C104.084 146.378 103.437 182.85 105.087 219.541C105.258 223.299 105.267 229.885 105.886 235.084C105.905 235.244 105.92 235.244 105.929 235.084C106.332 228.441 106.554 221.795 106.596 215.145C106.601 213.767 106.888 212.19 106.869 210.671C106.825 207.356 107.005 204.211 107.093 200.964C107.836 172.33 107.679 143.7 106.621 115.076C106.445 110.328 106.27 98.5921 106.095 79.8694C106.094 79.8326 106.085 79.7963 106.069 79.7633C106.053 79.7303 106.03 79.7014 106.002 79.6785C105.973 79.6557 105.94 79.6396 105.905 79.6313C105.87 79.6231 105.833 79.6229 105.798 79.6308L105.676 79.6552C105.601 79.6699 105.533 79.7105 105.484 79.7701C105.435 79.8296 105.408 79.9043 105.409 79.9813L105.141 104.113C105.141 104.14 105.147 104.167 105.159 104.191C105.17 104.215 105.188 104.237 105.209 104.254Z" fill="#BA886E"/>
<path d="M133.318 148.645L133.288 148.655C133.271 148.659 133.256 148.668 133.246 148.682C133.235 148.695 133.23 148.711 133.23 148.728C132.646 168.293 132.071 185.818 132.719 207.359C132.751 208.375 132.837 209.803 132.977 211.643C133.571 219.369 133.527 227.177 134.014 234.932C134.023 235.095 134.041 235.096 134.067 234.937C134.418 232.63 134.635 230.312 134.72 227.985C134.853 224.205 134.921 222.303 134.924 222.28C136.433 196.046 135.922 172.046 134.939 144.896C134.661 137.356 134.724 129.82 134.544 122.221C134.542 122.129 134.504 122.043 134.438 121.979C134.373 121.915 134.285 121.88 134.194 121.88C133.947 121.883 133.822 122.05 133.819 122.381C133.744 131.124 133.587 139.866 133.347 148.606C133.347 148.615 133.344 148.625 133.339 148.632C133.333 148.639 133.326 148.644 133.318 148.645Z" fill="#BA886E"/>
<path d="M96.4173 158.131C96.0862 167.137 95.9694 176.002 95.6432 185.144C95.2019 197.6 95.2927 210.056 95.9158 222.512C96.0473 225.082 95.872 227.589 96.281 230.15C96.3929 230.846 96.2128 232.9 96.5049 233.343C96.5271 233.376 96.5588 233.4 96.5956 233.414C96.6324 233.427 96.6725 233.429 96.7104 233.419C96.7482 233.409 96.782 233.387 96.8071 233.357C96.8322 233.327 96.8474 233.29 96.8505 233.251C97.5126 223.646 98.087 214.022 98.0968 204.412C98.1065 194.65 97.8907 184.894 97.4493 175.145C97.2059 169.732 97.2789 163.836 97.0404 158.17C97.0375 158.099 97.0099 158.032 96.9626 157.98C96.9154 157.929 96.8514 157.896 96.7824 157.888C96.5455 157.862 96.4238 157.943 96.4173 158.131Z" fill="#BA886E"/>
<path d="M114.931 6.35784C114.926 5.79313 114.843 0.642653 115.252 0.657258C115.308 0.658531 115.361 0.681144 115.4 0.720263C115.439 0.759383 115.461 0.811915 115.461 0.866598C115.653 31.4579 115.933 56.678 116.303 76.5269C116.342 78.6591 116.226 80.9374 116.26 82.5342C117.36 132.505 117.326 182.584 117.165 232.57C117.16 233.772 116.951 235.836 117.175 237.491C117.183 237.559 117.216 237.621 117.267 237.666C117.318 237.711 117.384 237.735 117.452 237.735C137.455 237.778 157.546 239.034 179.974 239.516C179.978 239.516 179.982 239.517 179.986 239.519C179.99 239.52 179.993 239.523 179.995 239.526C179.998 239.53 179.999 239.534 180 239.538C180 239.542 180 239.547 179.998 239.55L179.959 239.672C179.956 239.678 179.95 239.683 179.942 239.686C179.934 239.69 179.925 239.692 179.915 239.692C173.241 239.716 166.625 239.609 159.912 239.94C149.718 240.44 139.52 240.795 129.316 241.006C126.2 241.071 124.292 241.191 123.591 241.366C119.078 242.501 116.878 247.023 116.771 251.536C116.542 261.545 115.822 271.471 115.189 281.45C115.176 281.616 115.161 281.616 115.145 281.45C114.887 278.958 115.043 276.178 114.897 273.978C114.39 266.322 113.999 258.659 113.723 250.991C113.587 247.179 111.586 243.279 108.008 241.814C106.872 241.347 104.667 241.081 101.392 241.016C85.2302 240.699 68.2843 239.585 51.6743 239.687C51.4309 239.692 51.3238 239.628 51.0853 239.565C50.9684 239.529 50.9717 239.51 51.095 239.507C71.4778 238.913 92.2111 237.92 113.061 237.696C113.146 237.694 113.227 237.66 113.287 237.6C113.347 237.54 113.381 237.459 113.383 237.374C113.495 223.208 113.295 208.984 113.305 194.759C113.334 133.679 114.405 72.6275 114.974 11.5521C114.974 11.5261 114.96 9.79473 114.931 6.35784Z" fill="#BA886E"/>
<path d="M124.219 217.765C124.278 216.421 123.903 214.566 123.849 213.096C122.413 172.9 122.895 132.763 123.815 92.5616C124.062 81.6408 124.205 70.7183 124.244 59.7943C124.245 59.7111 124.276 59.6315 124.333 59.5718C124.389 59.5121 124.465 59.4767 124.545 59.473L124.774 59.4584C124.812 59.4564 124.851 59.4622 124.887 59.4755C124.923 59.4888 124.956 59.5093 124.983 59.5357C125.011 59.5622 125.033 59.594 125.048 59.6292C125.063 59.6644 125.071 59.7024 125.071 59.7407C125.446 88.2046 126.201 118.728 126.459 140.907C126.814 171.742 125.957 202.411 124.886 233.216C124.883 233.249 124.865 233.258 124.833 233.245C124.821 233.24 124.811 233.23 124.803 233.217C124.795 233.204 124.79 233.189 124.789 233.172C124.188 228.051 123.999 222.915 124.219 217.765Z" fill="#BA886E"/>
<path d="M104.951 109.687C104.961 109.214 105.224 104.264 105.209 104.254C105.188 104.237 105.17 104.215 105.159 104.191C105.147 104.167 105.141 104.14 105.141 104.113L105.409 79.9813C105.408 79.9043 105.435 79.8296 105.484 79.7701C105.533 79.7105 105.601 79.6699 105.676 79.6552L105.798 79.6308C105.833 79.6229 105.87 79.6231 105.905 79.6313C105.94 79.6396 105.973 79.6557 106.002 79.6785C106.03 79.7014 106.053 79.7303 106.069 79.7633C106.085 79.7963 106.094 79.8326 106.095 79.8694C106.27 98.5921 106.445 110.328 106.621 115.076C107.679 143.7 107.836 172.33 107.093 200.964C107.005 204.211 106.825 207.356 106.869 210.671C106.888 212.19 106.601 213.767 106.596 215.145C106.554 221.795 106.332 228.441 105.929 235.084C105.92 235.244 105.905 235.244 105.886 235.084C105.267 229.885 105.258 223.299 105.087 219.541C103.437 182.85 104.084 146.378 104.951 109.687Z" fill="#BA886E"/>
<path d="M133.347 148.606C133.587 139.866 133.744 131.124 133.819 122.381C133.822 122.05 133.947 121.883 134.194 121.88C134.285 121.88 134.373 121.915 134.438 121.979C134.504 122.043 134.542 122.129 134.544 122.221C134.724 129.82 134.661 137.356 134.939 144.896C135.922 172.046 136.433 196.046 134.924 222.28C134.921 222.303 134.853 224.205 134.72 227.985C134.635 230.312 134.418 232.63 134.067 234.937C134.041 235.096 134.023 235.095 134.014 234.932C133.527 227.177 133.571 219.369 132.977 211.643C132.837 209.803 132.751 208.375 132.719 207.359C132.071 185.818 132.646 168.293 133.23 148.728C133.23 148.711 133.235 148.695 133.246 148.682C133.256 148.668 133.271 148.659 133.288 148.655L133.318 148.645C133.326 148.644 133.333 148.639 133.339 148.632C133.344 148.625 133.347 148.615 133.347 148.606Z" fill="#BA886E"/>
<path d="M96.4173 158.131C96.4238 157.943 96.5455 157.862 96.7824 157.888C96.8514 157.896 96.9154 157.929 96.9626 157.98C97.0099 158.032 97.0375 158.099 97.0404 158.17C97.2789 163.836 97.2059 169.732 97.4493 175.145C97.8907 184.894 98.1065 194.65 98.0968 204.412C98.087 214.022 97.5126 223.646 96.8505 233.251C96.8474 233.29 96.8322 233.327 96.8071 233.357C96.782 233.387 96.7482 233.409 96.7104 233.419C96.6725 233.429 96.6324 233.427 96.5956 233.414C96.5588 233.4 96.5271 233.376 96.5049 233.343C96.2128 232.9 96.3929 230.846 96.281 230.15C95.872 227.589 96.0473 225.082 95.9158 222.512C95.2927 210.056 95.2019 197.6 95.6432 185.144C95.9694 176.002 96.0862 167.137 96.4173 158.131Z" fill="#BA886E"/>
<path d="M124.126 213.535C124.126 216.862 124.467 228.529 124.857 229.113" stroke="#BA886E" stroke-width="0.2"/>
<path d="M3.38 313.4H7.3C8.52667 313.4 9.59333 313.087 10.5 312.46C11.4067 311.833 12.0933 311.013 12.56 310C13.0267 308.973 13.26 307.893 13.26 306.76C13.26 305.613 13.0067 304.573 12.5 303.64C12.0067 302.693 11.3067 301.953 10.4 301.42C9.50667 300.873 8.47333 300.6 7.3 300.6H3.38L3.7 300.28V313.72L3.38 313.4ZM7.48 300C8.93333 300 10.2267 300.3 11.36 300.9C12.5067 301.487 13.4 302.313 14.04 303.38C14.68 304.433 15 305.64 15 307C15 308.28 14.6667 309.46 14 310.54C13.3467 311.607 12.4467 312.453 11.3 313.08C10.1533 313.693 8.88 314 7.48 314H1.9V313.92C1.94 313.76 1.96667 313.6 1.98 313.44C1.99333 313.267 2 313.06 2 312.82C2 312.58 2 312.273 2 311.9V302.1C2 301.727 2 301.42 2 301.18C2 300.94 1.99333 300.74 1.98 300.58C1.96667 300.407 1.94 300.24 1.9 300.08V300H7.48ZM25.4655 300V300.7H25.4055C25.2721 300.673 25.1255 300.653 24.9655 300.64C24.8055 300.627 24.6121 300.62 24.3855 300.62C24.1588 300.607 23.8855 300.6 23.5655 300.6H18.9855L19.3055 300.28V304.5L19.0655 304.26H23.9055V304.86H19.0655L19.3055 304.62V313.72L18.9855 313.4H24.1055C24.4788 313.4 24.7855 313.4 25.0255 313.4C25.2655 313.4 25.4655 313.393 25.6255 313.38C25.7855 313.353 25.9521 313.313 26.1255 313.26H26.2055V314H17.5055V313.92C17.5455 313.76 17.5721 313.6 17.5855 313.44C17.5988 313.267 17.6055 313.06 17.6055 312.82C17.6055 312.58 17.6055 312.273 17.6055 311.9V302.1C17.6055 301.727 17.6055 301.42 17.6055 301.18C17.6055 300.94 17.5988 300.74 17.5855 300.58C17.5721 300.407 17.5455 300.24 17.5055 300.08V300H25.4655ZM30.3439 300V300.08C30.2906 300.253 30.2506 300.42 30.2239 300.58C30.2106 300.74 30.2039 300.94 30.2039 301.18C30.2039 301.42 30.2039 301.727 30.2039 302.1V313.72L29.8839 313.4H33.6039C33.9772 313.4 34.2839 313.4 34.5239 313.4C34.7639 313.4 34.9639 313.393 35.1239 313.38C35.2839 313.353 35.4506 313.313 35.6239 313.26H35.7039V314H28.4039V313.92C28.4439 313.76 28.4706 313.6 28.4839 313.44C28.4972 313.267 28.5039 313.06 28.5039 312.82C28.5039 312.58 28.5039 312.273 28.5039 311.9V302.1C28.5039 301.727 28.5039 301.42 28.5039 301.18C28.5039 300.94 28.4972 300.74 28.4839 300.58C28.4706 300.407 28.4439 300.24 28.4039 300.08V300H30.3439ZM49.0478 303.8H48.6878C48.5011 303.027 48.1678 302.367 47.6878 301.82C47.2078 301.26 46.6345 300.84 45.9678 300.56C45.3011 300.267 44.5945 300.12 43.8478 300.12C42.8478 300.12 41.8878 300.373 40.9678 300.88C40.0611 301.387 39.3211 302.153 38.7478 303.18C38.1878 304.207 37.9078 305.453 37.9078 306.92C37.9078 308.427 38.1745 309.693 38.7078 310.72C39.2545 311.733 39.9611 312.487 40.8278 312.98C41.7078 313.473 42.6411 313.72 43.6278 313.72C44.4011 313.72 45.1345 313.573 45.8278 313.28C46.5345 312.987 47.1411 312.567 47.6478 312.02C48.1545 311.46 48.5011 310.8 48.6878 310.04H49.0478V312.02C48.3411 312.727 47.5078 313.287 46.5478 313.7C45.5878 314.113 44.5611 314.32 43.4678 314.32C42.1211 314.32 40.8811 313.993 39.7478 313.34C38.6278 312.673 37.7411 311.773 37.0878 310.64C36.4345 309.507 36.1078 308.267 36.1078 306.92C36.1078 305.573 36.4345 304.333 37.0878 303.2C37.7411 302.067 38.6278 301.173 39.7478 300.52C40.8811 299.853 42.1211 299.52 43.4678 299.52C44.5611 299.52 45.5878 299.727 46.5478 300.14C47.5078 300.553 48.3411 301.113 49.0478 301.82V303.8ZM58.9991 309.72V310.32H51.7991V309.72H58.9991ZM55.2391 300C55.5057 300 55.7724 299.967 56.0391 299.9C56.3057 299.833 56.5524 299.727 56.7791 299.58L61.1391 311.9C61.3124 312.38 61.4524 312.767 61.5591 313.06C61.6791 313.353 61.7657 313.56 61.8191 313.68C61.8724 313.787 61.9124 313.867 61.9391 313.92V314H59.9591V313.92V313.9C59.9591 313.847 59.9524 313.76 59.9391 313.64C59.9257 313.507 59.8791 313.3 59.7991 313.02C59.7191 312.74 59.5991 312.367 59.4391 311.9L55.4191 300.42H55.7391L51.2991 311.88C51.1257 312.347 50.9924 312.72 50.8991 313C50.8191 313.28 50.7724 313.48 50.7591 313.6C50.7457 313.72 50.7457 313.813 50.7591 313.88V313.92V314H49.7391V313.92C49.7657 313.867 49.8057 313.78 49.8591 313.66C49.9124 313.54 49.9991 313.34 50.1191 313.06C50.2524 312.767 50.4124 312.38 50.5991 311.9L55.2391 300ZM69.8713 301.98H69.5113C69.3779 301.593 69.1846 301.273 68.9313 301.02C68.6913 300.753 68.4046 300.56 68.0713 300.44C67.7513 300.307 67.4113 300.24 67.0513 300.24C66.4513 300.24 65.9579 300.407 65.5713 300.74C65.1846 301.073 64.9913 301.547 64.9913 302.16C64.9913 302.587 65.0913 303.033 65.2913 303.5C65.4913 303.953 65.7779 304.38 66.1513 304.78L68.8713 307.72C69.4179 308.32 69.8313 308.92 70.1113 309.52C70.3913 310.107 70.5313 310.667 70.5313 311.2C70.5313 311.787 70.3779 312.313 70.0713 312.78C69.7646 313.233 69.3246 313.593 68.7513 313.86C68.1913 314.113 67.5246 314.24 66.7513 314.24C66.1513 314.24 65.5513 314.153 64.9513 313.98C64.3513 313.807 63.8313 313.553 63.3913 313.22L63.3313 311.36H63.6913C63.8379 311.853 64.0713 312.273 64.3913 312.62C64.7113 312.953 65.0779 313.207 65.4913 313.38C65.9046 313.553 66.3246 313.64 66.7513 313.64C67.4046 313.64 67.9313 313.46 68.3313 313.1C68.7313 312.727 68.9313 312.22 68.9313 311.58C68.9313 311.167 68.8246 310.733 68.6113 310.28C68.4113 309.827 68.0979 309.373 67.6713 308.92L64.9513 305.98C64.4313 305.42 64.0379 304.853 63.7713 304.28C63.5046 303.693 63.3713 303.133 63.3713 302.6C63.3713 301.747 63.6846 301.04 64.3113 300.48C64.9513 299.92 65.8113 299.64 66.8913 299.64C67.9179 299.64 68.8846 299.8 69.7913 300.12L69.8713 301.98ZM81.3378 300V300.74H81.2578C81.0978 300.7 80.9378 300.673 80.7778 300.66C80.6311 300.633 80.4445 300.62 80.2178 300.62C80.0045 300.607 79.7445 300.6 79.4378 300.6H77.2778L77.5978 300.28V311.9C77.5978 312.247 77.5978 312.54 77.5978 312.78C77.6111 313.02 77.6178 313.213 77.6178 313.36C77.6311 313.507 77.6511 313.647 77.6778 313.78L77.6978 313.92V314H75.7978V313.92L75.8178 313.78C75.8445 313.647 75.8578 313.507 75.8578 313.36C75.8711 313.213 75.8778 313.02 75.8778 312.78C75.8911 312.54 75.8978 312.247 75.8978 311.9V300.28L76.2178 300.6H74.0578C73.7511 300.6 73.4845 300.607 73.2578 300.62C73.0445 300.62 72.8578 300.633 72.6978 300.66C72.5511 300.673 72.3978 300.7 72.2378 300.74H72.1578V300H81.3378ZM85.5578 300V300.08C85.5311 300.24 85.5045 300.407 85.4778 300.58C85.4645 300.74 85.4578 300.94 85.4578 301.18C85.4578 301.42 85.4578 301.727 85.4578 302.1V311.9C85.4578 312.273 85.4578 312.58 85.4578 312.82C85.4578 313.06 85.4645 313.267 85.4778 313.44C85.5045 313.6 85.5311 313.76 85.5578 313.92V314H83.6578V313.92C83.6978 313.76 83.7245 313.6 83.7378 313.44C83.7511 313.267 83.7578 313.06 83.7578 312.82C83.7578 312.58 83.7578 312.273 83.7578 311.9V302.1C83.7578 301.727 83.7578 301.42 83.7578 301.18C83.7578 300.94 83.7511 300.74 83.7378 300.58C83.7245 300.407 83.6978 300.24 83.6578 300.08V300H85.5578ZM91.3009 300V300.08C91.2476 300.253 91.2076 300.42 91.1809 300.58C91.1676 300.74 91.1609 300.94 91.1609 301.18C91.1609 301.42 91.1609 301.727 91.1609 302.1V313.72L90.8409 313.4H94.5609C94.9343 313.4 95.2409 313.4 95.4809 313.4C95.7209 313.4 95.9209 313.393 96.0809 313.38C96.2409 313.353 96.4076 313.313 96.5809 313.26H96.6609V314H89.3609V313.92C89.4009 313.76 89.4276 313.6 89.4409 313.44C89.4543 313.267 89.4609 313.06 89.4609 312.82C89.4609 312.58 89.4609 312.273 89.4609 311.9V302.1C89.4609 301.727 89.4609 301.42 89.4609 301.18C89.4609 300.94 89.4543 300.74 89.4409 300.58C89.4276 300.407 89.4009 300.24 89.3609 300.08V300H91.3009ZM100.305 300V300.08C100.252 300.253 100.212 300.42 100.185 300.58C100.172 300.74 100.165 300.94 100.165 301.18C100.165 301.42 100.165 301.727 100.165 302.1V313.72L99.8448 313.4H103.565C103.938 313.4 104.245 313.4 104.485 313.4C104.725 313.4 104.925 313.393 105.085 313.38C105.245 313.353 105.412 313.313 105.585 313.26H105.665V314H98.3648V313.92C98.4048 313.76 98.4315 313.6 98.4448 313.44C98.4582 313.267 98.4648 313.06 98.4648 312.82C98.4648 312.58 98.4648 312.273 98.4648 311.9V302.1C98.4648 301.727 98.4648 301.42 98.4648 301.18C98.4648 300.94 98.4582 300.74 98.4448 300.58C98.4315 300.407 98.4048 300.24 98.3648 300.08V300H100.305ZM113.469 314.32C112.122 314.32 110.882 313.993 109.749 313.34C108.615 312.673 107.715 311.773 107.049 310.64C106.395 309.507 106.069 308.267 106.069 306.92C106.069 305.573 106.395 304.333 107.049 303.2C107.715 302.067 108.615 301.173 109.749 300.52C110.882 299.853 112.122 299.52 113.469 299.52C114.815 299.52 116.055 299.853 117.189 300.52C118.322 301.173 119.215 302.067 119.869 303.2C120.535 304.333 120.869 305.573 120.869 306.92C120.869 308.267 120.535 309.507 119.869 310.64C119.215 311.773 118.322 312.673 117.189 313.34C116.055 313.993 114.815 314.32 113.469 314.32ZM113.209 313.72C114.315 313.72 115.315 313.42 116.209 312.82C117.102 312.207 117.802 311.387 118.309 310.36C118.815 309.32 119.069 308.173 119.069 306.92C119.069 305.667 118.835 304.52 118.369 303.48C117.915 302.44 117.275 301.62 116.449 301.02C115.635 300.42 114.715 300.12 113.689 300.12C112.582 300.12 111.582 300.42 110.689 301.02C109.809 301.62 109.115 302.44 108.609 303.48C108.115 304.52 107.869 305.667 107.869 306.92C107.869 308.173 108.095 309.32 108.549 310.36C109.015 311.387 109.655 312.207 110.469 312.82C111.282 313.42 112.195 313.72 113.209 313.72ZM135.017 300C136.11 300 137.05 300.14 137.837 300.42C138.624 300.687 139.224 301.067 139.637 301.56C140.05 302.053 140.257 302.633 140.257 303.3C140.257 303.953 140.064 304.507 139.677 304.96C139.29 305.413 138.724 305.76 137.977 306C137.244 306.24 136.357 306.36 135.317 306.36C135.264 306.36 135.217 306.36 135.177 306.36C135.15 306.36 135.11 306.36 135.057 306.36C135.004 306.36 134.95 306.36 134.897 306.36L135.817 306.04L138.837 310.62C139.504 311.633 140.064 312.387 140.517 312.88C140.984 313.36 141.357 313.647 141.637 313.74L141.617 314.04C140.777 314.2 140.044 314.06 139.417 313.62C138.79 313.18 138.184 312.533 137.597 311.68L137.517 311.54L133.917 306.14L134.057 305.88C134.15 305.88 134.217 305.88 134.257 305.88C134.31 305.88 134.384 305.88 134.477 305.88C135.757 305.88 136.75 305.647 137.457 305.18C138.164 304.7 138.517 304.04 138.517 303.2C138.517 302.627 138.357 302.147 138.037 301.76C137.73 301.373 137.27 301.087 136.657 300.9C136.057 300.7 135.317 300.6 134.437 300.6H131.837L132.157 300.28V311.9C132.157 312.273 132.157 312.58 132.157 312.82C132.157 313.06 132.164 313.26 132.177 313.42C132.204 313.58 132.244 313.747 132.297 313.92V314H130.357V313.92C130.384 313.76 130.404 313.6 130.417 313.44C130.444 313.267 130.457 313.06 130.457 312.82C130.457 312.58 130.457 312.273 130.457 311.9V302.1C130.457 301.727 130.457 301.42 130.457 301.18C130.457 300.94 130.444 300.74 130.417 300.58C130.404 300.407 130.384 300.24 130.357 300.08V300H135.017ZM151.696 300V300.7H151.636C151.503 300.673 151.356 300.653 151.196 300.64C151.036 300.627 150.843 300.62 150.616 300.62C150.389 300.607 150.116 300.6 149.796 300.6H145.216L145.536 300.28V304.5L145.296 304.26H150.136V304.86H145.296L145.536 304.62V313.72L145.216 313.4H150.336C150.709 313.4 151.016 313.4 151.256 313.4C151.496 313.4 151.696 313.393 151.856 313.38C152.016 313.353 152.183 313.313 152.356 313.26H152.436V314H143.736V313.92C143.776 313.76 143.803 313.6 143.816 313.44C143.829 313.267 143.836 313.06 143.836 312.82C143.836 312.58 143.836 312.273 143.836 311.9V302.1C143.836 301.727 143.836 301.42 143.836 301.18C143.836 300.94 143.829 300.74 143.816 300.58C143.803 300.407 143.776 300.24 143.736 300.08V300H151.696ZM160.698 309.72V310.32H153.498V309.72H160.698ZM156.938 300C157.205 300 157.472 299.967 157.738 299.9C158.005 299.833 158.252 299.727 158.478 299.58L162.838 311.9C163.012 312.38 163.152 312.767 163.258 313.06C163.378 313.353 163.465 313.56 163.518 313.68C163.572 313.787 163.612 313.867 163.638 313.92V314H161.658V313.92V313.9C161.658 313.847 161.652 313.76 161.638 313.64C161.625 313.507 161.578 313.3 161.498 313.02C161.418 312.74 161.298 312.367 161.138 311.9L157.118 300.42H157.438L152.998 311.88C152.825 312.347 152.692 312.72 152.598 313C152.518 313.28 152.472 313.48 152.458 313.6C152.445 313.72 152.445 313.813 152.458 313.88V313.92V314H151.438V313.92C151.465 313.867 151.505 313.78 151.558 313.66C151.612 313.54 151.698 313.34 151.818 313.06C151.952 312.767 152.112 312.38 152.298 311.9L156.938 300ZM167.57 300V300.08C167.517 300.253 167.477 300.42 167.45 300.58C167.437 300.74 167.43 300.94 167.43 301.18C167.43 301.42 167.43 301.727 167.43 302.1V313.72L167.11 313.4H170.83C171.204 313.4 171.51 313.4 171.75 313.4C171.99 313.4 172.19 313.393 172.35 313.38C172.51 313.353 172.677 313.313 172.85 313.26H172.93V314H165.63V313.92C165.67 313.76 165.697 313.6 165.71 313.44C165.724 313.267 165.73 313.06 165.73 312.82C165.73 312.58 165.73 312.273 165.73 311.9V302.1C165.73 301.727 165.73 301.42 165.73 301.18C165.73 300.94 165.724 300.74 165.71 300.58C165.697 300.407 165.67 300.24 165.63 300.08V300H167.57ZM187.567 301.98H187.207C187.073 301.593 186.88 301.273 186.627 301.02C186.387 300.753 186.1 300.56 185.767 300.44C185.447 300.307 185.107 300.24 184.747 300.24C184.147 300.24 183.653 300.407 183.267 300.74C182.88 301.073 182.687 301.547 182.687 302.16C182.687 302.587 182.787 303.033 182.987 303.5C183.187 303.953 183.473 304.38 183.847 304.78L186.567 307.72C187.113 308.32 187.527 308.92 187.807 309.52C188.087 310.107 188.227 310.667 188.227 311.2C188.227 311.787 188.073 312.313 187.767 312.78C187.46 313.233 187.02 313.593 186.447 313.86C185.887 314.113 185.22 314.24 184.447 314.24C183.847 314.24 183.247 314.153 182.647 313.98C182.047 313.807 181.527 313.553 181.087 313.22L181.027 311.36H181.387C181.533 311.853 181.767 312.273 182.087 312.62C182.407 312.953 182.773 313.207 183.187 313.38C183.6 313.553 184.02 313.64 184.447 313.64C185.1 313.64 185.627 313.46 186.027 313.1C186.427 312.727 186.627 312.22 186.627 311.58C186.627 311.167 186.52 310.733 186.307 310.28C186.107 309.827 185.793 309.373 185.367 308.92L182.647 305.98C182.127 305.42 181.733 304.853 181.467 304.28C181.2 303.693 181.067 303.133 181.067 302.6C181.067 301.747 181.38 301.04 182.007 300.48C182.647 299.92 183.507 299.64 184.587 299.64C185.613 299.64 186.58 299.8 187.487 300.12L187.567 301.98ZM199.033 300V300.74H198.953C198.793 300.7 198.633 300.673 198.473 300.66C198.326 300.633 198.14 300.62 197.913 300.62C197.7 300.607 197.44 300.6 197.133 300.6H194.973L195.293 300.28V311.9C195.293 312.247 195.293 312.54 195.293 312.78C195.306 313.02 195.313 313.213 195.313 313.36C195.326 313.507 195.346 313.647 195.373 313.78L195.393 313.92V314H193.493V313.92L193.513 313.78C193.54 313.647 193.553 313.507 193.553 313.36C193.566 313.213 193.573 313.02 193.573 312.78C193.586 312.54 193.593 312.247 193.593 311.9V300.28L193.913 300.6H191.753C191.446 300.6 191.18 300.607 190.953 300.62C190.74 300.62 190.553 300.633 190.393 300.66C190.246 300.673 190.093 300.7 189.933 300.74H189.853V300H199.033ZM207.808 309.72V310.32H200.608V309.72H207.808ZM204.048 300C204.314 300 204.581 299.967 204.848 299.9C205.114 299.833 205.361 299.727 205.588 299.58L209.948 311.9C210.121 312.38 210.261 312.767 210.368 313.06C210.488 313.353 210.574 313.56 210.628 313.68C210.681 313.787 210.721 313.867 210.748 313.92V314H208.768V313.92V313.9C208.768 313.847 208.761 313.76 208.748 313.64C208.734 313.507 208.688 313.3 208.608 313.02C208.528 312.74 208.408 312.367 208.248 311.9L204.228 300.42H204.548L200.108 311.88C199.934 312.347 199.801 312.72 199.708 313C199.628 313.28 199.581 313.48 199.568 313.6C199.554 313.72 199.554 313.813 199.568 313.88V313.92V314H198.548V313.92C198.574 313.867 198.614 313.78 198.668 313.66C198.721 313.54 198.808 313.34 198.928 313.06C199.061 312.767 199.221 312.38 199.408 311.9L204.048 300ZM219.814 300V300.74H219.734C219.574 300.7 219.414 300.673 219.254 300.66C219.108 300.633 218.921 300.62 218.694 300.62C218.481 300.607 218.221 300.6 217.914 300.6H215.754L216.074 300.28V311.9C216.074 312.247 216.074 312.54 216.074 312.78C216.088 313.02 216.094 313.213 216.094 313.36C216.108 313.507 216.128 313.647 216.154 313.78L216.174 313.92V314H214.274V313.92L214.294 313.78C214.321 313.647 214.334 313.507 214.334 313.36C214.348 313.213 214.354 313.02 214.354 312.78C214.368 312.54 214.374 312.247 214.374 311.9V300.28L214.694 300.6H212.534C212.228 300.6 211.961 300.607 211.734 300.62C211.521 300.62 211.334 300.633 211.174 300.66C211.028 300.673 210.874 300.7 210.714 300.74H210.634V300H219.814ZM230.094 300V300.7H230.034C229.901 300.673 229.754 300.653 229.594 300.64C229.434 300.627 229.241 300.62 229.014 300.62C228.788 300.607 228.514 300.6 228.194 300.6H223.614L223.934 300.28V304.5L223.694 304.26H228.534V304.86H223.694L223.934 304.62V313.72L223.614 313.4H228.734C229.108 313.4 229.414 313.4 229.654 313.4C229.894 313.4 230.094 313.393 230.254 313.38C230.414 313.353 230.581 313.313 230.754 313.26H230.834V314H222.134V313.92C222.174 313.76 222.201 313.6 222.214 313.44C222.228 313.267 222.234 313.06 222.234 312.82C222.234 312.58 222.234 312.273 222.234 311.9V302.1C222.234 301.727 222.234 301.42 222.234 301.18C222.234 300.94 222.228 300.74 222.214 300.58C222.201 300.407 222.174 300.24 222.134 300.08V300H230.094Z" fill="#BA886E"/>
</svg>
