<svg width="100" height="87" viewBox="0 0 100 87" fill="none" xmlns="http://www.w3.org/2000/svg">
<path d="M31.504 0.316368L70.129 22.6164C71.686 23.5154 71.686 25.7634 70.129 26.6624L31.504 48.9624C29.947 49.8614 28 48.7374 28 46.9394V2.33937C28 0.541369 29.946 -0.582632 31.504 0.316368Z" fill="#BA886E"/>
<path d="M8.124 76.88H7.908C7.796 76.416 7.596 76.02 7.308 75.692C7.02 75.356 6.676 75.104 6.276 74.936C5.876 74.76 5.452 74.672 5.004 74.672C4.404 74.672 3.828 74.824 3.276 75.128C2.732 75.432 2.288 75.892 1.944 76.508C1.608 77.124 1.44 77.872 1.44 78.752C1.44 79.656 1.6 80.416 1.92 81.032C2.248 81.64 2.672 82.092 3.192 82.388C3.72 82.684 4.28 82.832 4.872 82.832C5.336 82.832 5.776 82.744 6.192 82.568C6.616 82.392 6.98 82.14 7.284 81.812C7.588 81.476 7.796 81.08 7.908 80.624H8.124V81.812C7.7 82.236 7.2 82.572 6.624 82.82C6.048 83.068 5.432 83.192 4.776 83.192C3.968 83.192 3.224 82.996 2.544 82.604C1.872 82.204 1.34 81.664 0.948 80.984C0.556 80.304 0.36 79.56 0.36 78.752C0.36 77.944 0.556 77.2 0.948 76.52C1.34 75.84 1.872 75.304 2.544 74.912C3.224 74.512 3.968 74.312 4.776 74.312C5.432 74.312 6.048 74.436 6.624 74.684C7.2 74.932 7.7 75.268 8.124 75.692V76.88ZM11.0228 74.6V74.648C10.9908 74.752 10.9668 74.852 10.9508 74.948C10.9428 75.044 10.9388 75.164 10.9388 75.308C10.9388 75.452 10.9388 75.636 10.9388 75.86V82.832L10.7468 82.64H12.9788C13.2028 82.64 13.3868 82.64 13.5308 82.64C13.6748 82.64 13.7948 82.636 13.8908 82.628C13.9868 82.612 14.0868 82.588 14.1908 82.556H14.2388V83H9.85875V82.952C9.88275 82.856 9.89875 82.76 9.90675 82.664C9.91475 82.56 9.91875 82.436 9.91875 82.292C9.91875 82.148 9.91875 81.964 9.91875 81.74V75.86C9.91875 75.636 9.91875 75.452 9.91875 75.308C9.91875 75.164 9.91475 75.044 9.90675 74.948C9.89875 74.844 9.88275 74.744 9.85875 74.648V74.6H11.0228ZM16.4011 74.6V74.648C16.3851 74.744 16.3691 74.844 16.3531 74.948C16.3451 75.044 16.3411 75.164 16.3411 75.308C16.3411 75.452 16.3411 75.636 16.3411 75.86V81.74C16.3411 81.964 16.3411 82.148 16.3411 82.292C16.3411 82.436 16.3451 82.56 16.3531 82.664C16.3691 82.76 16.3851 82.856 16.4011 82.952V83H15.2611V82.952C15.2851 82.856 15.3011 82.76 15.3091 82.664C15.3171 82.56 15.3211 82.436 15.3211 82.292C15.3211 82.148 15.3211 81.964 15.3211 81.74V75.86C15.3211 75.636 15.3211 75.452 15.3211 75.308C15.3211 75.164 15.3171 75.044 15.3091 74.948C15.3011 74.844 15.2851 74.744 15.2611 74.648V74.6H16.4011ZM25.667 76.88H25.451C25.339 76.416 25.139 76.02 24.851 75.692C24.563 75.356 24.219 75.104 23.819 74.936C23.419 74.76 22.995 74.672 22.547 74.672C21.947 74.672 21.371 74.824 20.819 75.128C20.275 75.432 19.831 75.892 19.487 76.508C19.151 77.124 18.983 77.872 18.983 78.752C18.983 79.656 19.143 80.416 19.463 81.032C19.791 81.64 20.215 82.092 20.735 82.388C21.263 82.684 21.823 82.832 22.415 82.832C22.879 82.832 23.319 82.744 23.735 82.568C24.159 82.392 24.523 82.14 24.827 81.812C25.131 81.476 25.339 81.08 25.451 80.624H25.667V81.812C25.243 82.236 24.743 82.572 24.167 82.82C23.591 83.068 22.975 83.192 22.319 83.192C21.511 83.192 20.767 82.996 20.087 82.604C19.415 82.204 18.883 81.664 18.491 80.984C18.099 80.304 17.903 79.56 17.903 78.752C17.903 77.944 18.099 77.2 18.491 76.52C18.883 75.84 19.415 75.304 20.087 74.912C20.767 74.512 21.511 74.312 22.319 74.312C22.975 74.312 23.591 74.436 24.167 74.684C24.743 74.932 25.243 75.268 25.667 75.692V76.88ZM28.5657 74.6V74.648C28.5337 74.752 28.5097 74.852 28.4937 74.948C28.4857 75.044 28.4817 75.164 28.4817 75.308C28.4817 75.452 28.4817 75.636 28.4817 75.86V78.5H28.2537L31.0737 75.86C31.3057 75.652 31.5017 75.468 31.6617 75.308C31.8297 75.14 31.9537 75.008 32.0337 74.912C32.1217 74.808 32.1817 74.72 32.2137 74.648L32.2377 74.6H32.9217V74.636C32.8257 74.7 32.7297 74.776 32.6337 74.864C32.5377 74.944 32.4257 75.044 32.2977 75.164C32.1697 75.284 32.0217 75.424 31.8537 75.584L31.5657 75.86L30.2457 77.108V76.892L32.5977 80.888C32.9577 81.504 33.2657 81.968 33.5217 82.28C33.7857 82.584 34.0017 82.772 34.1697 82.844L34.1577 83.024C33.7897 83.072 33.4617 83.028 33.1737 82.892C32.8857 82.748 32.6337 82.552 32.4177 82.304C32.2017 82.048 31.9897 81.744 31.7817 81.392L29.4897 77.54H29.7657L28.3497 78.86L28.4817 78.596V81.74C28.4817 81.964 28.4817 82.148 28.4817 82.292C28.4817 82.436 28.4857 82.556 28.4937 82.652C28.5097 82.748 28.5337 82.848 28.5657 82.952V83H27.4017V82.952C27.4177 82.856 27.4297 82.76 27.4377 82.664C27.4537 82.56 27.4617 82.436 27.4617 82.292C27.4617 82.148 27.4617 81.964 27.4617 81.74V75.86C27.4617 75.636 27.4617 75.452 27.4617 75.308C27.4617 75.164 27.4537 75.044 27.4377 74.948C27.4297 74.844 27.4177 74.744 27.4017 74.648V74.6H28.5657ZM43.7519 74.6V75.044H43.7039C43.6079 75.02 43.5119 75.004 43.4159 74.996C43.3279 74.98 43.2159 74.972 43.0799 74.972C42.9519 74.964 42.7959 74.96 42.6119 74.96H41.3159L41.5079 74.768V81.74C41.5079 81.948 41.5079 82.124 41.5079 82.268C41.5159 82.412 41.5199 82.528 41.5199 82.616C41.5279 82.704 41.5399 82.788 41.5559 82.868L41.5679 82.952V83H40.4279V82.952L40.4399 82.868C40.4559 82.788 40.4639 82.704 40.4639 82.616C40.4719 82.528 40.4759 82.412 40.4759 82.268C40.4839 82.124 40.4879 81.948 40.4879 81.74V74.768L40.6799 74.96H39.3839C39.1999 74.96 39.0399 74.964 38.9039 74.972C38.7759 74.972 38.6639 74.98 38.5679 74.996C38.4799 75.004 38.3879 75.02 38.2919 75.044H38.2439V74.6H43.7519ZM48.8039 83.192C47.9959 83.192 47.2519 82.996 46.5719 82.604C45.8919 82.204 45.3519 81.664 44.9519 80.984C44.5599 80.304 44.3639 79.56 44.3639 78.752C44.3639 77.944 44.5599 77.2 44.9519 76.52C45.3519 75.84 45.8919 75.304 46.5719 74.912C47.2519 74.512 47.9959 74.312 48.8039 74.312C49.6119 74.312 50.3559 74.512 51.0359 74.912C51.7159 75.304 52.2519 75.84 52.6439 76.52C53.0439 77.2 53.2439 77.944 53.2439 78.752C53.2439 79.56 53.0439 80.304 52.6439 80.984C52.2519 81.664 51.7159 82.204 51.0359 82.604C50.3559 82.996 49.6119 83.192 48.8039 83.192ZM48.6479 82.832C49.3119 82.832 49.9119 82.652 50.4479 82.292C50.9839 81.924 51.4039 81.432 51.7079 80.816C52.0119 80.192 52.1639 79.504 52.1639 78.752C52.1639 78 52.0239 77.312 51.7439 76.688C51.4719 76.064 51.0879 75.572 50.5919 75.212C50.1039 74.852 49.5519 74.672 48.9359 74.672C48.2719 74.672 47.6719 74.852 47.1359 75.212C46.6079 75.572 46.1919 76.064 45.8879 76.688C45.5919 77.312 45.4439 78 45.4439 78.752C45.4439 79.504 45.5799 80.192 45.8519 80.816C46.1319 81.432 46.5159 81.924 47.0039 82.292C47.4919 82.652 48.0399 82.832 48.6479 82.832ZM59.3689 74.6V74.648V74.684C59.3689 74.764 59.3769 74.856 59.3929 74.96C59.4089 75.056 59.4369 75.18 59.4769 75.332C59.5249 75.484 59.5849 75.66 59.6569 75.86L62.0569 82.616H61.9249L64.2409 74.408H64.2889L66.8689 82.604H66.7369L68.7889 75.86C68.8529 75.652 68.9049 75.472 68.9449 75.32C68.9849 75.168 69.0089 75.044 69.0169 74.948C69.0329 74.852 69.0409 74.764 69.0409 74.684V74.648V74.6H69.6049V74.648C69.5809 74.696 69.5569 74.748 69.5329 74.804C69.4849 74.924 69.4289 75.068 69.3649 75.236C69.3089 75.404 69.2449 75.612 69.1729 75.86L66.9889 83C66.8369 83 66.6809 83.024 66.5209 83.072C66.3609 83.104 66.2089 83.164 66.0649 83.252L63.8209 76.076H64.1329L62.1889 83C62.0449 83 61.8849 83.024 61.7089 83.072C61.5329 83.12 61.3849 83.18 61.2649 83.252L58.6369 75.86C58.5649 75.652 58.4969 75.472 58.4329 75.32C58.3769 75.16 58.3249 75.028 58.2769 74.924C58.2369 74.82 58.1969 74.728 58.1569 74.648V74.6H59.3689ZM74.5049 80.432V80.792H70.1849V80.432H74.5049ZM72.2489 74.6C72.4089 74.6 72.5689 74.58 72.7289 74.54C72.8889 74.5 73.0369 74.436 73.1729 74.348L75.7889 81.74C75.8929 82.028 75.9769 82.26 76.0409 82.436C76.1129 82.612 76.1649 82.736 76.1969 82.808C76.2289 82.872 76.2529 82.92 76.2689 82.952V83H75.0809V82.952V82.94C75.0809 82.908 75.0769 82.856 75.0689 82.784C75.0609 82.704 75.0329 82.58 74.9849 82.412C74.9369 82.244 74.8649 82.02 74.7689 81.74L72.3569 74.852H72.5489L69.8849 81.728C69.7809 82.008 69.7009 82.232 69.6449 82.4C69.5969 82.568 69.5689 82.688 69.5609 82.76C69.5529 82.832 69.5529 82.888 69.5609 82.928V82.952V83H68.9489V82.952C68.9649 82.92 68.9889 82.868 69.0209 82.796C69.0529 82.724 69.1049 82.604 69.1769 82.436C69.2569 82.26 69.3529 82.028 69.4649 81.74L72.2489 74.6ZM81.7089 74.6V75.044H81.6609C81.5649 75.02 81.4689 75.004 81.3729 74.996C81.2849 74.98 81.1729 74.972 81.0369 74.972C80.9089 74.964 80.7529 74.96 80.5689 74.96H79.2729L79.4649 74.768V81.74C79.4649 81.948 79.4649 82.124 79.4649 82.268C79.4729 82.412 79.4769 82.528 79.4769 82.616C79.4849 82.704 79.4969 82.788 79.5129 82.868L79.5249 82.952V83H78.3849V82.952L78.3969 82.868C78.4129 82.788 78.4209 82.704 78.4209 82.616C78.4289 82.528 78.4329 82.412 78.4329 82.268C78.4409 82.124 78.4449 81.948 78.4449 81.74V74.768L78.6369 74.96H77.3409C77.1569 74.96 76.9969 74.964 76.8609 74.972C76.7329 74.972 76.6209 74.98 76.5249 74.996C76.4369 75.004 76.3449 75.02 76.2489 75.044H76.2009V74.6H81.7089ZM90.0849 76.88H89.8689C89.7569 76.416 89.5569 76.02 89.2689 75.692C88.9809 75.356 88.6369 75.104 88.2369 74.936C87.8369 74.76 87.4129 74.672 86.9649 74.672C86.3649 74.672 85.7889 74.824 85.2369 75.128C84.6929 75.432 84.2489 75.892 83.9049 76.508C83.5689 77.124 83.4009 77.872 83.4009 78.752C83.4009 79.656 83.5609 80.416 83.8809 81.032C84.2089 81.64 84.6329 82.092 85.1529 82.388C85.6809 82.684 86.2409 82.832 86.8329 82.832C87.2969 82.832 87.7369 82.744 88.1529 82.568C88.5769 82.392 88.9409 82.14 89.2449 81.812C89.5489 81.476 89.7569 81.08 89.8689 80.624H90.0849V81.812C89.6609 82.236 89.1609 82.572 88.5849 82.82C88.0089 83.068 87.3929 83.192 86.7369 83.192C85.9289 83.192 85.1849 82.996 84.5049 82.604C83.8329 82.204 83.3009 81.664 82.9089 80.984C82.5169 80.304 82.3209 79.56 82.3209 78.752C82.3209 77.944 82.5169 77.2 82.9089 76.52C83.3009 75.84 83.8329 75.304 84.5049 74.912C85.1849 74.512 85.9289 74.312 86.7369 74.312C87.3929 74.312 88.0089 74.436 88.5849 74.684C89.1609 74.932 89.6609 75.268 90.0849 75.692V76.88ZM97.9397 74.6V74.648C97.9237 74.744 97.9077 74.844 97.8917 74.948C97.8837 75.044 97.8797 75.164 97.8797 75.308C97.8797 75.452 97.8797 75.636 97.8797 75.86V81.74C97.8797 81.964 97.8797 82.148 97.8797 82.292C97.8797 82.436 97.8837 82.56 97.8917 82.664C97.9077 82.76 97.9237 82.856 97.9397 82.952V83H96.7757V82.952C96.8077 82.848 96.8277 82.748 96.8357 82.652C96.8517 82.556 96.8597 82.436 96.8597 82.292C96.8597 82.148 96.8597 81.964 96.8597 81.74V75.86C96.8597 75.636 96.8597 75.452 96.8597 75.308C96.8597 75.164 96.8517 75.044 96.8357 74.948C96.8277 74.852 96.8077 74.752 96.7757 74.648V74.6H97.9397ZM96.9797 77.156V77.516H92.7797V77.156H96.9797ZM92.9837 74.6V74.648C92.9517 74.752 92.9277 74.852 92.9117 74.948C92.9037 75.044 92.8997 75.164 92.8997 75.308C92.8997 75.452 92.8997 75.636 92.8997 75.86V81.74C92.8997 81.964 92.8997 82.148 92.8997 82.292C92.8997 82.436 92.9037 82.556 92.9117 82.652C92.9277 82.748 92.9517 82.848 92.9837 82.952V83H91.8197V82.952C91.8437 82.856 91.8597 82.76 91.8677 82.664C91.8757 82.56 91.8797 82.436 91.8797 82.292C91.8797 82.148 91.8797 81.964 91.8797 81.74V75.86C91.8797 75.636 91.8797 75.452 91.8797 75.308C91.8797 75.164 91.8757 75.044 91.8677 74.948C91.8597 74.844 91.8437 74.744 91.8197 74.648V74.6H92.9837Z" fill="#BA886E"/>
</svg>
