<svg width="50" height="36" viewBox="0 0 50 36" fill="none" xmlns="http://www.w3.org/2000/svg">
<path d="M16.6354 0.147659L34.663 10.5558C35.3897 10.9754 35.3897 12.0246 34.663 12.4442L16.6354 22.8523C15.9087 23.2719 15 22.7473 15 21.9081V1.09186C15 0.252675 15.9083 -0.271933 16.6354 0.147659Z" fill="#BA886E"/>
<path d="M4.062 30.346V30.94H3.954C3.786 30.22 3.156 29.836 2.502 29.836C1.638 29.836 0.72 30.49 0.72 31.876C0.72 33.304 1.59 33.916 2.436 33.916C3.12 33.916 3.78 33.514 3.954 32.812H4.062V33.406C3.66 33.808 3.066 34.096 2.388 34.096C1.152 34.096 0.18 33.112 0.18 31.876C0.18 30.64 1.152 29.656 2.388 29.656C3.066 29.656 3.66 29.944 4.062 30.346ZM4.92938 29.8H5.51138V29.824C5.46938 29.98 5.46938 30.052 5.46938 30.43V33.82H6.48938C6.86738 33.82 6.93938 33.82 7.09538 33.778H7.11938V34H4.92938V33.976C4.95938 33.82 4.95938 33.748 4.95938 33.37V30.43C4.95938 30.052 4.95938 29.98 4.92938 29.824V29.8ZM7.63055 29.8H8.20055V29.824C8.17055 29.98 8.17055 30.052 8.17055 30.43V33.37C8.17055 33.748 8.17055 33.82 8.20055 33.976V34H7.63055V33.976C7.66055 33.82 7.66055 33.748 7.66055 33.37V30.43C7.66055 30.052 7.66055 29.98 7.63055 29.824V29.8ZM12.8335 30.346V30.94H12.7255C12.5575 30.22 11.9275 29.836 11.2735 29.836C10.4095 29.836 9.49148 30.49 9.49148 31.876C9.49148 33.304 10.3615 33.916 11.2075 33.916C11.8915 33.916 12.5515 33.514 12.7255 32.812H12.8335V33.406C12.4315 33.808 11.8375 34.096 11.1595 34.096C9.92348 34.096 8.95148 33.112 8.95148 31.876C8.95148 30.64 9.92348 29.656 11.1595 29.656C11.8375 29.656 12.4315 29.944 12.8335 30.346ZM13.7009 29.8H14.2829V29.824C14.2409 29.98 14.2409 30.052 14.2409 30.43V31.642L15.5369 30.43C15.9149 30.082 16.0589 29.926 16.1069 29.824L16.1189 29.8H16.4609V29.818C16.2989 29.932 16.1549 30.076 15.7829 30.43L15.1649 31.018L16.2989 32.944C16.6889 33.61 16.9409 33.862 17.0849 33.922L17.0789 34.012C16.4969 34.084 16.1549 33.646 15.8909 33.196L14.7929 31.354L14.2409 31.87V33.37C14.2409 33.748 14.2409 33.82 14.2829 33.976V34H13.7009V33.976C13.7309 33.82 13.7309 33.748 13.7309 33.37V30.43C13.7309 30.052 13.7309 29.98 13.7009 29.824V29.8ZM19.122 29.8H21.876V30.022H21.852C21.696 29.98 21.624 29.98 21.306 29.98H20.754V33.37C20.754 33.73 20.76 33.814 20.778 33.934L20.784 33.976V34H20.214V33.976L20.22 33.934C20.238 33.814 20.244 33.73 20.244 33.37V29.98H19.692C19.374 29.98 19.302 29.98 19.146 30.022H19.122V29.8ZM24.402 34.096C23.166 34.096 22.182 33.112 22.182 31.876C22.182 30.64 23.166 29.656 24.402 29.656C25.638 29.656 26.622 30.64 26.622 31.876C26.622 33.112 25.638 34.096 24.402 34.096ZM22.722 31.876C22.722 33.01 23.388 33.916 24.324 33.916C25.344 33.916 26.082 33.01 26.082 31.876C26.082 30.736 25.41 29.836 24.468 29.836C23.454 29.836 22.722 30.736 22.722 31.876ZM29.0784 29.8H29.6844V29.842C29.6844 29.95 29.7084 30.1 29.8284 30.43L30.9924 33.706L32.1204 29.704H32.1444L33.3984 33.694L34.3944 30.43C34.5024 30.088 34.5204 29.95 34.5204 29.842V29.8H34.8024V29.824C34.7424 29.938 34.6944 30.082 34.5864 30.43L33.4944 34C33.3564 34 33.1584 34.048 33.0324 34.126L31.9944 30.802L31.0944 34C30.9564 34 30.7584 34.048 30.6324 34.126L29.3184 30.43C29.1924 30.082 29.1384 29.938 29.0784 29.824V29.8ZM36.1245 29.8C36.2685 29.8 36.4425 29.77 36.5865 29.674L37.8945 33.37C38.0745 33.874 38.1165 33.94 38.1345 33.976V34H37.5405V33.976C37.5405 33.94 37.5585 33.874 37.3845 33.37L37.2165 32.896H35.1225L34.9425 33.364C34.7505 33.868 34.7805 33.94 34.7805 33.976V34H34.4745V33.976C34.4925 33.94 34.5345 33.868 34.7325 33.37L36.1245 29.8ZM35.1945 32.716H37.1565L36.2265 30.058L35.1945 32.716ZM38.1005 29.8H40.8545V30.022H40.8305C40.6745 29.98 40.6025 29.98 40.2845 29.98H39.7325V33.37C39.7325 33.73 39.7385 33.814 39.7565 33.934L39.7625 33.976V34H39.1925V33.976L39.1985 33.934C39.2165 33.814 39.2225 33.73 39.2225 33.37V29.98H38.6705C38.3525 29.98 38.2805 29.98 38.1245 30.022H38.1005V29.8ZM45.0425 30.346V30.94H44.9345C44.7665 30.22 44.1365 29.836 43.4825 29.836C42.6185 29.836 41.7005 30.49 41.7005 31.876C41.7005 33.304 42.5705 33.916 43.4165 33.916C44.1005 33.916 44.7605 33.514 44.9345 32.812H45.0425V33.406C44.6405 33.808 44.0465 34.096 43.3685 34.096C42.1325 34.096 41.1605 33.112 41.1605 31.876C41.1605 30.64 42.1325 29.656 43.3685 29.656C44.0465 29.656 44.6405 29.944 45.0425 30.346ZM48.3878 29.8H48.9698V29.824C48.9398 29.98 48.9398 30.052 48.9398 30.43V33.37C48.9398 33.748 48.9398 33.82 48.9698 33.976V34H48.3878V33.976C48.4298 33.82 48.4298 33.748 48.4298 33.37V31.258H46.4498V33.37C46.4498 33.748 46.4498 33.82 46.4918 33.976V34H45.9098V33.976C45.9398 33.82 45.9398 33.748 45.9398 33.37V30.43C45.9398 30.052 45.9398 29.98 45.9098 29.824V29.8H46.4918V29.824C46.4498 29.98 46.4498 30.052 46.4498 30.43V31.078H48.4298V30.43C48.4298 30.052 48.4298 29.98 48.3878 29.824V29.8Z" fill="#BA886E"/>
</svg>
