<svg width="33" height="33" viewBox="0 0 33 33" fill="none" xmlns="http://www.w3.org/2000/svg">
<path d="M16.1949 32.7516C7.26954 32.7903 -0.0693851 25.3611 0.143431 16.2874C0.343349 7.64579 7.50171 0.506776 16.4013 0.603511C25.217 0.700245 32.5108 8.03917 32.2722 17.1258C32.0465 25.7287 24.9462 32.7968 16.1949 32.7516ZM2.09747 16.7001C2.16841 24.7807 8.72056 31.004 16.4593 30.8685C23.953 30.7331 30.3053 24.6259 30.3053 16.6808C30.3053 8.60023 23.7015 2.35118 15.937 2.49951C8.44326 2.63494 2.14906 8.76146 2.09747 16.7001Z" fill="#BA886E"/>
<path fill-rule="evenodd" clip-rule="evenodd" d="M24.6444 11.3381C24.026 11.6197 23.3601 11.8101 22.6616 11.8952C23.3748 11.4576 23.9222 10.7636 24.1801 9.93704C23.5122 10.3423 22.7743 10.6371 21.9859 10.7952C21.3576 10.1073 20.4595 9.67773 19.4657 9.67773C17.56 9.67773 16.0139 11.2631 16.0139 13.2184C16.0139 13.496 16.0435 13.7654 16.1028 14.0249C13.2331 13.8768 10.6892 12.4687 8.98497 10.324C8.68767 10.8488 8.51765 11.4576 8.51765 12.106C8.51765 13.3339 9.12724 14.4178 10.0539 15.053C9.48885 15.0358 8.95525 14.8747 8.48898 14.6113V14.6548C8.48898 16.371 9.67938 17.8024 11.26 18.1266C10.9706 18.2097 10.6653 18.2513 10.3501 18.2513C10.1279 18.2513 9.91054 18.23 9.70002 18.1884C10.1396 19.5946 11.414 20.6188 12.9255 20.6462C11.7439 21.5965 10.2543 22.1627 8.63704 22.1627C8.35841 22.1627 8.0828 22.1465 7.81311 22.114C9.34145 23.1169 11.1572 23.7035 13.1063 23.7035C19.4586 23.7035 22.931 18.3089 22.931 13.6296C22.931 13.4756 22.928 13.3216 22.9221 13.1707C23.5972 12.6713 24.183 12.0483 24.6444 11.3381Z" fill="#BA886E"/>
</svg>
