<svg width="34" height="34" viewBox="0 0 34 34" fill="none" xmlns="http://www.w3.org/2000/svg">
<path d="M33.361 16.1156C33.361 25.0161 26.0905 32.2311 17.1201 32.2311C14.2724 32.2311 11.5971 31.5033 9.26948 30.2259L0.277832 33.0832L3.20937 24.4367C1.73055 22.0084 0.878844 19.1603 0.878844 16.1156C0.878844 7.21508 8.15017 0 17.1201 0C26.0912 0 33.361 7.21508 33.361 16.1156ZM17.1201 2.56652C9.59039 2.56652 3.46558 8.64464 3.46558 16.1156C3.46558 19.0802 4.43198 21.8257 6.06666 24.0592L4.36067 29.0912L9.60803 27.4234C11.764 28.839 14.3467 29.6646 17.1205 29.6646C24.6491 29.6646 30.775 23.5872 30.775 16.1163C30.775 8.64538 24.6495 2.56652 17.1201 2.56652ZM25.3215 19.8271C25.2211 19.6628 24.9561 19.5636 24.5583 19.3662C24.1599 19.1688 22.2021 18.2127 21.8382 18.0814C21.4731 17.9499 21.207 17.8837 20.942 18.2788C20.6769 18.6744 19.9138 19.5636 19.6811 19.8271C19.4488 20.0914 19.2169 20.1245 18.8184 19.9268C18.4207 19.7294 17.1381 19.3118 15.6174 17.9664C14.4341 16.9195 13.635 15.627 13.4027 15.2311C13.1707 14.836 13.3784 14.6224 13.5773 14.4258C13.7567 14.2486 13.9758 13.9644 14.1746 13.7339C14.3742 13.5031 14.4404 13.3388 14.5724 13.0749C14.7058 12.8113 14.6393 12.5808 14.5393 12.3827C14.44 12.1853 13.6431 10.2415 13.3115 9.4504C12.9799 8.66008 12.6487 8.79168 12.4161 8.79168C12.1841 8.79168 11.9183 8.7586 11.6529 8.7586C11.3875 8.7586 10.956 8.85748 10.591 9.25264C10.2263 9.64817 9.19817 10.6039 9.19817 12.5474C9.19817 14.4912 10.6241 16.3692 10.8237 16.6324C11.0225 16.8956 13.5769 21.0141 17.6241 22.5958C21.6716 24.1768 21.6716 23.6494 22.4017 23.5832C23.131 23.5174 24.7565 22.6278 25.0895 21.7059C25.4203 20.7825 25.4203 19.9918 25.3215 19.8271Z" fill="#BA886E"/>
</svg>
