<svg width="33" height="33" viewBox="0 0 33 33" fill="none" xmlns="http://www.w3.org/2000/svg">
<path fill-rule="evenodd" clip-rule="evenodd" d="M16.7599 32.7516C7.83448 32.7903 0.495556 25.3611 0.708372 16.2874C0.90829 7.64579 8.06665 0.506776 16.9662 0.603511C25.782 0.700245 33.0758 8.03917 32.8371 17.1258C32.6114 25.7287 25.5111 32.7968 16.7599 32.7516ZM2.66241 16.7001C2.73335 24.7807 9.2855 31.004 17.0243 30.8685C24.518 30.7331 30.8702 24.6259 30.8702 16.6808C30.8702 8.60023 24.2665 2.35118 16.5019 2.49951C9.0082 2.63494 2.714 8.76146 2.66241 16.7001ZM8.26479 14.1315C8.37245 12.4597 9.66783 11.1092 11.3327 10.9309C13.0596 10.757 14.895 10.6631 16.7976 10.6631C18.7002 10.6631 20.5356 10.757 22.2625 10.9318C23.9273 11.1092 25.2227 12.4597 25.3304 14.1315C25.3829 14.9549 25.4105 15.7964 25.4105 16.6508C25.4105 17.5052 25.3829 18.3467 25.3304 19.17C25.2227 20.8418 23.9273 22.1923 22.2625 22.3706C20.5356 22.5446 18.7002 22.6385 16.7976 22.6385C14.895 22.6385 13.0596 22.5446 11.3327 22.3697C9.66783 22.1923 8.37245 20.8418 8.26479 19.17C8.21225 18.3467 8.18469 17.5052 8.18469 16.6508C8.18469 15.7964 8.21225 14.9549 8.26479 14.1315ZM15.2007 19.2304L19.4288 16.6509L15.2007 14.0713V19.2304Z" fill="#BA886E"/>
</svg>
