<?xml version="1.0" encoding="utf-8"?><svg viewBox="0 0 232 320" xmlns="http://www.w3.org/2000/svg" xmlns:xlink="http://www.w3.org/1999/xlink"><style>:root>svg{display:none}:root>svg:target{display:block}</style><svg viewBox="0 0 14 24" id="arrow" xmlns="http://www.w3.org/2000/svg"><path d="M1.416.235l-1.18 1.18A.745.745 0 000 1.958c0 .204.079.385.236.542l9.273 9.273-9.273 9.273a.745.745 0 00-.236.543c0 .204.079.385.236.542l1.18 1.18a.745.745 0 00.543.236.746.746 0 00.542-.236l10.995-10.995a.746.746 0 00.236-.543.745.745 0 00-.236-.542L2.501.235A.746.746 0 001.96 0a.747.747 0 00-.543.235z"/></svg><svg viewBox="0 0 33 33" id="fc" xmlns="http://www.w3.org/2000/svg"><path d="M16.056 32.752C7.131 32.79-.208 25.362.005 16.287.205 7.646 7.363.507 16.262.604c8.816.096 16.11 7.435 15.871 16.522-.225 8.603-7.326 15.67-16.077 15.626zM1.959 16.7c.07 8.08 6.623 14.304 14.361 14.169 7.494-.136 13.846-6.243 13.846-14.188 0-8.08-6.603-14.33-14.368-14.181-7.494.135-13.788 6.26-13.84 14.2z"/><path d="M13.273 26.002v-9.37h-2.052v-3.157c.09-.005.181-.016.277-.016.496 0 .997-.01 1.493.005.218.006.293-.053.287-.276-.01-.808-.01-1.61-.005-2.418.005-.909.261-1.733.911-2.392a3.485 3.485 0 012.308-1.036c1.407-.08 2.82-.07 4.232-.096.016 0 .032.016.064.032v3.242c-.102.005-.198.01-.288.01h-1.92c-.645.006-1.023.389-1.023 1.021 0 .6 0 1.207.005 1.807 0 .016.01.032.027.09h3.24c-.138 1.08-.266 2.11-.405 3.179h-2.878v9.386c-1.433-.011-2.83-.011-4.274-.011z"/></svg><svg viewBox="0 0 26 59" id="inmobiliarioico01" xmlns="http://www.w3.org/2000/svg"><path d="M14.368.8v5.248c3.2 0 6.528.512 9.344 1.408l.32 3.008h-.704C21.152 8.48 18.4 7.84 14.368 7.776v20.288l5.376 4.736c4.608 4.096 6.016 6.976 6.016 10.368 0 6.144-5.312 9.152-11.584 9.536V58.4h-1.92v-5.632c-4.16-.064-8.256-1.216-11.2-3.136l-.192-2.816h.64c3.136 2.752 6.464 4.032 10.752 4.224V28.896l-4.352-3.84c-4.544-4.032-6.4-7.36-6.4-10.688 0-4.352 3.776-7.808 10.944-8.256V.8h1.92zM3.68 14.176c0 3.456 2.176 6.4 5.76 9.536l3.008 2.624V7.84c-5.952.32-8.768 2.88-8.768 6.336zM14.176 51.04c5.12-.256 9.408-3.008 9.408-7.68 0-2.56-1.408-5.76-5.376-9.216l-4.032-3.584v20.48z"/></svg><svg viewBox="0 0 66 66" id="inmobiliarioico02" xmlns="http://www.w3.org/2000/svg"><path fill-rule="evenodd" clip-rule="evenodd" d="M59.941 32.382l-12.109 5.382H14.703a1.375 1.375 0 000 2.75h33.422c.192 0 .383-.04.559-.118l12.375-5.5a1.376 1.376 0 10-1.118-2.514zM5.5 37.764a1.375 1.375 0 000 2.75h3.682a1.375 1.375 0 100-2.75H5.5z"/><path fill-rule="evenodd" clip-rule="evenodd" d="M59.941 39.257l-12.109 5.382H5.5a1.375 1.375 0 000 2.75h42.625c.192 0 .383-.04.559-.118l12.375-5.5a1.376 1.376 0 10-1.118-2.514zm0-13.75l-12.109 5.382H5.5a1.375 1.375 0 000 2.75h42.625c.192 0 .383-.04.559-.118l12.375-5.5a1.376 1.376 0 10-1.118-2.514z"/><path fill-rule="evenodd" clip-rule="evenodd" d="M59.941 18.632l-12.109 5.382H5.5a1.375 1.375 0 000 2.75h42.625c.192 0 .383-.04.559-.118l12.375-5.5a1.376 1.376 0 10-1.118-2.514zM5.5 18.514l12.375-5.5H60.5l-12.375 5.5H5.5z"/><path fill-rule="evenodd" clip-rule="evenodd" d="M40.033 11.639H44l-9.625 8.25v33h-16.5v-33l9.625-8.25h4.014"/><path fill-rule="evenodd" clip-rule="evenodd" d="M27.5 11.639l-9.625 8.25V48.47c4.575-1.474 9.305-4.34 13.546-8.207a46.904 46.904 0 002.954-2.962V19.889L44 11.639H27.5z"/><path fill-rule="evenodd" clip-rule="evenodd" d="M26.125 26.42a1.397 1.397 0 00-.979.401 1.367 1.367 0 00-.404.969v1.59c-1.773.56-3.094 2.163-3.094 4.079 0 2.388 2.053 4.297 4.477 4.297.992 0 1.708.717 1.708 1.563s-.716 1.557-1.708 1.557-1.71-.711-1.71-1.557c0-.363-.145-.71-.404-.968a1.392 1.392 0 00-2.258.443c-.07.167-.105.345-.105.525 0 1.915 1.32 3.519 3.094 4.08v1.589a1.354 1.354 0 00.404.968 1.386 1.386 0 00.979.402 1.399 1.399 0 00.979-.402 1.366 1.366 0 00.404-.968v-1.59c1.773-.56 3.091-2.164 3.091-4.08 0-2.388-2.05-4.296-4.474-4.296-.992 0-1.71-.717-1.71-1.563s.718-1.558 1.71-1.558 1.708.712 1.708 1.558a1.354 1.354 0 00.404.968 1.385 1.385 0 00.98.402 1.398 1.398 0 00.978-.402 1.367 1.367 0 00.404-.968c0-1.916-1.319-3.519-3.09-4.08v-1.59a1.353 1.353 0 00-.405-.968 1.386 1.386 0 00-.979-.4z" fill-opacity=".32"/><path fill-rule="evenodd" clip-rule="evenodd" d="M59.941 46.132l-12.109 5.382h-2.468a1.375 1.375 0 100 2.75h2.761c.192 0 .383-.04.559-.118l12.375-5.5a1.376 1.376 0 10-1.118-2.514zM5.5 51.514a1.375 1.375 0 000 2.75h34.066a1.375 1.375 0 100-2.75H5.5z"/></svg><svg viewBox="0 0 82 28" id="inmobiliarioico03" xmlns="http://www.w3.org/2000/svg"><path d="M75.248 13.463H58.822a1.21 1.21 0 00-1.21 1.21v11.85c0 .668.542 1.21 1.21 1.21h.348a1.21 1.21 0 001.21-1.21v-1.955c0-.668.542-1.21 1.21-1.21h.403c.669 0 1.21.542 1.21 1.21v1.955a1.21 1.21 0 002.42 0v-1.955c0-.668.542-1.21 1.21-1.21h.404c.668 0 1.21.542 1.21 1.21v1.955a1.21 1.21 0 102.42 0v-1.955c0-.668.541-1.21 1.21-1.21h.403c.668 0 1.21.542 1.21 1.21v1.955c0 .668.542 1.21 1.21 1.21h.348a1.21 1.21 0 001.21-1.21v-11.85a1.21 1.21 0 00-1.21-1.21z"/><path d="M78.073 17.232H27.999a3.23 3.23 0 110-6.462h50.074a3.23 3.23 0 010 6.462z"/><path d="M13.998 0C6.278 0 0 6.283 0 14.002 0 21.722 6.278 28 13.998 28S28 21.721 28 14.002C28 6.282 21.717 0 13.998 0zm7.538 15.357c0 4.156-3.378 7.539-7.538 7.539-4.156 0-7.539-3.383-7.539-7.539 0-.23.01-.451.032-.677a6.678 6.678 0 01-.032-.678c0-4.16 3.383-7.538 7.539-7.538a7.543 7.543 0 017.507 8.216c.022.226.031.447.031.677z"/><path d="M30.69 14.003c0 1.109-.129 2.191-.382 3.23h-2.692c.253-1.039.383-2.121.383-3.23 0-1.11-.13-2.192-.383-3.231h2.692c.253 1.04.383 2.121.383 3.23z"/><path d="M30.308 10.772h-2.692c.253 1.04.383 2.121.383 3.23 0 1.11-.13 2.192-.383 3.231h2.692c.253-1.039.383-2.121.383-3.23 0-1.11-.13-2.192-.383-3.231zm-8.772 4.585c0 4.156-3.378 7.539-7.538 7.539-4.156 0-7.539-3.383-7.539-7.539 0-.23.01-.451.032-.677.343 3.839 3.582 6.86 7.507 6.86 3.93 0 7.164-3.021 7.507-6.86.022.226.031.447.031.677z"/></svg><svg viewBox="0 0 77 77" id="inmobiliarioico04" xmlns="http://www.w3.org/2000/svg"><path d="M11.304 22.313v-1.648a4.999 4.999 0 000-9.99V7.683a.942.942 0 00-1.882 0v2.975a3.12 3.12 0 01.169-6.233h4.084a.942.942 0 100-1.882h-2.37V.902a.942.942 0 00-1.883 0V2.55a5 5 0 00.169 9.998h1.531a3.12 3.12 0 01.169 6.233V15.8a.941.941 0 00-1.882 0v2.99H7.044a.941.941 0 000 1.882h2.378v1.639a.942.942 0 001.882 0v.002zM22.425 5.594a.939.939 0 00.94.94h24.311a.94.94 0 000-1.88H23.365a.94.94 0 00-.94.94zm25.251 6.955a.942.942 0 000-1.882h-3.315a.942.942 0 000 1.882h3.316zm-24.311 0h14.293a.942.942 0 000-1.882H23.365a.942.942 0 000 1.882zM34.58 17.62a.94.94 0 00.94.94h12.156a.94.94 0 100-1.88H35.52a.94.94 0 00-.94.94zm-11.215.94h5.364a.94.94 0 100-1.88h-5.364a.94.94 0 000 1.88zm52.693 18.487H65.47a.94.94 0 00-.942.94v37.568a.941.941 0 00.942.94h10.588a.94.94 0 00.942-.94V37.99a.94.94 0 00-.942-.943zm-.94 37.568H66.41V38.932h8.708v35.683zm-19.628.935V56.771a.942.942 0 00-.94-.942H43.96a.94.94 0 00-.94.942v18.78a.94.94 0 00.94.94h10.59a.94.94 0 00.94-.94zm-1.882-.935h-8.706V57.711h8.708l-.002 16.904zM22.45 47.977a.94.94 0 00-.94.94V75.55a.94.94 0 00.94.94h10.59a.94.94 0 00.94-.94V48.917a.94.94 0 00-.94-.94H22.45zm9.648 26.638h-8.706V49.86h8.706v24.756zM.942 76.49H11.53a.94.94 0 00.942-.94v-9.678a.94.94 0 00-.942-.94H.942a.94.94 0 00-.942.94v9.678a.94.94 0 00.942.94zm.94-9.678h8.708v7.803H1.882v-7.803zm4.353-14.17a4.134 4.134 0 10-.007 8.267 4.134 4.134 0 00.007-8.267zm0 6.386a2.254 2.254 0 110-4.507 2.254 2.254 0 010 4.507zm43.02-7.218a4.134 4.134 0 10-3.455-6.402L34.007 41.1a.943.943 0 00-1.206.561.94.94 0 00.56 1.206l11.794 4.308a4.14 4.14 0 004.1 4.635zm0-6.389a2.254 2.254 0 110 4.508 2.254 2.254 0 010-4.508zm21.038-13.568a4.134 4.134 0 10-3.637-2.171L54.15 42.148a.942.942 0 00.659 1.618.94.94 0 00.669-.287L67.91 31.081a4.1 4.1 0 002.384.772zm0-6.387a2.254 2.254 0 11.004 4.509 2.254 2.254 0 01-.004-4.509zM11.899 53.253a.94.94 0 00.608-.224l11.737-9.968a4.159 4.159 0 10-1.17-1.473L11.288 51.595a.94.94 0 00.61 1.658zM26.805 37.57a2.255 2.255 0 110 4.509 2.255 2.255 0 010-4.51z"/></svg><svg viewBox="0 0 75 80" id="inmobiliarioico05" xmlns="http://www.w3.org/2000/svg"><path d="M74.193 29.054H62.894a.807.807 0 010-1.614h11.299a.807.807 0 010 1.614zm-6.456 50.038a.807.807 0 01-.808-.808 5.656 5.656 0 00-5.649-5.649H17.699a.807.807 0 010-1.614H61.28c4.005 0 7.263 3.259 7.263 7.263a.807.807 0 01-.806.808zm-64.565 0a.807.807 0 01-.807-.808c0-4.004 3.259-7.263 7.263-7.263h3.228a.807.807 0 010 1.614H9.628a5.656 5.656 0 00-5.65 5.65.807.807 0 01-.806.807z"/><path d="M51.595 72.636H45.14a.803.803 0 01-.578-.244.812.812 0 01-.23-.584l1.615-64.565a.807.807 0 01.807-.786h3.228c.438 0 .796.348.807.786l.323 12.913a.809.809 0 01-.786.828h-.021a.807.807 0 01-.807-.786L49.195 8.07h-1.654l-1.574 62.95h4.802l-1.11-44.367a.809.809 0 01.785-.828c.523.005.817.342.828.786l1.13 45.196a.813.813 0 01-.229.584.803.803 0 01-.578.244z"/><path d="M33.838 72.636a.807.807 0 01-.789-.65l-.413-2.043c-1.453-7.142-2.827-13.888-2.776-28.114.041-12.018 5.985-23.657 16.307-31.937a.807.807 0 011.009 1.259c-9.938 7.972-15.662 19.156-15.702 30.684-.05 14.06 1.307 20.727 2.742 27.786l.415 2.05a.804.804 0 01-.793.965zM49.981 8.07a.807.807 0 01-.807-.806V.807a.807.807 0 011.614 0v6.457a.807.807 0 01-.807.807z"/><path d="M46.419 20.984h-6.122a.807.807 0 010-1.614h6.122a.807.807 0 010 1.614zm-.069 3.228h-7.668a.807.807 0 010-1.614h7.667a.807.807 0 010 1.614zm-.162 6.457H32.75a.807.807 0 010-1.615h13.44a.807.807 0 010 1.615zm-.121 4.841H31.39a.807.807 0 010-1.613h14.677a.807.807 0 010 1.614zm-.121 4.843H30.749a.807.807 0 010-1.614h15.197a.807.807 0 010 1.614zm-.121 4.842h-15.15a.807.807 0 010-1.614h15.15a.807.807 0 010 1.614zm-.131 4.843H30.79a.807.807 0 010-1.615h14.904a.807.807 0 01.001 1.614zm-.111 4.842h-14.5a.807.807 0 010-1.614h14.5a.807.807 0 010 1.614zm-.121 4.842H31.54a.807.807 0 010-1.614h13.922a.807.807 0 010 1.614zm-.128 4.843H32.261a.807.807 0 010-1.614h13.073a.807.807 0 010 1.614zm-.124 4.842H33.187a.807.807 0 010-1.614H45.21a.807.807 0 010 1.614zm9.614-45.195H49.98a.807.807 0 010-1.614h4.344l.807-1.614h-6.765a.807.807 0 010-1.614h8.07a.804.804 0 01.722 1.167l-1.614 3.228a.807.807 0 01-.721.447zm-29.054 0h-1.615a.813.813 0 01-.571-.236l-3.228-3.228a.809.809 0 01.571-1.379h6.457a.807.807 0 010 1.615h-4.509l1.615 1.614h1.28a.807.807 0 010 1.614z"/><path d="M33.84 72.635h-9.685a.81.81 0 01-.766-.552c-2.167-6.498-3.57-12.206-4.17-16.96A43.573 43.573 0 0119.74 41a.808.808 0 011.583.32 41.96 41.96 0 00-.502 13.6c.572 4.517 1.889 9.932 3.918 16.101h8.114l-.218-1.078c-1.452-7.142-2.826-13.888-2.778-28.113.037-10.497 4.578-20.706 12.605-28.64-9.34 4.694-16.51 13.078-19.884 23.38a.809.809 0 01-1.535-.504c3.828-11.682 12.352-20.993 23.387-25.55.647-.268 1.305-.52 1.972-.757a.809.809 0 01.775 1.391c-9.937 7.972-15.662 19.157-15.704 30.685-.048 14.059 1.31 20.727 2.744 27.785l.415 2.05a.81.81 0 01-.791.965z"/><path d="M43.525 35.51h-3.228a.807.807 0 01-.807-.806V29.86c0-.445.361-.807.806-.807h3.229c.445 0 .807.362.807.808v4.842a.807.807 0 01-.807.807zm-2.421-1.613h1.614v-3.228h-1.614v3.228zm2.421 11.299h-3.228a.807.807 0 01-.807-.807v-4.843c0-.445.361-.807.806-.807h3.229c.445 0 .807.362.807.807v4.843a.807.807 0 01-.807.807zm-2.421-1.614h1.614v-3.229h-1.614v3.229zm.806 11.298h-3.228a.807.807 0 01-.807-.807V49.23c0-.445.362-.807.807-.807h3.229c.445 0 .807.362.807.807v4.843a.807.807 0 01-.807.807zm-2.42-1.614h1.613v-3.228H39.49v3.228zm2.42 11.299h-3.228a.807.807 0 01-.807-.807v-4.843c0-.445.362-.807.807-.807h3.229c.445 0 .807.362.807.807v4.843a.807.807 0 01-.807.807zm-2.42-1.614h1.613v-3.229H39.49v3.228z"/><path d="M38.682 50.038h-3.228a.807.807 0 01-.807-.807v-4.843c0-.445.362-.807.807-.807h3.228c.446 0 .807.362.807.807v4.843a.807.807 0 01-.807.806zm-2.42-1.615h1.613v-3.228h-1.614v3.228zm2.42 11.299h-3.228a.807.807 0 01-.807-.807v-4.842c0-.446.362-.807.807-.807h3.228c.446 0 .807.361.807.807v4.842a.807.807 0 01-.807.807zm-2.42-1.614h1.613V54.88h-1.614v3.228zm2.42-17.755h-3.228a.807.807 0 01-.807-.807v-4.842c0-.446.362-.807.807-.807h3.228c.446 0 .807.361.807.807v4.842a.807.807 0 01-.807.807zm-2.42-1.614h1.613v-3.228h-1.614v3.228zM6.833 50.038a.807.807 0 01-.807-.807 2.424 2.424 0 00-2.422-2.422c-.862 0-1.665.464-2.098 1.211a.807.807 0 01-1.398-.809 4.045 4.045 0 013.495-2.016 4.04 4.04 0 014.035 4.036.805.805 0 01-.805.807z"/><path d="M6.833 50.038a.807.807 0 01-.807-.807 4.04 4.04 0 014.035-4.036c1.436 0 2.776.773 3.494 2.016a.805.805 0 01-.295 1.103.809.809 0 01-1.102-.294 2.431 2.431 0 00-2.099-1.21 2.424 2.424 0 00-2.421 2.42.805.805 0 01-.805.808z"/><path d="M8.447 50.038H5.219a.807.807 0 010-1.615h3.228a.807.807 0 010 1.614z"/></svg><svg viewBox="0 0 30 31" id="inst" xmlns="http://www.w3.org/2000/svg"><path d="M29.69 15.482c0 2.059-.042 4.123.011 6.18.09 3.644-2.2 6.46-5.115 7.713a9.251 9.251 0 01-3.673.769c-3.98.006-7.966.059-11.947-.018-2.998-.06-5.464-1.313-7.233-3.785C.805 25.04.361 23.561.361 21.959V9.243c0-3.46 1.686-5.879 4.678-7.452 1.301-.68 2.715-.97 4.187-.976 3.862 0 7.73-.023 11.592.012 2.999.024 5.5 1.171 7.346 3.584C29.193 5.76 29.69 7.31 29.69 9.012v6.47zm-27.147 0v6.506c0 .97.225 1.88.728 2.703 1.319 2.159 3.312 3.211 5.784 3.253 3.968.059 7.943.023 11.917.012.976 0 1.922-.201 2.803-.621 2.402-1.148 3.744-2.975 3.732-5.72-.023-4.198-.006-8.398-.006-12.597 0-1.188-.337-2.277-1.04-3.235-1.36-1.84-3.242-2.744-5.489-2.768-3.963-.047-7.925-.017-11.887-.011a6.98 6.98 0 00-2.455.467c-2.176.81-4.199 2.862-4.104 5.884.07 2.047.017 4.087.017 6.127z"/><path d="M15.058 21.752c-3.815 0-6.89-3.04-6.896-6.825-.006-3.726 3.093-6.778 6.884-6.778 3.803-.005 6.89 3.04 6.896 6.796 0 3.75-3.081 6.801-6.884 6.807zm0-2.188c2.596 0 4.702-2.076 4.696-4.631-.006-2.531-2.112-4.601-4.696-4.601-2.597 0-4.714 2.064-4.714 4.613.006 2.555 2.117 4.625 4.714 4.619zM22.74 6.08c.799 0 1.45.68 1.45 1.513-.007.834-.663 1.508-1.462 1.502-.786-.006-1.43-.68-1.43-1.496-.007-.834.644-1.52 1.442-1.52z"/></svg><svg viewBox="0 0 139 134" id="logo" xmlns="http://www.w3.org/2000/svg"><path d="M69.368 4.15c-.217 23.263-.625 46.517-.636 69.782-.004 5.418.072 10.837.03 16.232a.124.124 0 01-.123.123c-7.942.085-15.84.463-23.603.69-.047 0-.048.008-.004.022.091.024.132.048.225.046 6.327-.039 12.781.386 18.937.506 1.248.025 2.087.126 2.52.305 1.363.558 2.125 2.043 2.177 3.495.105 2.92.254 5.839.447 8.755.056.839-.004 1.897.095 2.847.006.063.011.063.016 0 .241-3.801.516-7.582.603-11.395.04-1.719.879-3.441 2.598-3.873.267-.067.993-.113 2.18-.137a411.85 411.85 0 0011.654-.406c2.557-.126 5.077-.086 7.62-.095.003 0 .007 0 .01-.002a.013.013 0 00.006-.005l.015-.047a.01.01 0 00-.005-.012.009.009 0 00-.005 0c-8.542-.184-16.195-.663-23.814-.68a.105.105 0 01-.105-.092c-.086-.63-.006-1.417-.004-1.875.061-19.04.074-38.114-.345-57.148-.013-.608.032-1.476.017-2.288-.141-7.56-.248-17.166-.321-28.818a.079.079 0 00-.023-.056.082.082 0 00-.057-.024c-.156-.006-.124 1.956-.122 2.171l.017 1.979z"/><path d="M72.889 82.696a36.8 36.8 0 00.217 5.868c0 .007.002.013.005.018a.026.026 0 00.011.01c.013.005.02.001.02-.01.409-11.735.735-23.416.6-35.161-.099-8.448-.386-20.074-.529-30.916a.107.107 0 00-.033-.078.107.107 0 00-.08-.03l-.087.006a.119.119 0 00-.081.038.126.126 0 00-.034.085c-.015 4.16-.07 8.32-.163 12.48-.35 15.313-.534 30.601.013 45.912.02.56.163 1.266.14 1.778zM65.648 39.46c.005.004-.095 1.89-.098 2.07-.33 13.975-.577 27.867.052 41.842.064 1.432.068 3.94.304 5.92.007.061.013.061.016 0 .154-2.53.238-5.061.254-7.594.002-.525.112-1.126.104-1.704-.017-1.263.052-2.46.085-3.698a520.096 520.096 0 00-.18-32.714c-.066-1.808-.133-6.278-.2-13.41a.098.098 0 00-.035-.073.092.092 0 00-.078-.018l-.046.01a.126.126 0 00-.102.124l-.102 9.191a.069.069 0 00.026.054zm10.706 16.907l-.01.004a.03.03 0 00-.017.01.027.027 0 00-.006.017c-.222 7.453-.441 14.128-.195 22.333.013.387.045.93.099 1.632.226 2.942.21 5.917.395 8.87.003.062.01.063.02.002.133-.879.216-1.761.248-2.648l.078-2.173c.575-9.992.38-19.134.006-29.475-.106-2.872-.082-5.742-.15-8.637a.133.133 0 00-.134-.13c-.094.002-.141.065-.143.191-.028 3.33-.088 6.66-.18 9.99a.016.016 0 01-.003.01.012.012 0 01-.008.004zM62.3 59.981c-.127 3.43-.171 6.807-.296 10.29a166.66 166.66 0 00.104 14.233c.05.979-.016 1.934.14 2.909.042.265-.027 1.047.085 1.216a.072.072 0 00.078.03.072.072 0 00.053-.065c.252-3.658.471-7.324.475-10.984a241.03 241.03 0 00-.247-11.148c-.092-2.062-.065-4.308-.155-6.466a.114.114 0 00-.03-.072.11.11 0 00-.069-.035c-.09-.01-.136.02-.139.092z"/><path d="M69.35 2.171c-.001-.215-.032-2.177.123-2.171.022 0 .042.01.057.024a.079.079 0 01.023.056c.073 11.652.18 21.258.32 28.818.016.813-.029 1.68-.016 2.288.42 19.034.406 38.109.345 57.148-.002.458-.082 1.245.004 1.875a.105.105 0 00.105.093c7.62.016 15.272.495 23.814.678l.005.001a.01.01 0 01.005.008.01.01 0 010 .004l-.015.047a.013.013 0 01-.007.005.026.026 0 01-.01.002c-2.542.01-5.062-.031-7.619.095-3.883.19-7.767.325-11.654.406-1.187.024-1.913.07-2.18.137-1.72.432-2.557 2.154-2.598 3.873-.087 3.813-.362 7.594-.603 11.395-.005.063-.01.063-.016 0-.099-.95-.04-2.008-.095-2.847a291.313 291.313 0 01-.447-8.755c-.052-1.452-.814-2.937-2.177-3.495-.433-.178-1.272-.28-2.52-.305-6.156-.12-12.61-.545-18.937-.506-.093.002-.134-.022-.224-.046-.045-.014-.044-.021.003-.022 7.764-.227 15.661-.605 23.603-.69a.124.124 0 00.122-.123c.043-5.395-.033-10.814-.03-16.232.012-23.265.42-46.519.637-69.782l-.018-1.98z"/><path d="M72.889 82.696c.022-.512-.12-1.218-.141-1.778-.547-15.311-.364-30.6-.013-45.912.094-4.16.148-8.32.163-12.48 0-.032.013-.062.034-.085a.119.119 0 01.081-.038l.087-.005a.108.108 0 01.113.107c.143 10.842.43 22.468.529 30.916.135 11.745-.191 23.426-.6 35.16 0 .012-.007.016-.02.011a.026.026 0 01-.01-.01.041.041 0 01-.006-.018 36.8 36.8 0 01-.217-5.868zM65.55 41.53c.003-.18.103-2.066.098-2.07a.068.068 0 01-.026-.054l.102-9.191a.126.126 0 01.102-.124l.046-.01a.092.092 0 01.104.05c.006.013.01.027.01.041.066 7.132.133 11.602.2 13.41.403 10.903.463 21.808.18 32.714-.034 1.237-.103 2.435-.086 3.698.008.578-.102 1.18-.104 1.704-.016 2.533-.1 5.064-.254 7.595-.003.06-.009.06-.016 0-.236-1.98-.24-4.49-.304-5.92-.629-13.976-.382-27.868-.052-41.844zm10.815 14.822c.092-3.329.152-6.658.18-9.989.002-.126.05-.19.143-.19a.133.133 0 01.134.13c.068 2.894.044 5.764.15 8.636.374 10.341.57 19.483-.006 29.475l-.078 2.173a23.235 23.235 0 01-.248 2.648c-.01.06-.017.06-.02-.002-.186-2.953-.17-5.928-.395-8.87a39.817 39.817 0 01-.099-1.632c-.246-8.205-.028-14.88.195-22.332 0-.007.002-.013.006-.018a.03.03 0 01.016-.01l.011-.004a.012.012 0 00.008-.005.016.016 0 00.004-.01zM62.3 59.981c.002-.072.048-.102.138-.093a.11.11 0 01.069.036c.018.02.029.045.03.072.09 2.158.063 4.404.155 6.466.168 3.713.25 7.43.247 11.147-.004 3.66-.223 7.327-.475 10.985a.072.072 0 01-.131.035c-.112-.169-.043-.95-.086-1.216-.155-.975-.089-1.93-.139-2.91a166.66 166.66 0 01-.104-14.233c.125-3.482.17-6.858.295-10.289zM72.853 81.084c0 1.267.13 5.711.279 5.934M2.028 129.64H4.38c.736 0 1.376-.188 1.92-.564a3.582 3.582 0 001.236-1.476c.28-.616.42-1.264.42-1.944a3.86 3.86 0 00-.456-1.872 3.262 3.262 0 00-1.26-1.332c-.536-.328-1.156-.492-1.86-.492H2.028l.192-.192v8.064l-.192-.192zm2.46-8.04c.872 0 1.648.18 2.328.54a3.907 3.907 0 011.608 1.488c.384.632.576 1.356.576 2.172 0 .768-.2 1.476-.6 2.124a4.247 4.247 0 01-1.62 1.524c-.688.368-1.452.552-2.292.552H1.14v-.048c.024-.096.04-.192.048-.288.008-.104.012-.228.012-.372v-6.984c0-.144-.004-.264-.012-.36a1.806 1.806 0 00-.048-.3v-.048h3.348zm10.791 0v.42h-.036a2.343 2.343 0 00-.264-.036 4.282 4.282 0 00-.348-.012 8.562 8.562 0 00-.492-.012h-2.748l.192-.192v2.532l-.144-.144h2.904v.36H11.44l.144-.144v5.46l-.192-.192h3.624c.144 0 .264-.004.36-.012.096-.016.196-.04.3-.072h.048V130h-5.22v-.048c.024-.096.04-.192.048-.288.008-.104.012-.228.012-.372v-6.984c0-.144-.004-.264-.012-.36a1.806 1.806 0 00-.048-.3v-.048h4.776zm2.927 0v.048a2.318 2.318 0 00-.072.3 4.465 4.465 0 00-.012.36v7.524l-.192-.192h2.784c.144 0 .264-.004.36-.012.096-.016.196-.04.3-.072h.048V130h-4.38v-.048c.024-.096.04-.192.048-.288.008-.104.012-.228.012-.372v-6.984c0-.144-.004-.264-.012-.36a1.806 1.806 0 00-.048-.3v-.048h1.164zm11.223 2.28h-.216a2.743 2.743 0 00-.6-1.188 2.742 2.742 0 00-1.032-.756 3.124 3.124 0 00-1.272-.264c-.6 0-1.176.152-1.728.456-.544.304-.988.764-1.332 1.38-.336.616-.504 1.364-.504 2.244 0 .904.16 1.664.48 2.28.328.608.752 1.06 1.272 1.356a3.384 3.384 0 001.68.444c.464 0 .904-.088 1.32-.264a3.078 3.078 0 001.092-.756 2.7 2.7 0 00.624-1.188h.216v1.188c-.424.424-.924.76-1.5 1.008a4.623 4.623 0 01-1.848.372 4.39 4.39 0 01-2.232-.588 4.428 4.428 0 01-1.596-1.62 4.39 4.39 0 01-.588-2.232c0-.808.196-1.552.588-2.232a4.336 4.336 0 011.596-1.608c.68-.4 1.424-.6 2.232-.6.656 0 1.272.124 1.848.372a4.758 4.758 0 011.5 1.008v1.188zm5.97 3.552v.36h-4.32v-.36h4.32zm-2.256-5.832c.16 0 .32-.02.48-.06.16-.04.308-.104.444-.192l2.616 7.392.252.696c.072.176.124.3.156.372l.072.144V130h-1.188v-.06a1.6 1.6 0 00-.012-.156 2.387 2.387 0 00-.084-.372c-.048-.168-.12-.392-.216-.672l-2.412-6.888h.192l-2.664 6.876c-.104.28-.184.504-.24.672a2.546 2.546 0 00-.084.36.58.58 0 000 .168V130h-.612v-.048c.016-.032.04-.084.072-.156l.156-.36c.08-.176.176-.408.288-.696l2.784-7.14zm8.78 1.188h-.216a1.483 1.483 0 00-.348-.576 1.258 1.258 0 00-.516-.348 1.575 1.575 0 00-.612-.12c-.36 0-.656.1-.888.3-.232.2-.348.484-.348.852 0 .256.06.524.18.804.12.272.292.528.516.768l1.632 1.764c.328.36.576.72.744 1.08.168.352.252.688.252 1.008 0 .352-.092.668-.276.948a1.89 1.89 0 01-.792.648c-.336.152-.736.228-1.2.228-.36 0-.72-.052-1.08-.156a2.837 2.837 0 01-.936-.456l-.036-1.116h.216c.088.296.228.548.42.756.192.2.412.352.66.456.248.104.5.156.756.156.392 0 .708-.108.948-.324.24-.224.36-.528.36-.912 0-.248-.064-.508-.192-.78a2.943 2.943 0 00-.564-.816l-1.632-1.764a3.986 3.986 0 01-.708-1.02 2.436 2.436 0 01-.24-1.008c0-.512.188-.936.564-1.272.384-.336.9-.504 1.548-.504a5.19 5.19 0 011.74.288l.048 1.116zm6.88-1.188v.444h-.048a1.803 1.803 0 00-.288-.048 1.934 1.934 0 00-.336-.024 7.685 7.685 0 00-.468-.012h-1.296l.192-.192v7.5c.008.144.012.26.012.348.008.088.02.172.036.252l.012.084V130h-1.14v-.048l.012-.084c.016-.08.024-.164.024-.252.008-.088.012-.204.012-.348.008-.144.012-.32.012-.528v-6.972l.192.192h-1.296a8.31 8.31 0 00-.48.012c-.128 0-.24.008-.336.024-.088.008-.18.024-.276.048h-.048v-.444h5.508zm2.532 0v.048l-.048.3a4.465 4.465 0 00-.012.36v6.984c0 .144.004.268.012.372l.048.288V130h-1.14v-.048c.024-.096.04-.192.048-.288.008-.104.012-.228.012-.372v-6.984c0-.144-.004-.264-.012-.36a1.806 1.806 0 00-.048-.3v-.048h1.14zm3.446 0v.048a2.318 2.318 0 00-.072.3 4.465 4.465 0 00-.012.36v7.524l-.192-.192h2.784c.144 0 .264-.004.36-.012.096-.016.196-.04.3-.072h.048V130h-4.38v-.048c.024-.096.04-.192.048-.288.008-.104.012-.228.012-.372v-6.984c0-.144-.004-.264-.012-.36a1.806 1.806 0 00-.048-.3v-.048h1.164zm5.402 0v.048a2.318 2.318 0 00-.072.3 4.465 4.465 0 00-.012.36v7.524l-.192-.192h2.783c.144 0 .264-.004.36-.012.096-.016.196-.04.3-.072h.048V130h-4.38v-.048c.024-.096.04-.192.048-.288.008-.104.012-.228.012-.372v-6.984c0-.144-.004-.264-.012-.36a1.806 1.806 0 00-.048-.3v-.048h1.164zm7.898 8.592a4.39 4.39 0 01-2.232-.588c-.68-.4-1.22-.94-1.62-1.62a4.39 4.39 0 01-.588-2.232c0-.808.196-1.552.588-2.232a4.4 4.4 0 011.62-1.608c.68-.4 1.424-.6 2.232-.6.808 0 1.552.2 2.232.6.68.392 1.216.928 1.608 1.608.4.68.6 1.424.6 2.232 0 .808-.2 1.552-.6 2.232a4.4 4.4 0 01-1.608 1.62 4.39 4.39 0 01-2.232.588zm-.156-.36c.664 0 1.264-.18 1.8-.54.536-.368.956-.86 1.26-1.476a4.65 4.65 0 00.456-2.064c0-.752-.14-1.44-.42-2.064-.272-.624-.656-1.116-1.152-1.476a2.72 2.72 0 00-1.656-.54c-.664 0-1.264.18-1.8.54-.528.36-.944.852-1.248 1.476a4.754 4.754 0 00-.444 2.064c0 .752.136 1.44.408 2.064.28.616.664 1.108 1.152 1.476.488.36 1.036.54 1.644.54zM81.01 121.6c.656 0 1.22.084 1.692.252.472.16.832.388 1.08.684.248.296.372.644.372 1.044 0 .392-.116.724-.348.996-.232.272-.572.48-1.02.624-.44.144-.972.216-1.596.216h-.252l.552-.192 1.812 2.748c.4.608.736 1.06 1.008 1.356.28.288.504.46.672.516l-.012.18c-.504.096-.944.012-1.32-.252-.376-.264-.74-.652-1.092-1.164l-.048-.084-2.16-3.24.084-.156h.252c.768 0 1.364-.14 1.788-.42.424-.288.636-.684.636-1.188 0-.344-.096-.632-.288-.864-.184-.232-.46-.404-.828-.516-.36-.12-.804-.18-1.332-.18h-1.56l.192-.192v7.524c0 .144.004.264.012.36.016.096.04.196.072.3V130h-1.164v-.048c.016-.096.028-.192.036-.288.016-.104.024-.228.024-.372v-6.984c0-.144-.008-.264-.024-.36a3.421 3.421 0 00-.036-.3v-.048h2.796zm10.008 0v.42h-.036a2.343 2.343 0 00-.264-.036 4.282 4.282 0 00-.348-.012 8.562 8.562 0 00-.492-.012H87.13l.192-.192v2.532l-.144-.144h2.904v.36h-2.904l.144-.144v5.46l-.192-.192h3.624c.144 0 .264-.004.36-.012.096-.016.196-.04.3-.072h.048V130h-5.22v-.048c.024-.096.04-.192.048-.288.008-.104.012-.228.012-.372v-6.984c0-.144-.004-.264-.012-.36a1.806 1.806 0 00-.048-.3v-.048h4.776zm5.401 5.832v.36h-4.32v-.36h4.32zm-2.256-5.832c.16 0 .32-.02.48-.06.16-.04.308-.104.444-.192l2.616 7.392.252.696c.072.176.124.3.156.372l.072.144V130h-1.188v-.06a1.6 1.6 0 00-.012-.156 2.387 2.387 0 00-.084-.372c-.048-.168-.12-.392-.216-.672l-2.412-6.888h.192l-2.664 6.876c-.104.28-.184.504-.24.672a2.546 2.546 0 00-.084.36.58.58 0 000 .168V130h-.612v-.048c.016-.032.04-.084.072-.156l.156-.36c.08-.176.176-.408.288-.696l2.784-7.14zm6.379 0v.048a2.318 2.318 0 00-.072.3 4.465 4.465 0 00-.012.36v7.524l-.192-.192h2.784c.144 0 .264-.004.36-.012.096-.016.196-.04.3-.072h.048V130h-4.38v-.048c.024-.096.04-.192.048-.288.008-.104.012-.228.012-.372v-6.984c0-.144-.004-.264-.012-.36a1.806 1.806 0 00-.048-.3v-.048h1.164zm11.998 1.188h-.216a1.483 1.483 0 00-.348-.576 1.258 1.258 0 00-.516-.348 1.575 1.575 0 00-.612-.12c-.36 0-.656.1-.888.3-.232.2-.348.484-.348.852 0 .256.06.524.18.804.12.272.292.528.516.768l1.632 1.764c.328.36.576.72.744 1.08.168.352.252.688.252 1.008 0 .352-.092.668-.276.948a1.89 1.89 0 01-.792.648c-.336.152-.736.228-1.2.228-.36 0-.72-.052-1.08-.156a2.837 2.837 0 01-.936-.456l-.036-1.116h.216c.088.296.228.548.42.756.192.2.412.352.66.456.248.104.5.156.756.156.392 0 .708-.108.948-.324.24-.224.36-.528.36-.912 0-.248-.064-.508-.192-.78a2.943 2.943 0 00-.564-.816l-1.632-1.764a3.986 3.986 0 01-.708-1.02 2.436 2.436 0 01-.24-1.008c0-.512.188-.936.564-1.272.384-.336.9-.504 1.548-.504a5.19 5.19 0 011.74.288l.048 1.116zm6.88-1.188v.444h-.048a1.803 1.803 0 00-.288-.048 1.934 1.934 0 00-.336-.024 7.685 7.685 0 00-.468-.012h-1.296l.192-.192v7.5c.008.144.012.26.012.348.008.088.02.172.036.252l.012.084V130h-1.14v-.048l.012-.084c.016-.08.024-.164.024-.252.008-.088.012-.204.012-.348.008-.144.012-.32.012-.528v-6.972l.192.192h-1.296a8.31 8.31 0 00-.48.012c-.128 0-.24.008-.336.024-.088.008-.18.024-.276.048h-.048v-.444h5.508zm5.265 5.832v.36h-4.32v-.36h4.32zm-2.256-5.832c.16 0 .32-.02.48-.06.16-.04.308-.104.444-.192l2.616 7.392.252.696c.072.176.124.3.156.372l.072.144V130h-1.188v-.06a1.6 1.6 0 00-.012-.156 2.387 2.387 0 00-.084-.372c-.048-.168-.12-.392-.216-.672l-2.412-6.888h.192l-2.664 6.876c-.104.28-.184.504-.24.672a2.546 2.546 0 00-.084.36.58.58 0 000 .168V130h-.612v-.048c.016-.032.04-.084.072-.156l.156-.36c.08-.176.176-.408.288-.696l2.784-7.14zm9.46 0v.444h-.048a1.803 1.803 0 00-.288-.048 1.934 1.934 0 00-.336-.024 7.685 7.685 0 00-.468-.012h-1.296l.192-.192v7.5c.008.144.012.26.012.348.008.088.02.172.036.252l.012.084V130h-1.14v-.048l.012-.084c.016-.08.024-.164.024-.252.008-.088.012-.204.012-.348.008-.144.012-.32.012-.528v-6.972l.192.192h-1.296a8.31 8.31 0 00-.48.012c-.128 0-.24.008-.336.024-.088.008-.18.024-.276.048h-.048v-.444h5.508zm6.168 0v.42h-.036a2.343 2.343 0 00-.264-.036 4.282 4.282 0 00-.348-.012 8.562 8.562 0 00-.492-.012h-2.748l.192-.192v2.532l-.144-.144h2.904v.36h-2.904l.144-.144v5.46l-.192-.192h3.624c.144 0 .264-.004.36-.012.096-.016.196-.04.3-.072h.048V130h-5.22v-.048c.024-.096.04-.192.048-.288.008-.104.012-.228.012-.372v-6.984c0-.144-.004-.264-.012-.36a1.806 1.806 0 00-.048-.3v-.048h4.776z"/></svg><svg viewBox="0 0 232 320" id="logofooter" xmlns="http://www.w3.org/2000/svg"><path d="M114.974 11.552c-.569 61.076-1.64 122.127-1.669 183.207-.01 14.225.19 28.449.078 42.615a.33.33 0 01-.322.322c-20.85.224-41.583 1.217-61.966 1.811-.123.003-.127.022-.01.058.239.063.346.127.59.122 16.61-.102 33.555 1.012 49.717 1.329 3.275.065 5.48.331 6.616.798 3.578 1.465 5.579 5.365 5.715 9.177.276 7.668.667 15.331 1.174 22.987.146 2.2-.01 4.98.248 7.472.016.166.031.166.044 0 .633-9.979 1.353-19.905 1.582-29.914.107-4.513 2.307-9.035 6.82-10.17.701-.175 2.609-.295 5.725-.36 10.204-.211 20.402-.566 30.596-1.066 6.713-.331 13.329-.224 20.003-.248a.06.06 0 00.027-.006.03.03 0 00.017-.014l.039-.122c.002-.003.002-.008.002-.012a.03.03 0 00-.005-.012.016.016 0 00-.009-.007.027.027 0 00-.012-.003c-22.428-.482-42.519-1.738-62.522-1.781a.28.28 0 01-.277-.244c-.224-1.655-.015-3.719-.01-4.921.161-49.986.195-100.065-.905-150.036-.034-1.597.082-3.875.043-6.007-.37-19.849-.65-45.07-.842-75.66A.207.207 0 00115.4.72a.216.216 0 00-.148-.063c-.409-.014-.326 5.136-.321 5.7l.043 5.195z"/><path d="M124.219 217.765a96.603 96.603 0 00.57 15.407.095.095 0 00.014.045.067.067 0 00.03.028c.032.013.05.004.053-.029 1.071-30.805 1.928-61.474 1.573-92.309-.258-22.179-1.013-52.702-1.388-81.166a.285.285 0 00-.184-.266.285.285 0 00-.113-.017l-.229.015a.31.31 0 00-.212.099.327.327 0 00-.089.222 1720.801 1720.801 0 01-.429 32.768c-.92 40.201-1.402 80.338.034 120.534.054 1.47.429 3.325.37 4.669zm-19.01-113.511c.015.01-.248 4.96-.258 5.433-.867 36.691-1.514 73.163.136 109.854.171 3.758.18 10.344.799 15.543.019.16.034.16.043 0a367.54 367.54 0 00.667-19.939c.005-1.378.292-2.955.273-4.474-.044-3.315.136-6.46.224-9.707.743-28.634.586-57.264-.472-85.888-.176-4.748-.351-16.484-.526-35.207a.26.26 0 00-.093-.19.24.24 0 00-.204-.048l-.122.024a.331.331 0 00-.267.326l-.268 24.132a.18.18 0 00.068.141zm28.109 44.391l-.03.01a.07.07 0 00-.042.027.07.07 0 00-.016.046c-.584 19.565-1.159 37.09-.511 58.631.032 1.016.118 2.444.258 4.284.594 7.726.55 15.534 1.037 23.289.009.163.027.164.053.005.351-2.307.568-4.625.653-6.952.133-3.78.201-5.682.204-5.705 1.509-26.234.998-50.234.015-77.384-.278-7.54-.215-15.076-.395-22.675a.348.348 0 00-.35-.341c-.247.003-.372.17-.375.501-.075 8.743-.232 17.485-.472 26.225a.047.047 0 01-.008.026.034.034 0 01-.021.013zm-36.901 9.486c-.33 9.006-.448 17.871-.774 27.013a437.529 437.529 0 00.273 37.368c.131 2.57-.044 5.077.365 7.638.112.696-.068 2.75.224 3.193a.19.19 0 00.346-.092c.662-9.605 1.236-19.229 1.246-28.839.01-9.762-.206-19.518-.648-29.267-.243-5.413-.17-11.309-.409-16.975a.292.292 0 00-.258-.282c-.236-.026-.358.055-.365.243z"/><path d="M114.931 6.358c-.005-.565-.088-5.715.321-5.7a.216.216 0 01.148.062.21.21 0 01.061.147c.192 30.59.472 55.811.842 75.66.039 2.132-.077 4.41-.043 6.007 1.1 49.971 1.066 100.05.905 150.036-.005 1.202-.214 3.266.01 4.921a.276.276 0 00.277.244c20.003.043 40.094 1.299 62.522 1.781l.012.003a.016.016 0 01.009.007.03.03 0 01.005.012c0 .004 0 .009-.002.012l-.039.122a.03.03 0 01-.017.014.06.06 0 01-.027.006c-6.674.024-13.29-.083-20.003.248-10.194.5-20.392.855-30.596 1.066-3.116.065-5.024.185-5.725.36-4.513 1.135-6.713 5.657-6.82 10.17-.229 10.009-.949 19.935-1.582 29.914-.013.166-.028.166-.044 0-.258-2.492-.102-5.272-.248-7.472a763.488 763.488 0 01-1.174-22.987c-.136-3.812-2.137-7.712-5.715-9.177-1.136-.467-3.341-.733-6.616-.798-16.162-.317-33.108-1.431-49.718-1.329-.243.005-.35-.059-.589-.122-.117-.036-.113-.055.01-.058 20.383-.594 41.116-1.587 61.966-1.811a.33.33 0 00.322-.322c.112-14.166-.088-28.39-.078-42.615.029-61.08 1.1-122.131 1.669-183.207l-.043-5.194z"/><path d="M124.219 217.765c.059-1.344-.316-3.199-.37-4.669-1.436-40.196-.954-80.333-.034-120.534.247-10.921.39-21.844.429-32.768a.327.327 0 01.089-.222.31.31 0 01.212-.099l.229-.015a.285.285 0 01.209.078.28.28 0 01.088.205c.375 28.464 1.13 58.987 1.388 81.166.355 30.835-.502 61.504-1.573 92.309-.003.033-.021.042-.053.029a.067.067 0 01-.03-.028.095.095 0 01-.014-.045 96.603 96.603 0 01-.57-15.407zm-19.268-108.078c.01-.473.273-5.423.258-5.433a.18.18 0 01-.068-.141l.268-24.132a.331.331 0 01.267-.326l.122-.024a.24.24 0 01.271.132.26.26 0 01.026.106c.175 18.723.35 30.459.526 35.207a1365.664 1365.664 0 01.472 85.888c-.088 3.247-.268 6.392-.224 9.707.019 1.519-.268 3.096-.273 4.474a367.54 367.54 0 01-.667 19.939c-.009.16-.024.16-.043 0-.619-5.199-.628-11.785-.799-15.543-1.65-36.691-1.003-73.163-.136-109.854zm28.396 38.919c.24-8.74.397-17.482.472-26.225.003-.331.128-.498.375-.501a.348.348 0 01.35.341c.18 7.599.117 15.135.395 22.675.983 27.15 1.494 51.15-.015 77.384-.003.023-.071 1.925-.204 5.705a60.987 60.987 0 01-.653 6.952c-.026.159-.044.158-.053-.005-.487-7.755-.443-15.563-1.037-23.289-.14-1.84-.226-3.268-.258-4.284-.648-21.541-.073-39.066.511-58.631a.07.07 0 01.016-.046.07.07 0 01.042-.027l.03-.01a.034.034 0 00.021-.013.047.047 0 00.008-.026zm-36.93 9.525c.007-.188.129-.269.365-.243a.292.292 0 01.258.282c.239 5.666.166 11.562.41 16.975.44 9.749.656 19.505.647 29.267-.01 9.61-.584 19.234-1.246 28.839a.188.188 0 01-.14.168.19.19 0 01-.206-.076c-.292-.443-.112-2.497-.224-3.193-.409-2.561-.234-5.068-.365-7.638a437.529 437.529 0 01-.273-37.368c.326-9.142.443-18.007.774-27.013zM124.126 213.535c0 3.327.341 14.994.731 15.578M3.38 313.4H7.3c1.227 0 2.293-.313 3.2-.94a5.974 5.974 0 002.06-2.46c.467-1.027.7-2.107.7-3.24 0-1.147-.253-2.187-.76-3.12a5.432 5.432 0 00-2.1-2.22c-.893-.547-1.927-.82-3.1-.82H3.38l.32-.32v13.44l-.32-.32zm4.1-13.4c1.453 0 2.747.3 3.88.9 1.147.587 2.04 1.413 2.68 2.48.64 1.053.96 2.26.96 3.62 0 1.28-.333 2.46-1 3.54-.653 1.067-1.553 1.913-2.7 2.54-1.147.613-2.42.92-3.82.92H1.9v-.08c.04-.16.067-.32.08-.48.013-.173.02-.38.02-.62v-11.64a7.6 7.6 0 00-.02-.6 3.015 3.015 0 00-.08-.5V300h5.58zm17.985 0v.7h-.06a3.76 3.76 0 00-.44-.06 7.293 7.293 0 00-.58-.02c-.226-.013-.5-.02-.82-.02h-4.58l.32-.32v4.22l-.24-.24h4.84v.6h-4.84l.24-.24v9.1l-.32-.32h6.04c.24 0 .44-.007.6-.02a3.98 3.98 0 00.5-.12h.08v.74h-8.7v-.08c.04-.16.067-.32.08-.48.014-.173.02-.38.02-.62v-11.64c0-.24-.006-.44-.02-.6a3.023 3.023 0 00-.08-.5V300h7.96zm4.879 0v.08c-.053.173-.093.34-.12.5a7.6 7.6 0 00-.02.6v12.54l-.32-.32h4.64c.24 0 .44-.007.6-.02.16-.027.327-.067.5-.12h.08v.74h-7.3v-.08c.04-.16.067-.32.08-.48.013-.173.02-.38.02-.62v-11.64a7.6 7.6 0 00-.02-.6 3.012 3.012 0 00-.08-.5V300h1.94zm18.704 3.8h-.36c-.187-.773-.52-1.433-1-1.98a4.57 4.57 0 00-1.72-1.26 5.211 5.211 0 00-2.12-.44c-1 0-1.96.253-2.88.76-.907.507-1.647 1.273-2.22 2.3-.56 1.027-.84 2.273-.84 3.74 0 1.507.267 2.773.8 3.8.547 1.013 1.253 1.767 2.12 2.26.88.493 1.813.74 2.8.74.773 0 1.507-.147 2.2-.44a5.122 5.122 0 001.82-1.26c.506-.56.853-1.22 1.04-1.98h.36v1.98a7.92 7.92 0 01-2.5 1.68 7.71 7.71 0 01-3.08.62 7.32 7.32 0 01-3.72-.98 7.384 7.384 0 01-2.66-2.7 7.316 7.316 0 01-.98-3.72 7.32 7.32 0 01.98-3.72 7.226 7.226 0 012.66-2.68 7.202 7.202 0 013.72-1 7.71 7.71 0 013.08.62 7.92 7.92 0 012.5 1.68v1.98zm9.951 5.92v.6h-7.2v-.6H59zM55.24 300c.267 0 .533-.033.8-.1s.513-.173.74-.32l4.36 12.32.42 1.16c.12.293.207.5.26.62l.12.24v.08h-1.98v-.1c0-.053-.007-.14-.02-.26a3.995 3.995 0 00-.14-.62c-.08-.28-.2-.653-.36-1.12l-4.02-11.48h.32l-4.44 11.46c-.173.467-.307.84-.4 1.12-.08.28-.127.48-.14.6a.96.96 0 000 .28v.12h-1.02v-.08a5.9 5.9 0 00.12-.26c.053-.12.14-.32.26-.6.133-.293.293-.68.48-1.16l4.64-11.9zm14.632 1.98h-.36a2.468 2.468 0 00-.58-.96 2.093 2.093 0 00-.86-.58c-.32-.133-.66-.2-1.02-.2-.6 0-1.093.167-1.48.5-.386.333-.58.807-.58 1.42 0 .427.1.873.3 1.34.2.453.487.88.86 1.28l2.72 2.94c.547.6.96 1.2 1.24 1.8.28.587.42 1.147.42 1.68a2.81 2.81 0 01-.46 1.58c-.306.453-.746.813-1.32 1.08-.56.253-1.226.38-2 .38-.6 0-1.2-.087-1.8-.26a4.728 4.728 0 01-1.56-.76l-.06-1.86h.36c.147.493.38.913.7 1.26.32.333.687.587 1.1.76.414.173.834.26 1.26.26.654 0 1.18-.18 1.58-.54.4-.373.6-.88.6-1.52 0-.413-.106-.847-.32-1.3-.2-.453-.513-.907-.94-1.36l-2.72-2.94c-.52-.56-.913-1.127-1.18-1.7-.266-.587-.4-1.147-.4-1.68 0-.853.314-1.56.94-2.12.64-.56 1.5-.84 2.58-.84a8.65 8.65 0 012.9.48l.08 1.86zM81.338 300v.74h-.08c-.16-.04-.32-.067-.48-.08a3.191 3.191 0 00-.56-.04c-.214-.013-.474-.02-.78-.02h-2.16l.32-.32v12.5c.013.24.02.433.02.58.013.147.033.287.06.42l.02.14v.08h-1.9v-.08l.02-.14a2.13 2.13 0 00.04-.42c.013-.147.02-.34.02-.58.013-.24.02-.533.02-.88v-11.62l.32.32h-2.16c-.307 0-.574.007-.8.02-.213 0-.4.013-.56.04-.147.013-.3.04-.46.08h-.08V300h9.18zm4.22 0v.08c-.027.16-.054.327-.08.5a7.6 7.6 0 00-.02.6v11.64c0 .24.007.447.02.62l.08.48v.08h-1.9v-.08c.04-.16.067-.32.08-.48.013-.173.02-.38.02-.62v-11.64a7.6 7.6 0 00-.02-.6 3.012 3.012 0 00-.08-.5V300h1.9zm5.743 0v.08c-.053.173-.093.34-.12.5a7.6 7.6 0 00-.02.6v12.54l-.32-.32h4.639c.24 0 .44-.007.6-.02.16-.027.327-.067.5-.12h.08v.74h-7.3v-.08c.04-.16.067-.32.08-.48.013-.173.02-.38.02-.62v-11.64a7.6 7.6 0 00-.02-.6 3.012 3.012 0 00-.08-.5V300h1.94zm9.004 0v.08c-.053.173-.093.34-.12.5a7.6 7.6 0 00-.02.6v12.54l-.32-.32h4.64c.24 0 .44-.007.6-.02.16-.027.327-.067.5-.12h.08v.74h-7.3v-.08c.04-.16.067-.32.08-.48.013-.173.02-.38.02-.62v-11.64a7.6 7.6 0 00-.02-.6 3.012 3.012 0 00-.08-.5V300h1.94zm13.164 14.32a7.32 7.32 0 01-3.72-.98 7.483 7.483 0 01-2.7-2.7 7.31 7.31 0 01-.98-3.72 7.31 7.31 0 01.98-3.72 7.322 7.322 0 012.7-2.68 7.2 7.2 0 013.72-1c1.346 0 2.586.333 3.72 1a7.188 7.188 0 012.68 2.68 7.21 7.21 0 011 3.72 7.21 7.21 0 01-1 3.72 7.344 7.344 0 01-2.68 2.7 7.325 7.325 0 01-3.72.98zm-.26-.6c1.106 0 2.106-.3 3-.9.893-.613 1.593-1.433 2.1-2.46.506-1.04.76-2.187.76-3.44 0-1.253-.234-2.4-.7-3.44-.454-1.04-1.094-1.86-1.92-2.46-.814-.6-1.734-.9-2.76-.9-1.107 0-2.107.3-3 .9-.88.6-1.574 1.42-2.08 2.46-.494 1.04-.74 2.187-.74 3.44 0 1.253.226 2.4.68 3.44.466 1.027 1.106 1.847 1.92 2.46a4.5 4.5 0 002.74.9zM135.017 300c1.093 0 2.033.14 2.82.42.787.267 1.387.647 1.8 1.14.413.493.62 1.073.62 1.74 0 .653-.193 1.207-.58 1.66-.387.453-.953.8-1.7 1.04-.733.24-1.62.36-2.66.36h-.42l.92-.32 3.02 4.58c.667 1.013 1.227 1.767 1.68 2.26.467.48.84.767 1.12.86l-.02.3c-.84.16-1.573.02-2.2-.42-.627-.44-1.233-1.087-1.82-1.94l-.08-.14-3.6-5.4.14-.26h.42c1.28 0 2.273-.233 2.98-.7.707-.48 1.06-1.14 1.06-1.98 0-.573-.16-1.053-.48-1.44-.307-.387-.767-.673-1.38-.86-.6-.2-1.34-.3-2.22-.3h-2.6l.32-.32v12.54c0 .24.007.44.02.6.027.16.067.327.12.5v.08h-1.94v-.08c.027-.16.047-.32.06-.48.027-.173.04-.38.04-.62v-11.64c0-.24-.013-.44-.04-.6a5.473 5.473 0 00-.06-.5V300h4.66zm16.679 0v.7h-.06a3.749 3.749 0 00-.44-.06 7.286 7.286 0 00-.58-.02c-.227-.013-.5-.02-.82-.02h-4.58l.32-.32v4.22l-.24-.24h4.84v.6h-4.84l.24-.24v9.1l-.32-.32h6.04c.24 0 .44-.007.6-.02.16-.027.327-.067.5-.12h.08v.74h-8.7v-.08c.04-.16.067-.32.08-.48.013-.173.02-.38.02-.62v-11.64a7.6 7.6 0 00-.02-.6 2.981 2.981 0 00-.08-.5V300h7.96zm9.002 9.72v.6h-7.2v-.6h7.2zm-3.76-9.72c.267 0 .534-.033.8-.1.267-.067.514-.173.74-.32l4.36 12.32.42 1.16c.12.293.207.5.26.62l.12.24v.08h-1.98v-.1c0-.053-.006-.14-.02-.26a3.948 3.948 0 00-.14-.62c-.08-.28-.2-.653-.36-1.12l-4.02-11.48h.32l-4.44 11.46c-.173.467-.306.84-.4 1.12-.08.28-.126.48-.14.6a.99.99 0 000 .28v.12h-1.02v-.08a5.9 5.9 0 00.12-.26c.054-.12.14-.32.26-.6.134-.293.294-.68.48-1.16l4.64-11.9zm10.632 0v.08c-.053.173-.093.34-.12.5a7.6 7.6 0 00-.02.6v12.54l-.32-.32h4.64c.24 0 .44-.007.6-.02.16-.027.327-.067.5-.12h.08v.74h-7.3v-.08c.04-.16.067-.32.08-.48.014-.173.02-.38.02-.62v-11.64c0-.24-.006-.44-.02-.6a2.981 2.981 0 00-.08-.5V300h1.94zm19.997 1.98h-.36a2.48 2.48 0 00-.58-.96 2.095 2.095 0 00-.86-.58c-.32-.133-.66-.2-1.02-.2-.6 0-1.094.167-1.48.5-.387.333-.58.807-.58 1.42 0 .427.1.873.3 1.34.2.453.486.88.86 1.28l2.72 2.94c.546.6.96 1.2 1.24 1.8.28.587.42 1.147.42 1.68 0 .587-.154 1.113-.46 1.58-.307.453-.747.813-1.32 1.08-.56.253-1.227.38-2 .38-.6 0-1.2-.087-1.8-.26a4.728 4.728 0 01-1.56-.76l-.06-1.86h.36c.146.493.38.913.7 1.26.32.333.686.587 1.1.76.413.173.833.26 1.26.26.653 0 1.18-.18 1.58-.54.4-.373.6-.88.6-1.52 0-.413-.107-.847-.32-1.3-.2-.453-.514-.907-.94-1.36l-2.72-2.94c-.52-.56-.914-1.127-1.18-1.7-.267-.587-.4-1.147-.4-1.68 0-.853.313-1.56.94-2.12.64-.56 1.5-.84 2.58-.84 1.026 0 1.993.16 2.9.48l.08 1.86zm11.466-1.98v.74h-.08c-.16-.04-.32-.067-.48-.08a3.191 3.191 0 00-.56-.04 13.07 13.07 0 00-.78-.02h-2.16l.32-.32v12.5c.013.24.02.433.02.58.013.147.033.287.06.42l.02.14v.08h-1.9v-.08l.02-.14c.027-.133.04-.273.04-.42.013-.147.02-.34.02-.58.013-.24.02-.533.02-.88v-11.62l.32.32h-2.16c-.307 0-.573.007-.8.02-.213 0-.4.013-.56.04-.147.013-.3.04-.46.08h-.08V300h9.18zm8.775 9.72v.6h-7.2v-.6h7.2zm-3.76-9.72c.266 0 .533-.033.8-.1.266-.067.513-.173.74-.32l4.36 12.32.42 1.16c.12.293.206.5.26.62l.12.24v.08h-1.98v-.1c0-.053-.007-.14-.02-.26a4.069 4.069 0 00-.14-.62c-.08-.28-.2-.653-.36-1.12l-4.02-11.48h.32l-4.44 11.46c-.174.467-.307.84-.4 1.12-.08.28-.127.48-.14.6a.92.92 0 000 .28v.12h-1.02v-.08c.026-.053.066-.14.12-.26.053-.12.14-.32.26-.6.133-.293.293-.68.48-1.16l4.64-11.9zm15.766 0v.74h-.08c-.16-.04-.32-.067-.48-.08a3.183 3.183 0 00-.56-.04 13.07 13.07 0 00-.78-.02h-2.16l.32-.32v12.5c.014.24.02.433.02.58.014.147.034.287.06.42l.02.14v.08h-1.9v-.08l.02-.14c.027-.133.04-.273.04-.42.014-.147.02-.34.02-.58.014-.24.02-.533.02-.88v-11.62l.32.32h-2.16c-.306 0-.573.007-.8.02-.213 0-.4.013-.56.04-.146.013-.3.04-.46.08h-.08V300h9.18zm10.28 0v.7h-.06a3.749 3.749 0 00-.44-.06 7.286 7.286 0 00-.58-.02c-.226-.013-.5-.02-.82-.02h-4.58l.32-.32v4.22l-.24-.24h4.84v.6h-4.84l.24-.24v9.1l-.32-.32h6.04c.24 0 .44-.007.6-.02.16-.027.327-.067.5-.12h.08v.74h-8.7v-.08c.04-.16.067-.32.08-.48.014-.173.02-.38.02-.62v-11.64c0-.24-.006-.44-.02-.6a2.981 2.981 0 00-.08-.5V300h7.96z"/></svg><svg viewBox="0 0 100 87" id="play" xmlns="http://www.w3.org/2000/svg"><path d="M31.504.316l38.625 22.3c1.557.9 1.557 3.147 0 4.046l-38.625 22.3c-1.557.9-3.504-.225-3.504-2.023V2.34C28 .541 29.946-.583 31.504.316zM8.124 76.88h-.216a2.743 2.743 0 00-.6-1.188 2.742 2.742 0 00-1.032-.756 3.124 3.124 0 00-1.272-.264c-.6 0-1.176.152-1.728.456-.544.304-.988.764-1.332 1.38-.336.616-.504 1.364-.504 2.244 0 .904.16 1.664.48 2.28.328.608.752 1.06 1.272 1.356a3.384 3.384 0 001.68.444c.464 0 .904-.088 1.32-.264a3.078 3.078 0 001.092-.756 2.7 2.7 0 00.624-1.188h.216v1.188c-.424.424-.924.76-1.5 1.008a4.623 4.623 0 01-1.848.372 4.39 4.39 0 01-2.232-.588 4.428 4.428 0 01-1.596-1.62 4.39 4.39 0 01-.588-2.232c0-.808.196-1.552.588-2.232a4.336 4.336 0 011.596-1.608c.68-.4 1.424-.6 2.232-.6.656 0 1.272.124 1.848.372a4.758 4.758 0 011.5 1.008v1.188zm2.899-2.28v.048a2.318 2.318 0 00-.072.3 4.465 4.465 0 00-.012.36v7.524l-.192-.192h2.783c.144 0 .264-.004.36-.012.096-.016.196-.04.3-.072h.048V83h-4.38v-.048c.024-.096.04-.192.048-.288.008-.104.012-.228.012-.372v-6.984c0-.144-.004-.264-.012-.36a1.806 1.806 0 00-.048-.3V74.6h1.164zm5.378 0v.048l-.048.3a4.465 4.465 0 00-.012.36v6.984c0 .144.004.268.012.372l.048.288V83h-1.14v-.048c.024-.096.04-.192.048-.288.008-.104.012-.228.012-.372v-6.984c0-.144-.004-.264-.012-.36a1.806 1.806 0 00-.048-.3V74.6h1.14zm9.266 2.28h-.216a2.743 2.743 0 00-.6-1.188 2.742 2.742 0 00-1.032-.756 3.124 3.124 0 00-1.272-.264c-.6 0-1.176.152-1.728.456-.544.304-.988.764-1.332 1.38-.336.616-.504 1.364-.504 2.244 0 .904.16 1.664.48 2.28.328.608.752 1.06 1.272 1.356a3.384 3.384 0 001.68.444c.464 0 .904-.088 1.32-.264a3.078 3.078 0 001.092-.756 2.7 2.7 0 00.624-1.188h.216v1.188c-.424.424-.924.76-1.5 1.008a4.623 4.623 0 01-1.848.372 4.39 4.39 0 01-2.232-.588 4.428 4.428 0 01-1.596-1.62 4.39 4.39 0 01-.588-2.232c0-.808.196-1.552.588-2.232a4.336 4.336 0 011.596-1.608c.68-.4 1.424-.6 2.232-.6.656 0 1.272.124 1.848.372a4.758 4.758 0 011.5 1.008v1.188zm2.899-2.28v.048a2.318 2.318 0 00-.072.3 4.465 4.465 0 00-.012.36V78.5h-.228l2.82-2.64c.232-.208.428-.392.588-.552.168-.168.292-.3.372-.396.088-.104.148-.192.18-.264l.024-.048h.684v.036c-.096.064-.192.14-.288.228-.096.08-.208.18-.336.3l-.444.42-.288.276-1.32 1.248v-.216l2.352 3.996c.36.616.668 1.08.924 1.392.264.304.48.492.648.564l-.012.18c-.368.048-.696.004-.984-.132a2.445 2.445 0 01-.756-.588 6.698 6.698 0 01-.636-.912L29.49 77.54h.276l-1.416 1.32.132-.264v3.696c0 .144.004.264.012.36.016.096.04.196.072.3V83h-1.164v-.048c.016-.096.028-.192.036-.288.016-.104.024-.228.024-.372v-6.984c0-.144-.008-.264-.024-.36a3.421 3.421 0 00-.036-.3V74.6h1.164zm15.186 0v.444h-.048a1.803 1.803 0 00-.288-.048 1.934 1.934 0 00-.336-.024 7.685 7.685 0 00-.468-.012h-1.296l.192-.192v7.5c.008.144.012.26.012.348.008.088.02.172.036.252l.012.084V83h-1.14v-.048l.012-.084c.016-.08.024-.164.024-.252.008-.088.012-.204.012-.348.008-.144.012-.32.012-.528v-6.972l.192.192h-1.296a8.31 8.31 0 00-.48.012c-.128 0-.24.008-.336.024-.088.008-.18.024-.276.048h-.048V74.6h5.508zm5.052 8.592a4.39 4.39 0 01-2.232-.588c-.68-.4-1.22-.94-1.62-1.62a4.39 4.39 0 01-.588-2.232c0-.808.196-1.552.588-2.232a4.4 4.4 0 011.62-1.608c.68-.4 1.424-.6 2.232-.6.808 0 1.552.2 2.232.6.68.392 1.216.928 1.608 1.608.4.68.6 1.424.6 2.232 0 .808-.2 1.552-.6 2.232a4.4 4.4 0 01-1.608 1.62 4.39 4.39 0 01-2.232.588zm-.156-.36c.664 0 1.264-.18 1.8-.54.536-.368.956-.86 1.26-1.476a4.65 4.65 0 00.456-2.064c0-.752-.14-1.44-.42-2.064-.272-.624-.656-1.116-1.152-1.476a2.72 2.72 0 00-1.656-.54c-.664 0-1.264.18-1.8.54-.528.36-.944.852-1.248 1.476a4.754 4.754 0 00-.444 2.064c0 .752.136 1.44.408 2.064.28.616.664 1.108 1.152 1.476.488.36 1.036.54 1.644.54zm10.72-8.232v.084c0 .08.009.172.025.276.016.096.044.22.084.372.048.152.108.328.18.528l2.4 6.756h-.132l2.316-8.208h.048l2.58 8.196h-.132l2.052-6.744c.064-.208.116-.388.156-.54.04-.152.064-.276.072-.372.016-.096.024-.184.024-.264V74.6h.564v.048c-.024.048-.048.1-.072.156-.048.12-.104.264-.168.432-.056.168-.12.376-.192.624L66.989 83c-.152 0-.308.024-.468.072-.16.032-.312.092-.456.18l-2.244-7.176h.312L62.189 83a1.84 1.84 0 00-.48.072 1.768 1.768 0 00-.444.18l-2.628-7.392a8.981 8.981 0 00-.204-.54 4.575 4.575 0 00-.156-.396 3.147 3.147 0 00-.12-.276V74.6h1.212zm15.137 5.832v.36h-4.32v-.36h4.32zM72.249 74.6c.16 0 .32-.02.48-.06.16-.04.308-.104.444-.192l2.616 7.392.252.696c.072.176.124.3.156.372l.072.144V83H75.08v-.06a1.6 1.6 0 00-.012-.156 2.387 2.387 0 00-.084-.372c-.048-.168-.12-.392-.216-.672l-2.412-6.888h.192l-2.664 6.876c-.104.28-.184.504-.24.672a2.546 2.546 0 00-.084.36.58.58 0 000 .168V83h-.612v-.048c.016-.032.04-.084.072-.156l.156-.36c.08-.176.176-.408.288-.696l2.784-7.14zm9.46 0v.444h-.048a1.803 1.803 0 00-.288-.048 1.934 1.934 0 00-.336-.024 7.685 7.685 0 00-.468-.012h-1.296l.192-.192v7.5c.008.144.012.26.012.348.008.088.02.172.036.252l.012.084V83h-1.14v-.048l.012-.084c.016-.08.024-.164.024-.252.008-.088.012-.204.012-.348.008-.144.012-.32.012-.528v-6.972l.192.192H77.34a8.31 8.31 0 00-.48.012c-.128 0-.24.008-.336.024-.088.008-.18.024-.276.048H76.2V74.6h5.508zm8.376 2.28h-.216a2.743 2.743 0 00-.6-1.188 2.742 2.742 0 00-1.032-.756 3.124 3.124 0 00-1.272-.264c-.6 0-1.176.152-1.728.456-.544.304-.988.764-1.332 1.38-.336.616-.504 1.364-.504 2.244 0 .904.16 1.664.48 2.28.328.608.752 1.06 1.272 1.356a3.384 3.384 0 001.68.444c.464 0 .904-.088 1.32-.264a3.078 3.078 0 001.092-.756 2.7 2.7 0 00.624-1.188h.216v1.188c-.424.424-.924.76-1.5 1.008a4.623 4.623 0 01-1.848.372 4.39 4.39 0 01-2.232-.588 4.428 4.428 0 01-1.596-1.62 4.39 4.39 0 01-.588-2.232c0-.808.196-1.552.588-2.232a4.336 4.336 0 011.596-1.608c.68-.4 1.424-.6 2.232-.6.656 0 1.272.124 1.848.372a4.758 4.758 0 011.5 1.008v1.188zm7.855-2.28v.048l-.048.3a4.465 4.465 0 00-.012.36v6.984c0 .144.004.268.012.372l.048.288V83h-1.164v-.048c.032-.104.052-.204.06-.3.016-.096.024-.216.024-.36v-6.984c0-.144-.008-.264-.024-.36a1.423 1.423 0 00-.06-.3V74.6h1.164zm-.96 2.556v.36h-4.2v-.36h4.2zM92.984 74.6v.048a2.318 2.318 0 00-.072.3 4.465 4.465 0 00-.012.36v6.984c0 .144.004.264.012.36.016.096.04.196.072.3V83H91.82v-.048c.024-.096.04-.192.048-.288.008-.104.012-.228.012-.372v-6.984c0-.144-.004-.264-.012-.36a1.806 1.806 0 00-.048-.3V74.6h1.164z"/></svg><svg viewBox="0 0 50 36" id="playMobile" xmlns="http://www.w3.org/2000/svg"><path d="M16.635.148l18.028 10.408a1.09 1.09 0 010 1.888L16.635 22.852A1.09 1.09 0 0115 21.908V1.092c0-.84.908-1.364 1.635-.944zM4.062 30.346v.594h-.108c-.168-.72-.798-1.104-1.452-1.104-.864 0-1.782.654-1.782 2.04 0 1.428.87 2.04 1.716 2.04.684 0 1.344-.402 1.518-1.104h.108v.594c-.402.402-.996.69-1.674.69a2.197 2.197 0 01-2.208-2.22c0-1.236.972-2.22 2.208-2.22.678 0 1.272.288 1.674.69zm.867-.546h.582v.024c-.042.156-.042.228-.042.606v3.39h1.02c.378 0 .45 0 .606-.042h.024V34H4.93v-.024c.03-.156.03-.228.03-.606v-2.94c0-.378 0-.45-.03-.606V29.8zm2.702 0h.57v.024c-.03.156-.03.228-.03.606v2.94c0 .378 0 .45.03.606V34h-.57v-.024c.03-.156.03-.228.03-.606v-2.94c0-.378 0-.45-.03-.606V29.8zm5.203.546v.594h-.108c-.169-.72-.799-1.104-1.453-1.104-.864 0-1.782.654-1.782 2.04 0 1.428.87 2.04 1.716 2.04.684 0 1.345-.402 1.518-1.104h.109v.594c-.402.402-.996.69-1.675.69a2.197 2.197 0 01-2.208-2.22c0-1.236.972-2.22 2.208-2.22.678 0 1.272.288 1.675.69zm.867-.546h.582v.024c-.042.156-.042.228-.042.606v1.212l1.296-1.212c.378-.348.522-.504.57-.606l.012-.024h.342v.018c-.162.114-.306.258-.678.612l-.618.588 1.134 1.926c.39.666.642.918.786.978l-.006.09c-.582.072-.924-.366-1.188-.816l-1.098-1.842-.552.516v1.5c0 .378 0 .45.042.606V34H13.7v-.024c.03-.156.03-.228.03-.606v-2.94c0-.378 0-.45-.03-.606V29.8zm5.421 0h2.754v.222h-.024c-.156-.042-.228-.042-.546-.042h-.552v3.39c0 .36.006.444.024.564l.006.042V34h-.57v-.024l.006-.042c.018-.12.024-.204.024-.564v-3.39h-.552c-.318 0-.39 0-.546.042h-.024V29.8zm5.28 4.296a2.207 2.207 0 01-2.22-2.22c0-1.236.984-2.22 2.22-2.22 1.236 0 2.22.984 2.22 2.22 0 1.236-.984 2.22-2.22 2.22zm-1.68-2.22c0 1.134.666 2.04 1.602 2.04 1.02 0 1.758-.906 1.758-2.04 0-1.14-.672-2.04-1.614-2.04-1.014 0-1.746.9-1.746 2.04zm6.356-2.076h.606v.042c0 .108.024.258.144.588l1.164 3.276 1.128-4.002h.024l1.254 3.99.996-3.264c.108-.342.126-.48.126-.588V29.8h.282v.024c-.06.114-.108.258-.216.606L33.494 34a.99.99 0 00-.462.126l-1.038-3.324-.9 3.198a.99.99 0 00-.462.126l-1.314-3.696c-.126-.348-.18-.492-.24-.606V29.8zm7.046 0c.145 0 .319-.03.462-.126l1.309 3.696c.18.504.221.57.24.606V34h-.594v-.024c0-.036.018-.102-.156-.606l-.168-.474h-2.094l-.18.468c-.192.504-.162.576-.162.612V34h-.306v-.024c.017-.036.06-.108.258-.606l1.392-3.57zm-.93 2.916h1.962l-.93-2.658-1.032 2.658zM38.1 29.8h2.755v.222h-.024c-.157-.042-.229-.042-.547-.042h-.551v3.39c0 .36.006.444.024.564l.006.042V34h-.57v-.024l.006-.042c.018-.12.023-.204.023-.564v-3.39h-.552c-.318 0-.39 0-.546.042H38.1V29.8zm6.942.546v.594h-.108c-.167-.72-.797-1.104-1.451-1.104-.864 0-1.782.654-1.782 2.04 0 1.428.87 2.04 1.715 2.04.684 0 1.345-.402 1.519-1.104h.107v.594c-.401.402-.995.69-1.674.69a2.197 2.197 0 01-2.208-2.22c0-1.236.973-2.22 2.209-2.22.678 0 1.272.288 1.673.69zm3.346-.546h.582v.024c-.03.156-.03.228-.03.606v2.94c0 .378 0 .45.03.606V34h-.582v-.024c.042-.156.042-.228.042-.606v-2.112h-1.98v2.112c0 .378 0 .45.042.606V34h-.582v-.024c.03-.156.03-.228.03-.606v-2.94c0-.378 0-.45-.03-.606V29.8h.582v.024c-.042.156-.042.228-.042.606v.648h1.98v-.648c0-.378 0-.45-.042-.606V29.8z"/></svg><svg viewBox="0 0 33 33" id="tw" xmlns="http://www.w3.org/2000/svg"><path d="M16.195 32.752C7.27 32.79-.07 25.362.143 16.287.343 7.646 7.502.507 16.401.604c8.816.096 16.11 7.435 15.871 16.522-.225 8.603-7.326 15.67-16.077 15.626zM2.097 16.7c.071 8.08 6.624 14.304 14.362 14.169 7.494-.136 13.846-6.243 13.846-14.188 0-8.08-6.604-14.33-14.368-14.181-7.494.135-13.788 6.261-13.84 14.2z"/><path fill-rule="evenodd" clip-rule="evenodd" d="M24.644 11.338a6.745 6.745 0 01-1.982.557 3.534 3.534 0 001.518-1.958c-.668.405-1.406.7-2.194.858a3.405 3.405 0 00-2.52-1.117c-1.906 0-3.452 1.585-3.452 3.54 0 .278.03.547.089.807-2.87-.148-5.414-1.556-7.118-3.701a3.606 3.606 0 00-.467 1.782c0 1.228.61 2.312 1.536 2.947a3.39 3.39 0 01-1.565-.442v.044c0 1.716 1.19 3.147 2.771 3.472a3.3 3.3 0 01-.91.124 3.35 3.35 0 01-.65-.063c.44 1.407 1.714 2.43 3.226 2.458a6.818 6.818 0 01-5.113 1.468 9.614 9.614 0 005.293 1.59c6.353 0 9.825-5.395 9.825-10.074 0-.154-.003-.308-.009-.46a7.082 7.082 0 001.722-1.832z"/></svg><svg viewBox="0 0 34 34" id="wht" xmlns="http://www.w3.org/2000/svg"><path d="M33.361 16.116c0 8.9-7.27 16.115-16.24 16.115-2.849 0-5.524-.728-7.852-2.005L.278 33.083l2.931-8.646a15.946 15.946 0 01-2.33-8.321C.879 7.216 8.15 0 17.12 0c8.971 0 16.241 7.215 16.241 16.116zm-16.24-13.55c-7.53 0-13.655 6.079-13.655 13.55 0 2.964.966 5.71 2.6 7.943l-1.705 5.032 5.247-1.668a13.646 13.646 0 007.512 2.242c7.53 0 13.655-6.078 13.655-13.549 0-7.47-6.125-13.55-13.655-13.55zm8.2 17.261c-.1-.164-.365-.263-.763-.46-.398-.198-2.356-1.154-2.72-1.286-.365-.131-.631-.197-.896.198s-1.028 1.285-1.26 1.548c-.233.264-.465.297-.864.1-.397-.198-1.68-.615-3.2-1.96-1.184-1.047-1.983-2.34-2.215-2.736-.232-.395-.025-.609.174-.805.18-.177.399-.462.598-.692.2-.23.265-.395.397-.66.134-.263.067-.493-.033-.691-.099-.198-.896-2.141-1.227-2.933-.332-.79-.663-.658-.896-.658-.232 0-.498-.033-.763-.033-.266 0-.697.098-1.062.494-.365.395-1.393 1.35-1.393 3.294s1.426 3.822 1.626 4.085c.199.264 2.753 4.382 6.8 5.964 4.048 1.58 4.048 1.053 4.778.987.729-.066 2.354-.955 2.688-1.877.33-.924.33-1.714.232-1.879z"/></svg><svg viewBox="0 0 33 33" id="yt" xmlns="http://www.w3.org/2000/svg"><path fill-rule="evenodd" clip-rule="evenodd" d="M16.76 32.752C7.834 32.79.496 25.362.708 16.287.908 7.646 8.067.507 16.966.604c8.816.096 16.11 7.435 15.871 16.522-.226 8.603-7.326 15.67-16.077 15.626zM2.662 16.7c.071 8.08 6.624 14.304 14.362 14.169 7.494-.136 13.846-6.243 13.846-14.188 0-8.08-6.604-14.33-14.368-14.181-7.494.135-13.788 6.261-13.84 14.2zm5.603-2.568a3.441 3.441 0 013.068-3.201 54.747 54.747 0 015.465-.268c1.902 0 3.738.094 5.465.269a3.44 3.44 0 013.067 3.2 39.622 39.622 0 010 5.038 3.441 3.441 0 01-3.067 3.2 54.717 54.717 0 01-5.465.268c-1.903 0-3.738-.093-5.465-.268a3.44 3.44 0 01-3.068-3.2 39.587 39.587 0 010-5.039zM15.2 19.23l4.228-2.58-4.228-2.579v5.16z"/></svg></svg>